<?xml version="1.0" encoding="utf-8"?>
<!-- Generator: Adobe Illustrator 19.0.0, SVG Export Plug-In . SVG Version: 6.00 Build 0)  -->
<svg version="1.1" id="Layer_1" xmlns="http://www.w3.org/2000/svg" xmlns:xlink="http://www.w3.org/1999/xlink" x="0px" y="0px"
	 viewBox="0 0 584.3 113.1" style="enable-background:new 0 0 584.3 113.1;" xml:space="preserve">
<style type="text/css">
	.Drop_x0020_Shadow{fill:none;}
	.Round_x0020_Corners_x0020_2_x0020_pt{fill:#FFFFFF;stroke:#000000;stroke-miterlimit:10;}
	.Live_x0020_Reflect_x0020_X{fill:none;}
	.Bevel_x0020_Soft{fill:url(#SVGID_1_);}
	.Dusk{fill:#FFFFFF;}
	.Foliage_GS{fill:#FFDD00;}
	.Pompadour_GS{fill-rule:evenodd;clip-rule:evenodd;fill:#44ADE2;}
	.st0{fill:#00ABC3;}
	.st1{fill:#EE9022;}
	.st2{fill:none;stroke:#00ABC3;stroke-width:6;stroke-miterlimit:10;}
</style>
<linearGradient id="SVGID_1_" gradientUnits="userSpaceOnUse" x1="-9" y1="-340" x2="-8.2929" y2="-339.2929">
	<stop  offset="0" style="stop-color:#DEDFE3"/>
	<stop  offset="0.1738" style="stop-color:#D8D9DD"/>
	<stop  offset="0.352" style="stop-color:#C9CACD"/>
	<stop  offset="0.5323" style="stop-color:#B4B5B8"/>
	<stop  offset="0.7139" style="stop-color:#989A9C"/>
	<stop  offset="0.8949" style="stop-color:#797C7E"/>
	<stop  offset="1" style="stop-color:#656B6C"/>
</linearGradient>
<g id="XMLID_13_">
	<path id="XMLID_14_" class="st0" d="M168.3,35.4h5.1L153.1,72H147l-20.1-36.6h5.2L150,68L168.3,35.4z"/>
	<path id="XMLID_16_" class="st0" d="M179.6,51.2h30.7v3.7h-30.7v13.5h32.2V72h-36.7V35.4h36.3v3.7h-31.9V51.2z"/>
	<path id="XMLID_18_" class="st0" d="M248.3,35.4c4.1,0,7.2,0.7,9.3,2.1c2.1,1.4,3.1,4.3,3.1,8.8c0,3.2-0.5,5.5-1.5,6.7
		c-1,1.3-3.1,2.1-6.3,2.6c2.1,0.3,3.8,0.8,5.2,1.6c1.3,0.8,2,2.4,2,4.9V72h-4.4v-8.1c0-2.8-0.6-4.6-1.8-5.4
		c-1.2-0.8-3.2-1.2-5.9-1.2h-25V72h-4.4V35.4H248.3z M247.5,53.5c3.1,0,5.3-0.4,6.6-1.4c1.3-1,2-3,2-6.1c0-3.1-0.8-5-2.3-5.7
		c-1.5-0.8-3.7-1.1-6.5-1.1h-24.4v14.3H247.5z"/>
	<path id="XMLID_21_" class="st0" d="M307.4,45.5H303c0-0.2,0-0.5,0-0.8c0-0.3,0-0.6-0.1-0.9c-0.1-0.7-0.3-1.4-0.6-2.1
		c-0.3-0.7-0.8-1.2-1.6-1.5c-0.7-0.4-1.7-0.6-3-0.8c-1.3-0.2-2.6-0.3-3.9-0.4c-0.9,0-1.8-0.1-2.7-0.1c-0.9,0-1.7,0-2.4,0h-1.5
		c-0.8,0-1.8,0.1-2.9,0.1c-1.2,0-2.4,0.1-3.6,0.2c-1.3,0.1-2.6,0.3-3.8,0.5c-1.2,0.2-2.3,0.5-3.1,0.8c-0.9,0.4-1.5,1-1.8,1.8
		c-0.3,0.8-0.5,1.7-0.6,2.6c0,0.1,0,0.2,0,0.3c0,0.1,0,0.2,0,0.3c0,2.4,0.7,3.9,2,4.6c1.4,0.7,3.1,1.1,5.2,1.2c0.3,0,0.7,0.1,1,0.1
		c0.3,0,0.7,0,1,0c0.3,0,0.7,0,1,0s0.7,0,1,0c0.7,0,1.5,0,2.2,0c0.7,0,1.4,0,2.2-0.1c0.7,0,1.4,0,2.1,0c0.7,0,1.4,0,2.1,0
		c0.6,0,1.3,0,1.9,0c0.6,0,1.3,0,1.9,0.1c0.6,0,1.3,0.1,1.9,0.1c0.6,0,1.3,0.1,1.9,0.2c3.4,0.4,5.8,1.2,7.3,2.6
		c1.5,1.4,2.3,3.8,2.3,7.3c0,2-0.3,3.8-0.9,5.4c-0.6,1.6-1.9,2.8-4,3.7c-1.1,0.5-2.4,0.9-3.9,1.1c-1.5,0.2-3.1,0.3-4.6,0.4
		c-0.8,0-1.7,0.1-2.5,0.1c-0.8,0-1.6,0-2.4,0h-2.9c-0.9,0-1.8,0-2.8,0c-0.9,0-1.9,0-2.8-0.1c-1,0-1.9-0.1-2.8-0.1
		c-0.9-0.1-1.9-0.1-2.8-0.2c-3.8-0.5-6.3-1.6-7.5-3.2c-1.2-1.6-1.7-4.3-1.7-8l4.4-0.1v0.8c0,0.1,0,0.1,0,0.1s0,0,0,0.1
		c0,1.4,0.2,2.6,0.5,3.7c0.3,1.1,1.2,1.8,2.8,2.3c0.9,0.3,1.9,0.4,3.1,0.6c1.2,0.1,2.4,0.2,3.6,0.3c1.1,0,2.2,0.1,3.3,0.1
		c1.1,0,2.1,0,2.9,0c0.6,0,1.2,0,1.7,0c0.6,0,1.1,0,1.7,0c1.2,0,2.3-0.1,3.5-0.2c1.2-0.1,2.3-0.2,3.4-0.4c2.1-0.3,3.6-0.8,4.6-1.7
		c1-0.9,1.5-2.4,1.5-4.5c0-2.8-0.7-4.5-2.1-5.1c-1.4-0.6-3.4-0.9-6-1l-8.4-0.2c-0.3,0-0.7,0.1-1,0.1s-0.7,0-1-0.1
		c-1.3,0-2.6,0-4-0.1c-1.3,0-2.6-0.1-3.9-0.2c-3.2-0.2-5.8-0.8-7.8-2c-2-1.1-3-3.4-3-6.7c0-2.2,0.4-4.2,1.1-6
		c0.8-1.8,2.2-3.1,4.5-3.9c1-0.4,2.2-0.7,3.6-0.9c1.4-0.2,2.8-0.4,4.3-0.4c1.3-0.1,2.6-0.2,3.9-0.2c1.3,0,2.4,0,3.4,0
		c0.9,0,1.8,0,2.7,0c0.9,0,1.8,0,2.7,0.1c0.9,0,1.8,0.1,2.7,0.1c0.9,0.1,1.8,0.1,2.7,0.2c3.2,0.3,5.5,1.3,7,2.9
		C306.7,40,307.4,42.4,307.4,45.5L307.4,45.5z"/>
	<path id="XMLID_23_" class="st0" d="M319.3,63.8l-4.7,8.2h-5.2l21.6-36.6h5.9L358.8,72h-5.1l-4.8-8.2H319.3z M334.1,38.6
		l-12.6,21.5h25.4L334.1,38.6z"/>
	<path id="XMLID_26_" class="st1" d="M404.4,35.4c6.3,0,10.3,1.6,12,4.6c1.7,3,2.5,7.4,2.5,13.2c0,1,0,2.1-0.1,3.2
		c0,1.2-0.1,2.4-0.3,3.6c-0.2,1.7-0.6,3.4-1.1,5c-0.5,1.6-1.3,2.9-2.3,4c-1.1,1.1-2.4,1.9-3.9,2.3c-1.5,0.4-3,0.7-4.5,0.7
		c-0.7,0-1.3,0.1-1.9,0.1c-0.6,0-1.2,0-1.9,0h-0.4h-28.7V35.4H404.4z M402.9,68.3c5.6,0,8.9-1.3,9.9-4c1-2.7,1.5-6.4,1.5-11.1
		c0-4.5-0.5-7.9-1.6-10.4c-1.1-2.5-4.2-3.7-9.3-3.7h-25.2v29.2H402.9z"/>
	<path id="XMLID_29_" class="st1" d="M430.3,51.2H461v3.7h-30.7v13.5h32.2V72h-36.7V35.4h36.3v3.7h-31.9V51.2z"/>
	<path id="XMLID_31_" class="st1" d="M509.2,45.5h-4.4c0-0.2,0-0.5,0-0.8c0-0.3,0-0.6-0.1-0.9c-0.1-0.7-0.3-1.4-0.6-2.1
		c-0.3-0.7-0.8-1.2-1.6-1.5c-0.7-0.4-1.7-0.6-3-0.8c-1.3-0.2-2.6-0.3-3.9-0.4c-0.9,0-1.8-0.1-2.7-0.1c-0.9,0-1.7,0-2.4,0H489
		c-0.8,0-1.8,0.1-2.9,0.1s-2.4,0.1-3.6,0.2c-1.3,0.1-2.6,0.3-3.8,0.5c-1.2,0.2-2.3,0.5-3.1,0.8c-0.9,0.4-1.5,1-1.8,1.8
		c-0.3,0.8-0.5,1.7-0.6,2.6c0,0.1,0,0.2,0,0.3c0,0.1,0,0.2,0,0.3c0,2.4,0.7,3.9,2,4.6c1.4,0.7,3.1,1.1,5.2,1.2c0.3,0,0.7,0.1,1,0.1
		c0.3,0,0.7,0,1,0c0.3,0,0.7,0,1,0c0.3,0,0.7,0,1,0c0.7,0,1.5,0,2.2,0s1.4,0,2.2-0.1c0.7,0,1.4,0,2.1,0c0.7,0,1.4,0,2.1,0
		c0.6,0,1.3,0,1.9,0s1.3,0,2,0.1c0.6,0,1.3,0.1,1.9,0.1c0.6,0,1.3,0.1,1.9,0.2c3.4,0.4,5.8,1.2,7.3,2.6c1.5,1.4,2.3,3.8,2.3,7.3
		c0,2-0.3,3.8-0.9,5.4c-0.6,1.6-1.9,2.8-4,3.7c-1.1,0.5-2.4,0.9-3.9,1.1c-1.5,0.2-3.1,0.3-4.6,0.4c-0.8,0-1.7,0.1-2.5,0.1
		s-1.6,0-2.4,0h-2.9c-0.9,0-1.8,0-2.8,0s-1.9,0-2.8-0.1c-1,0-1.9-0.1-2.8-0.1c-0.9-0.1-1.9-0.1-2.8-0.2c-3.8-0.5-6.3-1.6-7.5-3.2
		c-1.2-1.6-1.7-4.3-1.7-8l4.4-0.1v0.8c0,0.1,0,0.1,0,0.1s0,0,0,0.1c0,1.4,0.2,2.6,0.5,3.7c0.3,1.1,1.2,1.8,2.8,2.3
		c0.9,0.3,1.9,0.4,3.1,0.6c1.2,0.1,2.4,0.2,3.6,0.3c1.1,0,2.2,0.1,3.3,0.1c1.1,0,2.1,0,2.9,0c0.6,0,1.2,0,1.7,0c0.6,0,1.1,0,1.7,0
		c1.2,0,2.3-0.1,3.5-0.2c1.2-0.1,2.3-0.2,3.4-0.4c2.1-0.3,3.6-0.8,4.6-1.7c1-0.9,1.5-2.4,1.5-4.5c0-2.8-0.7-4.5-2.1-5.1
		c-1.4-0.6-3.4-0.9-6-1l-8.4-0.2c-0.3,0-0.7,0.1-1,0.1c-0.3,0-0.7,0-1-0.1c-1.3,0-2.6,0-4-0.1c-1.3,0-2.6-0.1-3.9-0.2
		c-3.2-0.2-5.8-0.8-7.8-2c-2-1.1-3-3.4-3-6.7c0-2.2,0.4-4.2,1.1-6c0.8-1.8,2.2-3.1,4.5-3.9c1-0.4,2.2-0.7,3.6-0.9
		c1.4-0.2,2.8-0.4,4.3-0.4c1.3-0.1,2.6-0.2,3.9-0.2c1.3,0,2.4,0,3.4,0c0.9,0,1.8,0,2.7,0c0.9,0,1.8,0,2.7,0.1c0.9,0,1.8,0.1,2.7,0.1
		c0.9,0.1,1.8,0.1,2.7,0.2c3.2,0.3,5.5,1.3,7,2.9C508.5,40,509.2,42.4,509.2,45.5L509.2,45.5z"/>
	<path id="XMLID_33_" class="st1" d="M527.6,51.2l24.1-15.8h7.6L532.3,53L561,72h-8l-25.4-17.1h-6.5V72h-4.4V35.4h4.4v15.8H527.6z"
		/>
</g>
<g id="XMLID_3_">
	<path id="XMLID_4_" class="st1" d="M577,33.7c1.8,0,3.3,0.7,4.6,1.9c1.3,1.3,1.9,2.8,1.9,4.6s-0.6,3.3-1.9,4.6
		c-1.3,1.3-2.8,1.9-4.6,1.9c-1.8,0-3.3-0.6-4.6-1.9s-1.9-2.8-1.9-4.6c0-1.8,0.6-3.3,1.9-4.6C573.7,34.3,575.2,33.7,577,33.7
		L577,33.7z M577,34.4c-1.6,0-3,0.6-4.1,1.7s-1.7,2.5-1.7,4.1c0,1.6,0.6,2.9,1.7,4.1c1.1,1.1,2.5,1.7,4.1,1.7c1.6,0,2.9-0.6,4.1-1.7
		c1.1-1.1,1.7-2.5,1.7-4.1s-0.6-2.9-1.7-4.1C580,35,578.6,34.4,577,34.4L577,34.4z M577.3,36.5c0,0,0.1,0,0.1,0c0,0,0.1,0,0.1,0
		c0.6,0,1.1,0.2,1.6,0.5c0.5,0.3,0.7,0.8,0.7,1.5c0,0.4-0.1,0.8-0.4,1.2s-0.6,0.6-1,0.7c0.6,0.2,0.9,0.5,1,0.8
		c0.1,0.4,0.2,0.8,0.2,1.3c0,0.1,0,0.1,0,0.2s0,0.1,0,0.2c0,0.2,0,0.4,0.1,0.6c0,0.2,0.1,0.4,0.2,0.6l-0.9,0
		c-0.1-0.1-0.1-0.2-0.1-0.3s0-0.2,0-0.3c0,0,0-0.1,0-0.1c0,0,0-0.1,0-0.1c0-0.1,0-0.2,0-0.2s0-0.1,0-0.2c0-0.7-0.1-1.2-0.3-1.5
		c-0.2-0.3-0.7-0.5-1.7-0.5h-1.8V44h-0.9v-7.5H577.3z M575.1,40.1h1.9c0.5,0,1-0.1,1.4-0.3c0.4-0.2,0.6-0.6,0.6-1.2
		c0-0.6-0.2-0.9-0.6-1.1s-0.8-0.3-1.3-0.3l-2,0V40.1z"/>
</g>
<g id="XMLID_8_">
	<path id="XMLID_6_" class="st1" d="M64,87c-4.4-1.8-7.1-5.1-9.1-9.4c-3.9-8.3-8.2-16.4-12.3-24.6c-0.6-1.2-1.5-2.2-1.2-3.6
		c4.3-1.5,6.6,0.1,8.4,4.2C53.3,61.5,57.3,69,61,76.6c1.2,2.5,2.6,4.7,5.9,4.6c2.9-0.1,4.3-2.1,5.4-4.5c3.5-7.2,7.5-14.2,10.6-21.5
		c2-4.8,4.9-7.1,10.1-6.2c0,0.3,0,0.7,0,1c-1.7,0.8-2,2.5-2.7,4c-3.8,7.5-7.6,15-11.1,22.7c-2,4.5-4.6,8.3-9.2,10.4
		C68,87,66,87,64,87z"/>
	<path id="XMLID_7_" class="st1" d="M46,24c5.5,1.5,8.4,5.4,10.6,10.3c3.6,7.9,7.6,15.6,11.2,23.4c0.6,1.2,2.8,3.1,0.7,4.1
		c-2,0.9-4.8,1-6.3-2.1c-3.4-7.1-6.9-14-10.6-20.9c-1.8-3.4-2.4-8.4-7.4-8.5c-5.1-0.2-5.7,4.9-7.5,8.3c-3.5,6.6-6.8,13.3-10.2,20
		c-0.5,0.9-0.7,1.9-1.4,2.6c-1.6,1.8-3.9,1.6-5.5,0.6c-1.8-1,0-2.6,0.6-3.8C24.6,49.3,29,40.7,33,32c1.9-4.1,5-6.4,9-8
		C43.3,24,44.7,24,46,24z"/>
</g>
<ellipse id="XMLID_5_" class="st2" cx="56.6" cy="56.8" rx="51.4" ry="52.2"/>
</svg>
