<?xml version="1.0" encoding="utf-8"?>
<!-- Generator: Adobe Illustrator 21.1.0, SVG Export Plug-In . SVG Version: 6.00 Build 0)  -->
<svg version="1.1" id="Layer_1" xmlns="http://www.w3.org/2000/svg" xmlns:xlink="http://www.w3.org/1999/xlink" x="0px" y="0px"
	 viewBox="0 0 1360.5 512.5" style="enable-background:new 0 0 1360.5 512.5;" xml:space="preserve">
<style type="text/css">
	.st0{fill:#888888;}
	.st1{fill:#7BC052;}
	.st2{fill:url(#SVGID_1_);}
</style>
<path class="st0" d="M63.3,465.7v-13.5l48.6-0.1v42.5c-7.5,5.9-15.1,10.4-23.1,13.4c-7.8,3-16.1,4.5-24.4,4.5
	c-11.3,0-21.5-2.4-30.7-7.2s-16.1-11.8-20.8-20.9s-7-19.3-7-30.6c0-11.2,2.3-21.6,7-31.2c4.7-9.7,11.4-16.9,20.1-21.5s18.8-7,30.3-7
	c8.3,0,15.8,1.3,22.5,4s12,6.4,15.8,11.2c3.8,4.8,6.7,11.1,8.7,18.8l-13.7,3.8c-1.7-5.8-3.9-10.4-6.4-13.8c-2.6-3.3-6.2-6-10.9-8
	s-10-3-15.8-3c-6.9,0-12.9,1.1-18,3.2s-9.1,4.9-12.2,8.3s-5.5,7.2-7.2,11.3c-2.9,7.1-4.4,14.8-4.4,23.1c0,10.2,1.8,18.8,5.3,25.7
	s8.6,12,15.4,15.3c6.7,3.3,13.9,5,21.4,5c6.6,0,13-1.3,19.2-3.8c6.3-2.5,11-5.2,14.2-8.1v-21.4L63.3,465.7L63.3,465.7z M136.9,510.6
	V396h50.8c10.2,0,18,1,23.3,3.1s9.6,5.7,12.7,10.9c3.2,5.2,4.8,11,4.8,17.3c0,8.1-2.6,15-7.9,20.6s-13.4,9.1-24.4,10.6
	c4,1.9,7.1,3.8,9.2,5.7c4.4,4.1,8.6,9.1,12.6,15.2l19.9,31.2h-19.1l-15.2-23.9c-4.4-6.9-8.1-12.1-10.9-15.8
	c-2.9-3.6-5.4-6.2-7.7-7.7s-4.6-2.5-6.9-3.1c-1.7-0.4-4.5-0.5-8.4-0.5h-17.6v50.9L136.9,510.6L136.9,510.6z M152,446.6h32.6
	c6.9,0,12.4-0.7,16.3-2.2c3.9-1.4,6.9-3.7,8.9-6.9s3.1-6.6,3.1-10.3c0-5.4-2-9.9-5.9-13.4s-10.2-5.2-18.7-5.2H152V446.6L152,446.6z
	 M242.1,510.6l44-114.7h16.3l46.9,114.7H332l-13.4-34.7h-47.9l-12.5,34.7H242.1L242.1,510.6z M275.2,463.6h38.9l-12-31.8
	c-3.6-9.6-6.4-17.6-8.1-23.8c-1.5,7.4-3.5,14.7-6.2,21.9L275.2,463.6L275.2,463.6z M384.8,510.6L340.4,396h16.4l29.8,83.3
	c2.4,6.7,4.4,12.9,6,18.8c1.8-6.3,3.8-12.5,6.2-18.8l31-83.3h15.5l-44.9,114.7L384.8,510.6L384.8,510.6z M463.9,510.6V396h15.2
	v114.7L463.9,510.6L463.9,510.6z M537.3,510.6V409.5h-37.8V396h90.9v13.5h-37.9v101.1H537.3L537.3,510.6z M640.7,510.6V462l-44.2-66
	H615l22.6,34.6c4.2,6.5,8.1,12.9,11.7,19.4c3.4-6,7.6-12.7,12.5-20.3L684,396h17.7l-45.8,66.1v48.6L640.7,510.6L640.7,510.6z
	 M787.9,510.6V409.5h-37.7V396h90.9v13.5h-37.9v101.1H787.9L787.9,510.6z M834.5,510.6l44-114.7h16.3l46.9,114.7h-17.3l-13.2-34.7
	h-48l-12.6,34.7H834.5z M867.6,463.6h38.9l-12-31.8c-3.7-9.6-6.4-17.6-8.1-23.8c-1.5,7.4-3.5,14.7-6.2,21.9L867.6,463.6L867.6,463.6
	z M955.7,510.6V396h43c8.8,0,15.8,1.2,21.1,3.5s9.4,5.9,12.4,10.7c3,4.8,4.5,9.9,4.5,15.1c0,4.9-1.3,9.5-4,13.8s-6.7,7.8-12,10.5
	c6.9,2,12.3,5.5,16,10.4s5.6,10.7,5.6,17.4c0,5.4-1.1,10.4-3.4,15s-5.1,8.2-8.4,10.7s-7.5,4.4-12.6,5.7c-5,1.3-11.2,1.9-18.5,1.9
	h-43.7L955.7,510.6z M970.9,444.2h24.8c6.7,0,11.5-0.4,14.5-1.3c3.9-1.1,6.8-3,8.7-5.7s2.9-6,2.9-10c0-3.8-0.9-7.2-2.7-10
	c-1.8-2.9-4.4-4.9-7.8-5.9c-3.4-1.1-9.2-1.6-17.4-1.6H971L970.9,444.2L970.9,444.2z M970.9,497.1h28.5c4.9,0,8.3-0.2,10.3-0.5
	c3.5-0.6,6.4-1.7,8.8-3.1c2.3-1.5,4.3-3.6,5.8-6.4c1.5-2.8,2.3-6,2.3-9.7c0-4.3-1.1-8-3.3-11.1c-2.2-3.2-5.2-5.4-9.1-6.6
	c-3.9-1.3-9.5-1.9-16.8-1.9h-26.5L970.9,497.1L970.9,497.1z M1065,510.6V396h15.2v101.1h56.5v13.5H1065L1065,510.6z M1157.4,510.6
	V396h82.9v13.5h-67.7v35.1h63.4v13.5h-63.4v39h70.4v13.5H1157.4L1157.4,510.6z M1261.1,473.8l14.3-1.3c0.7,5.7,2.3,10.4,4.7,14.1
	c2.5,3.7,6.3,6.6,11.5,8.9s11.1,3.4,17.6,3.4c5.8,0,10.9-0.9,15.3-2.6s7.7-4.1,9.9-7.1s3.2-6.3,3.2-9.8c0-3.6-1-6.7-3.1-9.4
	s-5.5-4.9-10.3-6.8c-3.1-1.2-9.9-3.1-20.4-5.6s-17.9-4.9-22.1-7.2c-5.5-2.9-9.6-6.4-12.2-10.7c-2.7-4.2-4-9-4-14.3
	c0-5.8,1.6-11.2,4.9-16.2s8.1-8.8,14.4-11.5c6.3-2.6,13.3-3.9,21-3.9c8.5,0,16,1.4,22.5,4.1s11.5,6.8,15,12.1s5.4,11.3,5.6,18.1
	l-14.5,1.1c-0.8-7.2-3.4-12.7-7.9-16.4s-11.2-5.6-20-5.6c-9.2,0-15.9,1.7-20.1,5c-4.2,3.4-6.3,7.4-6.3,12.2c0,4.1,1.5,7.5,4.5,10.2
	c2.9,2.7,10.5,5.4,22.9,8.2c12.3,2.8,20.8,5.2,25.4,7.3c6.7,3.1,11.6,7,14.8,11.7s4.8,10.2,4.8,16.3s-1.7,11.8-5.2,17.2
	s-8.5,9.6-15.1,12.6c-6.5,3-13.9,4.5-22.1,4.5c-10.4,0-19.1-1.5-26.1-4.5s-12.5-7.6-16.5-13.6
	C1263.4,488.3,1261.3,481.5,1261.1,473.8L1261.1,473.8z M31.8,13.8v67.3h131.8L0,338.2h282.2v-67.8H136.4L304.2,13.8
	C304.2,13.8,31.8,12.3,31.8,13.8z M392.4,13.8v324.4h197.5v-67.8H476v-63.1h106.7v-64.6H477.6V80.1h112.3V13.8H392.4z M867.5,206.3
	c0,0,75.4-5.1,75.4-91.3S879.3,13.9,851.1,13.9H704.9v324.4h77V209.4l80.5,128.9h94.4L867.5,206.3z M782.3,169.3V78
	c0,0,78.5-15.4,78.5,44.6S782.3,169.3,782.3,169.3L782.3,169.3z"/>
<path class="st1" d="M1186.8,347.4c95.9,0,173.7-77.7,173.7-173.7S1282.7,0,1186.8,0v76.5c53.7,0,97.2,43.5,97.2,97.2
	s-43.5,97.2-97.2,97.2"/>
<linearGradient id="SVGID_1_" gradientUnits="userSpaceOnUse" x1="1207.636" y1="126.7271" x2="1151.4769" y2="170.2901" gradientTransform="matrix(1 0 0 1 0 7.7333)">
	<stop  offset="0" style="stop-color:#FFFFFF;stop-opacity:0"/>
	<stop  offset="1" style="stop-color:#7BC052"/>
</linearGradient>
<path class="st2" d="M1186.8,270.9c-53.7,0-97.2-43.5-97.2-97.2s43.5-97.2,97.2-97.2V0c-95.9,0-173.7,77.7-173.7,173.7
	s77.7,173.7,173.7,173.7"/>
</svg>
