<svg xmlns="http://www.w3.org/2000/svg" viewBox="0 0 60 66" fill-rule="evenodd"><circle cx="30" cy="36" r="30" fill="#7eca68" enable-background="new"/><path d="M51.9 20.6c-1.4-2.6-2.9-4.9-5.8-9l-3.8-5.4a35.25 35.25 0 0 1-2.9-5.1c-.3-.5-.7-.8-1.2-.9h-.4c-.6.1-1 .4-1.2.9-.6 1.4-2.8 4.9-2.4 4.3-.5.8-1.8 2.7-1.8 2.7-.8 1.2-1.7 2.4-2.6 3.6-1.9 2.6-3.7 5.2-5.3 8.1 0 0-.7 1.3-1.4 2.8-1.1 2.5-1.8 5-1.8 7.8C21.3 39.6 28.8 47 38 47s16.7-7.4 16.7-16.6c0-3.1-.9-6.3-2.8-9.8zM38 43.8c-7.5 0-13.5-6-13.5-13.4 0-2.5.8-5.2 2.4-8.3 1.3-2.4 2.7-4.6 5.5-8.6 2.6-3.5 3-4 3.9-5.5.6-.9 1.2-1.8 1.7-2.7.5.9 1.1 1.8 1.7 2.7 1 1.5 1.3 2 3.9 5.5 2.8 3.9 4.3 6.1 5.5 8.6 1.6 3 2.4 5.7 2.4 8.3 0 7.4-6 13.4-13.5 13.4zm9.3-15.2a1.58 1.58 0 0 0-1.6 1.6c0 4.3-3.5 7.8-7.7 7.8a1.58 1.58 0 0 0-1.6 1.6 1.58 1.58 0 0 0 1.6 1.6 10.93 10.93 0 0 0 10.9-10.9c0-1-.7-1.7-1.6-1.7z" fill="#262626" enable-background="new"/></svg>