<svg xmlns="http://www.w3.org/2000/svg" viewBox="0 0 65 63" fill-rule="evenodd"><circle cx="30" cy="33" r="30" fill="#7eca68" enable-background="new"/><path d="M64 13.5c.2-4-1-7.5-3.4-10C58.5 1.2 55.4 0 52.1 0 47 0 42.4 2.9 40.2 7.5 38.1 2.9 33.5 0 28.3 0 25 0 22 1.2 19.9 3.5c-2.4 2.5-3.6 6.1-3.4 10 .1 2.9 1.6 5.7 4.6 8.7l.5.5 1.9-1.8-.5-.5c-2.6-2.6-3.7-4.8-3.8-7-.2-3.2.8-6.1 2.7-8.1 1.7-1.8 3.9-2.7 6.6-2.7 5.8 0 10.6 4.7 10.6 10.6 0 .7.6 1.3 1.3 1.3s1.3-.6 1.3-1.3c0-5.8 4.7-10.6 10.6-10.6 2.6 0 4.9.9 6.6 2.7 1.9 2 2.8 4.9 2.7 8.1-.2 3.8-3.6 7.1-7.8 10.6h-6.5l-1.8-2.7c-.3-.4-.8-.6-1.2-.6-.5.1-.9.4-1.1.8l-1.1 2.9-1.9-7.8c-.1-.6-.6-1-1.2-1s-1.1.3-1.3.9l-2 5.9-.9-1.2c-.3-.3-.7-.5-1.1-.5s-.8.3-1.1.6l-1.5 2.5H20.5v2.6h5.3l1.2 1c4.4 3.6 9.3 7.8 12.1 13 .2.4.7.7 1.2.7s.9-.3 1.2-.7c2.3-4.3 6-7.8 9.3-10.7l.5-.4-1.7-2-.6.6c-3 2.6-6.3 5.7-8.8 9.5-2.8-4.3-6.7-7.7-10.3-10.8h1.8c.5 0 .9-.2 1.1-.6l.9-1.5 1.2 1.6a1.3 1.3 0 0 0 1.3.5c.5-.1.9-.4 1-.9l1.3-3.9 1.8 7.4c.1.6.6 1 1.3 1a1.3 1.3 0 0 0 1.2-.8l1.7-4.4.8 1.2c.2.4.7.6 1.1.6h13.9V24h-2.7c3.2-2.9 6.2-6.3 6.4-10.5z" fill="#262626" enable-background="new"/></svg>