<svg xmlns="http://www.w3.org/2000/svg" viewBox="0 0 63 65" fill-rule="evenodd"><circle cx="30" cy="35" r="30" fill="#7eca68" enable-background="new"/><path d="M40.5 0C28.1 0 18 10.1 18 22.5S28.1 45 40.5 45 63 34.9 63 22.5 52.9 0 40.5 0zm0 41.2c-10.3 0-18.7-8.4-18.7-18.7S30.2 3.8 40.5 3.8s18.7 8.4 18.7 18.7-8.4 18.7-18.7 18.7zm5-13.3H35.4c-1 0-1.9.8-1.9 1.9s.8 1.9 1.9 1.9h10.1c1 0 1.9-.8 1.9-1.9s-.8-1.9-1.9-1.9zm4.8-13.4c-1 0-1.9.8-1.9 1.9v3.8c0 1 .8 1.9 1.9 1.9 1 0 1.9-.8 1.9-1.9v-3.8a1.97 1.97 0 0 0-1.9-1.9zm-19.6 0c-1 0-1.9.8-1.9 1.9v3.8c0 1 .8 1.9 1.9 1.9 1 0 1.9-.8 1.9-1.9v-3.8a1.97 1.97 0 0 0-1.9-1.9z" fill="#262626" enable-background="new"/></svg>