<svg xmlns="http://www.w3.org/2000/svg" viewBox="0 0 63 65" fill-rule="evenodd"><circle cx="30" cy="35" r="30" fill="#7eca68" enable-background="new"/><path d="M40.5 0C28.1 0 18 10.1 18 22.5V40a4.95 4.95 0 0 0 5 5h35a4.95 4.95 0 0 0 5-5V22.5C63 10.1 52.9 0 40.5 0zm19.9 40c0 1.3-1.1 2.4-2.4 2.4H23c-1.3 0-2.4-1.1-2.4-2.4V22.5c0-10.9 8.9-19.8 19.9-19.8s19.9 8.9 19.9 19.8V40zM40.5 4.3c-7.2 0-13.7 4-16.2 9.9-.7 1.6-.5 3.5.5 4.9s2.6 2.3 4.3 2.3h5.4v-2.6h-5.4a2.61 2.61 0 0 1-2.1-1.1c-.5-.7-.6-1.6-.2-2.4 2.1-5 7.6-8.3 13.7-8.3 6.2 0 11.7 3.3 13.7 8.3a2.87 2.87 0 0 1-.2 2.4c-.5.7-1.2 1.1-2.1 1.1h-5.4v2.6h5.4c1.7 0 3.3-.9 4.3-2.3 1-1.5 1.1-3.3.5-4.9-2.5-5.9-9-9.9-16.2-9.9zm7.1 5.1l-2.3-1.2-4.1 7.8c-.2 0-.5-.1-.7-.1a4.23 4.23 0 0 0-4.2 4.2 4.23 4.23 0 0 0 4.2 4.2 4.23 4.23 0 0 0 4.2-4.2c0-1.1-.5-2.2-1.2-2.9l4.1-7.8zm-7.1 12.3a1.58 1.58 0 0 1-1.6-1.6 1.58 1.58 0 0 1 1.6-1.6 1.58 1.58 0 0 1 1.6 1.6c0 .9-.8 1.6-1.6 1.6zm10.2-9.9l-2.2-1.4-1.8 2.9 2.2 1.4 1.8-2.9zm-8.7-.7l.7.1.3-2.6-.7-.1c-4-.5-8.1.5-11.3 2.8l-.5.4 1.6 2.1.5-.4c2.6-1.9 6-2.7 9.4-2.3z" fill="#262626" enable-background="new"/></svg>