<?xml version="1.0" encoding="utf-8"?>
<!-- Generator: Adobe Illustrator 24.0.1, SVG Export Plug-In . SVG Version: 6.00 Build 0)  -->
<svg version="1.1" id="Camada_1" xmlns="http://www.w3.org/2000/svg" xmlns:xlink="http://www.w3.org/1999/xlink" x="0px" y="0px"
	 viewBox="0 0 422.3 121.7" style="enable-background:new 0 0 422.3 121.7;" xml:space="preserve">
<style type="text/css">
	.st0{fill-rule:evenodd;clip-rule:evenodd;fill:url(#SVGID_1_);}
	.st1{fill:#FFFFFF;}
</style>
<linearGradient id="SVGID_1_" gradientUnits="userSpaceOnUse" x1="0" y1="63.7799" x2="422.2851" y2="63.7799" gradientTransform="matrix(1 0 0 -1 0 124.6399)">
	<stop  offset="0" style="stop-color:#DABFAD"/>
	<stop  offset="0.5" style="stop-color:#C2A08C"/>
	<stop  offset="1" style="stop-color:#A27D6B"/>
</linearGradient>
<path class="st0" d="M82,106.9c0.3,0,0.5,0,0.5-0.3c0-0.3-0.1-0.3-0.5-0.3c-0.4,0-0.4,0.1-0.4,0.3C81.6,106.7,81.6,106.9,82,106.9
	L82,106.9z M347.3,64.7c5.4-7.6,10.7-15.3,16.1-23h3.5l-16.7,23.5v15.4h-2.9C347.3,75.3,347.3,70,347.3,64.7L347.3,64.7z
	 M165.6,75.4h21.8l1.2,2.6h-24.1L165.6,75.4L165.6,75.4z M77.7,81.3c-3.1,0-5.8-0.5-8.3-1.6c-2.4-1.1-4.5-2.5-6.1-4.3
	c-1.7-1.8-2.9-3.9-3.8-6.4s-1.3-5-1.3-7.8v-0.1c0-2.6,0.4-5.2,1.4-7.6c0.9-2.4,2.2-4.6,3.9-6.4c1.7-1.8,3.7-3.3,6.1-4.5
	s5-1.7,7.9-1.7c1.6,0,3.1,0.1,4.4,0.3c1.3,0.2,2.5,0.6,3.7,1s2.2,1,3.2,1.6c1,0.6,2,1.3,3,2.2l-1.9,2.2c-1.5-1.3-3.3-2.5-5.2-3.3
	s-4.4-1.3-7.3-1.3c-2.4,0-4.5,0.5-6.5,1.4s-3.7,2.2-5.1,3.8c-1.4,1.6-2.5,3.4-3.3,5.6c-0.8,2.1-1.2,4.3-1.2,6.7v0.1
	c0,2.5,0.4,4.8,1.1,7c0.8,2.1,1.9,4,3.3,5.6c1.4,1.6,3.2,2.8,5.3,3.7c2.1,0.9,4.4,1.3,7,1.3c1.2,0,2.4-0.1,3.6-0.4
	c1.2-0.2,2.3-0.6,3.4-1c1.1-0.4,2.1-0.9,3-1.4c0.9-0.5,1.7-1.1,2.4-1.7v-8.5h2.8v9.8c-1.8,1.6-4,2.9-6.6,4.1
	C83.8,80.7,80.9,81.3,77.7,81.3L77.7,81.3z M90.2,63.1H93v-2.6H77.2v2.6H90.2L90.2,63.1z M114.7,41.7h2.9V78v2.6h-2.9V41.7
	L114.7,41.7z M120.2,78h20.2v2.6h-20.2V78L120.2,78z M160.1,80.6c5.5-12,11-24,16.5-36c5.5,12,10.9,24,16.4,36h3.2L178,41.4h-2.8
	l-18.1,39.2L160.1,80.6L160.1,80.6z M218.4,41.7c0,13,0,25.9,0,38.9h-2.8V41.7H218.4L218.4,41.7z M252.9,46.5v34.1H250V50.7
	L252.9,46.5L252.9,46.5z M252.9,41.7h-3.3l-15.6,23L221,45.6v5l12.8,18.6h0.2L252.9,41.7L252.9,41.7z M312.4,46.5v34.1h-2.9V50.7
	L312.4,46.5L312.4,46.5z M312.4,41.7h-3.3l-15.6,23l-13-19.1v5l12.8,18.6h0.2L312.4,41.7L312.4,41.7z M277.9,41.7
	c0,13,0,25.9,0,38.9h-2.8V41.7H277.9L277.9,41.7z M345.9,62.7l1.7-2.4l-12.9-18.6H331L345.9,62.7L345.9,62.7z M379.8,0.1v18.5
	c4.2,0,8.3,0,12.4-0.2c2.7-0.1,4-0.1,4.8,0c0.4,0,0.5,0.3,0.8,0.4c0.4,0.1,1.1-0.1,1.6,0.1c0.4,0.1,0.4,0.4,0.9,0.6
	c0.9,0.2,1.9,0,2.7,0c0.4,0,0.7,0.5,0.2,0.9c-0.4,0.4-1.1,0.2-1.6,0.3c-1.2,0.1-3,0.1-3.5-0.1c-0.8-0.4-1.2-0.2-2.1-0.2
	c-0.5,0-0.8-0.2-1.3-0.2c-0.9,0-1.9-0.2-2.8-0.1c-0.7,0-0.4,0.1-0.9,0.4c-0.4,0.2-0.9-0.2-1.8,0.4c-0.5,0.4-0.6,0.7-1.4,0.6
	c-0.4,0-0.8-0.2-1-0.4c-0.3-0.2-0.5-0.2-0.7,0.2c-0.1,0.3,0.2,0.4,0.5,0.4c0.8,0,1.4,0,1.8,0c0.8-0.1,1.6,0.1,2.4,0.1
	c0.3,0,0.5-0.1,1-0.1c0.9,0,1.5,0.2,2,0.2c0.4,0,0.2,0.3,0,0.3c-0.1,0-0.4,0.2-0.6,0.2c-1.2,0.1-4.8,0.1-6.2,0
	c-1.1-0.1-4.1-0.3-4.8-0.2c-0.2,0-0.3,0.3-0.1,0.4c0.3,0.1,0.7,0,1.1,0.1c0.6,0,1.2,0.1,1.9,0.2c0.5,0,1.2,0.3,1.9,0.3
	c0.5,0,1-0.1,1.4-0.1c0.3,0.1,0.4,0.2,0.8,0.3c0.4,0.1,0.9,0,1.1,0.1c0.4,0.1,0.3,0.3,0.1,0.5c-0.2,0.2-0.7,0-1,0
	c-0.4,0-1.1-0.2-1.3,0.1c-0.1,0.2,0,0.5,0.2,0.6c0.2,0.1,0.5,0.1,0.9,0.1c1-0.1,1.2,0.3,1.8,0.3c0.5,0,1.2-0.2,1.5,0
	c0.2,0.2-0.1,0.4-0.4,0.3c-0.1,0-0.4-0.1-0.4,0.1c0,0.5,1.8,0.2,2.1,0.3c0.5,0.1,1.3,0.4,1.8,0.3c0.5,0,0.6-0.2,0.8-0.3
	c0.5-0.2,0.6,0.4,0.9,0.5c0.6,0.2,1.9,0.1,2.7,0.1c0.7,0,0.6,0.4,0.2,0.5c-0.1,0-0.3,0-0.3,0c-0.8,0-2.5-0.1-3.8-0.1
	c-0.3,0-0.7,0-0.9,0.2c-0.3,0.2,0.2,0.7,0.4,0.8c0.4,0.2,0.9,0.3,1.8,0.3c1.3,0.1,4.5,0,6.3-0.2c1.2-0.1,1.7-0.4,2.1-0.4
	c0.4,0,0.6,0.2,0.7,0.5c0.1,0.6-0.3,0.7-0.8,0.7c-0.5,0-1.4-0.1-1.9,0c-0.4,0.1-0.4,0.3-0.1,0.5c0.4,0.3,1.4,0.3,1.5,0.3
	c0.9,0,2.2,0.2,3,0.5c0.8,0.3,1.8,0.5,2.9,0.7c0.5,0.1,1.1,0.3,1.5,0.3c1.2,0.1,2.2-0.1,3.4,0c1.1,0.1,0.8,1,0.1,1.1
	c-0.3,0-0.5,0-0.9,0c-0.5,0-1-0.2-1.6-0.3c-0.8-0.1-2.7-0.1-4.4,0c-0.6,0-1,0-1.4,0.1c-0.3,0.1-0.9,0.5-1.2,0.5
	c-0.5,0-0.8-0.2-1.2,0c-0.2,0.1-0.4,0.2-0.7,0.3c-0.3,0-0.6-0.1-0.8,0c-0.4,0.1-0.3,0.6,0.1,0.7c0.5,0.1,3.9-0.1,4.8-0.1
	c0.8,0,1.8,0.1,2.8,0.1c0.3,0,0.8-0.1,1,0c0.3,0,0.3,0.2,0.4,0.2c0.2,0.1,0.5,0.1,0.5,0.4c0,0.3-0.6,0.3-0.8,0.3
	c-1.4,0-4.2-0.2-7-0.3c-1.9-0.1-3.9-0.2-5.5-0.4c-1.3-0.2-2.4,0-3.1,0c-0.9-0.1-0.9-0.3-1.7-0.3c-0.9,0-1.6,0-2.4,0
	c-1.8,0.2-3.7,0.4-5.5,0.3c-0.6,0-0.8,0.1-0.8,0.2c0,0.2,0.2,0.2,0.3,0.2c0.3,0.2,0,0.4-0.2,0.5c-0.4,0.1-0.9,0-1.3,0
	c-0.1,0-0.3,0-0.4,0c-0.2,0.1-0.2,0.3-0.1,0.3c0.3,0.1,1.2,0,1.3,0c1.1,0,2.2,0,3.2,0c0.5,0,3.6,0.1,3.8,0.3
	c0.3,0.2,0.1,0.5,0.6,0.6c0.2,0,0.4,0,0.6-0.2c0.1-0.1,0.1-0.2,0.4-0.1c0.6,0,1.5,0,1.9,0c0.4,0,1.5-0.1,1.8,0.1
	c0.2,0.1,0.2,0.4-0.1,0.5c-0.4,0.2-1,0.1-1.6,0.1c-0.6,0-1.3,0-1.9-0.1c-0.1,0-0.6,0-0.6,0.2c0.1,0.4,1.3,0.1,1.5,0.3
	c0.2,0.2,0,0.5-0.4,0.5c-2,0-4.2-0.2-6.1-0.2c-0.8,0-1.7-0.1-2.4-0.1c-0.9,0.1-0.7,0.5-1.4,0.7c-0.3,0.1-1,0.1-1.9,0.1
	c-0.7,0-0.7,0.3-0.4,0.3c2.8-0.1,3.2,0.7,4.5,0.9c1.9,0.4,6.1,0,8.3,0.6c1.3,0.3,1.3,0.3,2.8,0.3c1.9,0.1,1.9,0.4,7,0.3
	c0.3,0.2,0.4,0.4-0.2,0.6c-0.9,0.2-2.9,0.2-4.1,0.3c-0.8,0,0,0.3,0.3,0.4c0.8,0.1,1.6,0,2.4,0.3c0.5,0.2,0.9,0.4,1.4,0.5
	c0.8,0.2,2.1,0.2,2.5,0.2c1.4-0.1,2.1-0.3,3.6-0.3c0.4,0,0.6,0,0.8,0c0.6,0,0.8,0.5,0.4,0.7c-0.5,0.3-2,0.2-3.3,0.2
	c0,0-1.8,0.2-1.8,0.2c-0.2,0.1-0.3,0.2-0.3,0.4c0.1,0.5,0.8,0.4,1.1,0.3c1.3-0.1,1.8,0.2,2.4,0.2c1.6,0,1.3,0.3,1.6,0.4
	c0.9,0,1.6-0.2,2,0.1c0.2,0.1,0,0.4-0.2,0.5c-0.5,0.3-1.6-0.1-2.3,0.1c-0.3,0.1-0.6-0.1-0.9,0.1c-0.3,0.3,0.2,0.6-1.4,0.9
	c-1.5,0.1-3.2,0.2-4.7,0.2c-0.5,0-0.9,0.1-1.1,0.6c-0.1,0.2,0,0.3,0.4,0.3c3.8-0.1,2.9,0.2,4.3,0.3c0.6,0.1,0.7,0,1.3,0.1
	c0.3,0,0.5,0.1,0.9,0.1c0.3,0,0.5-0.1,0.8-0.1c0.4,0.1,0.5,0.6,0.8,0.7c0.8,0.1,2,0,2.6,0.1c0.4,0,0.3,0.3,0.5,0.5
	c0.3,0.2,0.7,0.1,1,0.2c0.6,0.1,1.1-0.1,1.6,0s0.6,0.7,0,0.9c-0.3,0.1-1.4,0-2.1,0.1c-0.7,0-1,0.3-1.6,0.2c-0.3,0-0.9-0.1-1.3,0
	c-0.4,0.1-0.5,0.5-0.2,0.8c0.3,0.5,0.4,0.2,1,0.5c0.1,0,0.1,0.1,0.3,0.3c0.2,0.2,0.5,0.1,0.6,0.2c0.1,0.1,0.2,0.3,0.3,0.5
	c0.1,0.3,0.9,0.2,0.8,0.4c-0.2,0.3-0.8-0.1-1.4-0.1c-0.9,0-2.1,0.2-3.9,1.5c-0.5,0.3-0.8,0.8-0.5,1c0.1,0.1,0.3-0.1,0.6,0
	c1.2,0.2,1.7-0.1,2.7,0.1c0.9,0.2,1.6,0.4,2.5,0.3c0.3,0,0.4,0.2,0.4,0.3c0,0.1-0.2,0.2-0.3,0.2c-0.3,0-1-0.1-1.5,0.1
	c-0.5,0.2,0.1,0.9,0.6,0.9c1.4,0.2,3.1-0.7,3.9-0.4c0.2,0.1,0.4,0.2,0.4,0.3c0,0.2-0.3,0.3-0.4,0.4c-0.1,0.2-0.1,0.3-0.4,0.3
	c-1.5,0.3-1.6-0.4-2.1-0.3c-0.7,0.1-0.9,0.7-0.6,0.9c0.1,0.1,0.4,0.1,0.7,0.1c0.2,0,0.5,0,0.6,0.1c0.2,0.2-0.2,0.7-0.9,0.8
	c-0.6,0.1-1.5-0.2-1.9,0c-0.4,0.2-0.3,0.6-0.4,1c-0.1,0.2-0.8,1,0.3,1c0.9,0,2.4-0.2,2.9,0c0.5,0.1,0,0.6-0.2,0.7
	c-0.8,0.3-2.4-0.3-3.4-0.2c-0.4,0.1-0.6,0.2-0.5,0.7c0.1,0.4,0.6,0.9,0.9,1.1c0.7,0.4,1.9-0.1,3.3,0c0.6,0,0.7,0.4,0.5,0.9
	c-0.2,0.3-0.5,0.2-0.6,0.5c-0.1,0.1-0.1,0.3,0,0.4c0.3,0.7,1.9,0.6,2.2,1.2c0.1,0.2,0,0.4-0.2,0.4c-0.9,0.3-4-0.2-4.8,0.3
	c-0.5,0.3,0,1.2,0.3,1.4c0.1,0.1,0.2,0.2,0.3,0.3c0.2,0.1,0.6,0,0.9,0c0.5,0.1,0.2,0.4,0.2,0.6c0.1,0.2,0.9,0,1,0
	c0.2,0,0.2,0.2,0,0.3c-0.5,0.2-0.9,0.4-0.8,0.6c0,0.1,0.1,0.2,0.3,0.3c0.2,0.1,0.1,0.3,0.3,0.3c0.1,0.1,0.4,0,0.4,0.1
	c0.3,0.1,0.6,0,0.7,0c0.2,0.1-0.1,0.3-0.3,0.3c-0.8,0.1-2.1-0.4-2.5,0.5c-0.1,0.1-0.2,0.3,0,0.4c0.2,0.1,0.5,0.1,0.6,0.2
	c0.3,0.2,1.4,0.1,1.9,0.1c0.2,0,0.1,0.2,0.3,0.3c0.1,0.1,0.3,0,0.6,0.1c0.4,0.1,0.3,0.4,0,0.5c-0.7,0.2-1.9-0.2-2.6,0.2
	c-0.4,0.2-0.5,0.6-0.5,1c0,1.7,2.1,1.2,3.3,1.3c0.8,0.1,0.4,0.7-0.1,1c-0.9,0.5-2.4,0-3.6,0c-1.1,0-2,0.4-2.2,1.9
	c0,0.3-0.1,0.7,0.3,0.9c0.1,0.1,0.5,0,0.8,0c0.3,0,0.7-0.1,0.7,0.3c0,0.6-0.7,1-1.2,1.9c-0.6,0.9-0.4,0.9-0.5,1
	c-0.1,0-0.6-0.1-0.9,0.1c-0.1,0.1-0.3,0.4-0.2,0.5c0.1,0.2,0.8,0.1,1.2,0.2c0.4,0,0.2,0.7-0.3,0.8c-0.7,0.2-1.9,0.1-2.3,0.3
	c-0.2,0.1-0.4,0.5-0.4,1c0,0.5,0,0.9,0.1,1.2c0.2,0.3,0.5,0.4,1.2,0.4c0.3,0,0.4,0.1,0.2,0.3c-0.2,0.3-0.8,0.2-0.9,0.5
	c-0.1,0.2,0,0.4-0.2,0.6c-0.1,0.1-0.2,0.2-0.2,0.3c-0.1,0.4,0.1,0.6,0,0.8c-0.1,0.2-0.5,0-0.6,0.2c-0.4,1-2,2.1-1.3,2.9
	c0.8,0.2,1.7-0.4,2.4-0.4c0.6,0,1,0.7,0.5,1c-0.8,0.4-2,0-2.7,0.3c-0.9,0.4-0.3,0.8-0.7,1.3c-0.2,0.2-1.4,0.2-2.1,0.5
	c-0.4,0.1-0.6,0.3-1,0.5c-0.9,0.3-2.1,0.3-3.4,0.5c-0.5,0.1-1.2,0.1-1.4,0.3c-0.4,0.3-0.1,0.7-0.4,1.1c-0.2,0.2-0.4,0.4-0.8,0.4
	c-1.1,0.3-1,0-1.9,0.4c-0.4,0.2-1.2,0.2-2.3,0.2c-0.8,0-1.4-0.1-1.9,0c-0.7,0.1-1.3,0.3-2.2,0.4c-3.8,0.4-7.2,0.7-10.7,0.8v1.4
	c3.1-0.1,6-0.3,7.6-0.6c0.8-0.2,1.2-0.3,1.6-0.3c0.4,0,0.6,0.1,0.9,0c0.3,0,0.6-0.2,1-0.3c0.1,0,1.4-0.2,1.4,0.1
	c0,0.2-0.8,0.5-0.6,0.5c0.3,0.1,0.6,0.1,1.1,0c2-0.2,5.7-0.9,8.7-1.4c0.7-0.1,1.6-0.3,2.2-0.4c0.5-0.1,0.8-0.2,0.9-0.2
	c0.2,0,0.3,0.3,0.1,0.5c-0.4,0.3-1.6,0.3-2.3,0.5c-1.4,0.3-2.5,0.6-3.7,0.8c-1.2,0.2-2.7,0.3-4.1,0.7c-0.7,0.2-1.1,0.4-2,0.6
	c-1.7,0.3-4.1,0.3-5.4,0.4c-2.5,0.1-4.9,0.3-7.4,0.4v0.6c0.6,0,1.2-0.1,1.9-0.1c0.5,0,0.8-0.2,1.2-0.3c0.3,0,1.1,0.2,1.8,0.2
	c0.7,0,1.5,0,2.3-0.1c0.9-0.1,1.8-0.2,2.5-0.3c1-0.1,2.3-0.1,3.1-0.2c0.1,0-0.4-0.3-0.1-0.3c0.3,0,1.2,0,1.8,0
	c0.6,0,1.3-0.1,1.9-0.3c0.5-0.2,0.8-0.1,0.8,0c0,0.2-1,0.5-0.5,0.7c0,0,1.4-0.2,1.5-0.1c0.3,0.1,0,0.4-0.3,0.5
	c-0.3,0.2-0.6,0.2-0.9,0.3c-1.1,0.2-2.4,0.2-3.5,0.3c-1.3,0.1-3.4,0.3-4.6,0.8c-0.2,0.1-0.4,0.3-0.3,0.3c1,0.3,8.9-0.5,10.6-0.8
	c0.5-0.1,1-0.2,1.5-0.2c0.3,0,0.8,0.1,1,0.1c0.6-0.1,1.1-0.4,1.9-0.2c0.1,0,0.3,0.2,0.5,0.3c0.2,0.1,0.4,0,0.4,0.1
	c0,0.2-0.8,0.5-1.1,0.8c-0.2,0.1-0.3,0.2-0.4,0.3c-0.3,0.2-0.8,0.1-1.1,0.1c-0.6,0.1-1.1,0.4-1.7,0.5c-4.7,0.4-9.7,1.4-14.4,1.7
	c-1.7,0.1-3.7,0.2-5.6,0.3v14.3H46v-15.8c-0.2,0-0.6,0.2-0.8,0.2c-0.3,0-0.6,0.1-1.1,0c-0.4-0.1-0.7-0.3-1-0.3c-2.9,0-6-0.1-8.1,0
	c-0.7,0-0.7,0-1.3,0.3c-0.5,0.2-2.3,0.1-3.3,0.2c-1.5,0.2-3.5,0.3-5.8,0.7c-2.5,0.5-3.7,0.9-5.2,1.8c-0.2,0.1-0.3,0.4-0.8,0.4
	c-0.2-0.5-0.2-1.1,0.5-1.2c0.2,0,1.2,0,1.3-0.6c0-0.2,0-0.3-0.1-0.4c-0.3-0.5-0.5-0.1-0.7-0.4c-0.1-0.2,0-0.3,0.1-0.4
	c0.3-0.4-0.2-0.9-0.6-0.9c-0.9-0.1-1.8,0-2.7,0.1c-0.6,0-1.6,0-2.1,0.2c-0.3,0.1-0.5,0.2-0.6-0.1c-0.1-0.3,0.5-0.4,0.7-0.4
	c0.9-0.1,2-0.1,3.1-0.1c0.9,0,2,0,2.6,0.3c0.4,0.3,0.4-0.6,0.1-0.8c-0.7-0.3-1.4-0.2-2.2-0.2c-1.5,0-2.7,0.2-3.7,0.4
	c-1.2,0.2-1.5,0.2-2.4,0.2c-0.3,0-1,0-1-0.5c0-0.2,0.1-0.3,0.3-0.4c0.3-0.1,1.1,0.1,1.2,0c0.3-0.1,0.1-0.3,0.3-0.4
	c0.5-0.2,1.9,0.1,2.5,0.1c0.5,0,3.9,0,4.3-0.2c0.4-0.2,0.7-0.7,0-0.9c-0.4-0.2-1-0.2-1.6-0.2c-0.5,0-1,0-1.4,0c-0.5,0-1.8-0.1-2.6,0
	c-0.9,0.1-1.6,0.7-2.1,0.7c-0.6,0-0.8-0.6-0.6-0.9c0.3-0.8,3.2-0.3,4-0.3c1.9,0,4.1,0,6-0.6c0.8-0.2,0.7-0.7,0.1-0.8
	c-0.6-0.1-1.1,0.1-1.2-0.1c0-0.1-0.1-0.2,0.2-0.4c0.1-0.1,0.1-0.4-0.3-0.4c-0.3,0-0.7,0.3-1,0.4c-0.5,0.1-1.3,0.1-1.3,0
	c-0.1-0.1,0.3-0.5,0.6-0.6c0.2-0.1,0.9,0,1.1-0.1c0.2-0.1,0.1-0.8-0.5-0.9c-1-0.2-2.2,0.3-3.4,0.9c-0.3,0.2-3.1,1.6-4.2,1.6
	c-0.6,0-0.6-0.8-0.1-1.1c0.3-0.2,0.7-0.1,1.1-0.2c1.3-0.2,2.9-0.8,3.4-1.1c0.5-0.3,0.1-0.5-0.2-0.5c-1.1,0.2-1.7,0.9-3.6,0.8
	c-0.7,0-0.6-0.3-1-0.9c-0.2-0.3-0.6-0.7-1-0.9c-0.5-0.2-1-0.2-1.2-0.3c-0.2-0.1-0.4-0.3-0.2-0.4c0.3-0.1,1.2,0.1,1.7-0.1
	c0.2-0.1,0.3-0.3,0.3-0.4c0.1-0.5-0.4-0.7-0.7-0.3c-0.1,0.2-0.3,0.3-0.4,0.4c-0.3,0.1-0.6-0.1-0.9,0s-0.7,0.4-0.9,0.4
	c-0.4,0-0.5-0.1-0.5-0.3c-0.1-0.8,0.8-0.6,1.3-0.7c0.3-0.1,0.8-0.3,0.9-0.7c0-0.1,0-0.2-0.1-0.3c-0.1-0.1-0.1-0.1-0.3-0.1
	c-0.2,0-0.3-0.1-0.3-0.2c0-0.2,0.3-0.2,0.5-0.2c0.4,0,0.5,0.1,0.8,0.1c0.2-0.1,0.2-0.3,0.4-0.5c0.2-0.2,0.4-0.3,0.7-0.4
	c0.3-0.1,0.3-0.3,0.1-0.4c-0.5-0.2-0.4,0.3-1.1,0.5c-0.9,0.2-1.5,0.8-2.2,1c-0.4,0.1-1.2,0.3-1.3-0.2C6.2,93,8.2,93,8.5,92.8
	c0.2-0.1-0.2-0.5,0.3-0.8c0.6-0.4,0.2-0.6-0.3-0.6c-1.2,0.1-1.5,0.5-2,0.6c-0.6,0-0.4-0.5,0-0.7c0.4-0.1,0.7-0.1,1-0.3
	c0.3-0.3,0.9-0.9,0.5-1c-0.4-0.1-1.2,0.1-1.6,0.3c-0.2,0.1-0.4,0.2-0.5,0c-0.1-0.3,0.2-0.4,0.5-0.6c0.4-0.2,1.1-0.1,1.3-0.2
	c0.2-0.1,0.2-0.6-0.4-0.4c-0.3,0.1-0.7,0-1.1,0.2c-0.4,0.1-0.7,0.4-1,0.6c-0.6,0.3-0.7-0.2-0.4-0.4c0.2-0.1,0.3-0.1,0.4-0.2
	c0.2-0.1,0.3-0.4,0.3-0.4c0.1-0.1,0.2-0.1,0.5-0.1c0.8,0,1.1,0,1.2-0.2c0.5-0.5-0.2-1.4,0.2-2c0.2-0.3,0.5-0.4,0.7-0.6
	c0.3-0.3,0.3-0.7-0.1-0.8c-0.7-0.1-2.7,1.3-4.3,1c-1.3-0.2-0.1-1.2-0.5-1.3c-0.6-0.1-0.8,0.7-1.2,1.1c-0.8,0.8-1.9-0.4-2-1.5
	c0-0.6,0.3-0.6,0.9-0.7c0.7-0.2,7.5-0.8,6.8-1.8c-0.1-0.2-0.6,0.3-1.1,0.3c-0.4,0-0.6-0.3-0.3-0.6c0.5-0.5,2.3-0.5,2.6-0.6
	c0.4,0,0.4-0.8-0.1-0.8c-0.2,0-0.6,0.2-0.8,0.2c-1.1,0.1-2.1,0.6-3.1,0.7c-0.4,0.1-1.4,0.1-1.5-0.4c-0.2-0.7,1.5-0.5,1.9-0.7
	c0.3-0.1,0.3-0.5,0.6-0.6c1-0.1,2.2-0.1,3.3-0.3c0.5-0.1,1.2-0.3,1.8-0.7c0.4-0.2-0.2-0.7,0-1c0.1-0.2,0.6-0.1,1.2,0
	c0-0.1,0.1-0.1,0.1-0.2c0.5-0.8-0.8-1.2-1.7-1c-0.5,0.1-0.5-1.1,1.1-1.2c0.6-0.1,2.2-0.1,3-0.6c0.6-0.3,1-1,0.1-1
	c-0.2,0-1.2,0.1-1.2-0.4c0-0.2,0.1-0.3,0.3-0.4c0.6-0.3,1.8-1.3,1.4-2.1c-0.2-0.4-2.5-0.6-3.1-0.6c-0.3,0-0.6,0.1-0.5-0.3
	c0.1-0.4,0.6-0.6,0.4-0.6c-0.8-0.2-1.8,0.7-2.4,0.8c-0.5,0.1-0.5-0.4,0-0.8c0.9-0.6,2.2-0.8,3.3-1c0.9-0.1,2-0.5,2.7-0.6
	c1.8-0.4,4.5-0.5,4.3-1.1c-0.3-0.4-3.3,0-3.8,0.2c-0.4,0.2-0.5,0.4-1,0.5c-0.3,0-0.7-0.1-0.9-0.3c-0.4-0.3-0.6-0.6-1.2-0.5
	c-0.9,0.1-2.2,0.4-2.5,0.3c-0.2-0.1-0.2-0.3,0-0.4c0.5-0.6,2.6-1,3.3-1.1c2.1-0.3,4.7-0.3,5.8-0.7c0.6-0.2,0.5-0.9-0.2-0.9
	c-1.5,0-3.8,1-5,0.7c-0.3-0.1-0.5-0.4-0.2-0.5c0.2,0,0.5,0,0.7,0c0.4-0.1,0.5-0.5-0.1-0.6c-0.4-0.1-0.9,0-1.2,0
	c-0.4,0-0.4-0.4,0.1-0.6c0.4-0.2,1.1-0.3,0.7-0.6c-0.7-0.4-2,0.5-3.3,0.4c-0.7,0-1-0.4-0.9-0.6c0.2-0.3,0.8,0.2,1.1-0.2
	c0,0,0-0.2-0.1-0.3c0,0-0.6,0.1-0.6-0.2c0-0.3,0.3-0.3,0.5-0.5s0-0.9,0.4-1.2c0.2-0.1,0.7,0,1.3-0.1c0.2,0,0.3-0.1,0.3-0.2
	c0.2-0.3,0.5-0.3,0.9-0.3c1.7-0.2,8,0.1,10.6-0.2c0.5-0.1,0.7-0.5-0.3-0.4c-0.4,0-0.7,0-1.1,0c-0.3,0-0.6-0.2-0.6-0.3
	c-0.1-0.5,1.4-0.2,1.7-0.2c0.5,0,0.5-0.5,0.1-0.6c-1.4-0.5-5.8,0.5-6-0.6c0-0.3,0.3-0.2,0.9-0.1c0.7,0.1,1.4,0.1,2.4,0.1
	c0.8,0,0-0.4,0.5-0.4c1.7-0.1,3.9,0.3,4.9-0.1c0.5-0.3,0.9-1.2-0.7-1c-1.4,0.2-2.9,0.4-4.3,0.4c-1.6-0.1-2.4-0.5-4.4-0.4
	c-1.8,0.1-2.8,0.2-4.8,0c-1.2-0.1-1.8,0.4-2.6,0.5c-0.5,0-1-0.8-0.1-1.1c0.7-0.2,1.9,0.1,2.8-0.3c0.5-0.2,0.8-0.7,0.9-1
	c0-0.3-0.2-0.4-0.4-0.5c-1.1-0.2-2.3,0.7-3.1,0.9c-0.5,0.1-1.1-0.1-1-0.6c0.1-0.9,4-0.2,5.1-0.9c0.6-0.4,0.5-0.9-0.3-0.9
	c-1.5,0-2.5,0.6-2.6,0.1c0-0.8,0.3-1.1,1.1-1.2c0.7,0,1.7,0.1,2.1,0.1c1.8,0.2,7.2,0,10.1-0.5c1.3-0.2,1.5-1.1,1-1.6
	c-0.4-0.4-2.1-0.5-3.5-0.5c-1.3,0-1.5,0-2.7,0.4c-0.4,0.1-0.7,0.2-0.8-0.1c-0.3-1,2.2-0.9,3.6-1c0.9,0,3.5,0.1,3.8-0.9
	c0-0.1-3.8-0.1-4.2-0.1c-0.6-0.1-0.5-0.3-1.1-0.5c-0.6,0.2-0.9,0.7-1.2,1c-0.3,0.3-0.9,0.1-0.5-0.4c0.1-0.2,0.3-0.4,0.4-0.4
	c0.1-0.1,0.2-0.2,0.2-0.2c-0.5,0-0.8,0-1-0.1c-0.2-0.2-1.1-0.1-1.3-0.2c-0.6-0.3-1.6-1.4-0.4-1.5c1.9-0.2,8.4,0.8,10.7,0.2
	c0.6-0.2,1.1-0.8,0.7-1c-0.6-0.4-2,0.3-2.8,0.2c-0.5-0.1-0.5-0.5-0.1-0.6c0.2,0,0.6,0,0.4-0.3c-0.5,0-0.9,0-1.3,0
	c-0.1,0-0.5,0.4-0.9,0.3c-0.5-0.1-0.2-0.5-0.4-0.6c-0.7-0.2-1.8,0.3-2.3,0c-0.1-0.1-0.1-0.3-0.4-0.4c-0.5-0.1-0.6,0-1-0.4
	c-0.2-0.4,1.1-0.2,1.9-0.2c0.8,0,1.4-0.2,2.1-0.2c1.4,0,2.5,0.3,3.7,0.3c1.5,0,4.8-0.4,6.2-1.1c0.4-0.2,0.7-0.4,0.1-0.5
	c-2.6-0.4-9.3,0-11.3,0.2c-3,0.2-2.2-0.5-2-0.8c-1.1-0.3-6.2-0.3-7.6,0c-1.4,0.3-2.3,0.7-2.5,0.3c-0.4-1.3,7.5-0.8,14-1
	c0.8,0,6.8-0.2,6.9-1.2c0.1-0.7-4-0.4-7.5-0.3c-2.1,0.1-4.1,0.1-4.8-0.1c-0.3-0.1-0.5-0.3-0.5-0.5c0-0.2,0.2-0.3,0.5-0.4
	c0.9-0.2,0.9,0.6,3.7,0.3c0.3,0-0.3-0.3,0-0.4c0.2-0.1,1.1,0.1,1.3,0.1c0.2,0-0.1-0.3,0.1-0.3c1-0.2,2.2-0.1,3.3-0.1
	c-0.6-0.7,2.5,0,2.6-0.6c0.1-0.3-0.4-0.3-1-0.5c-0.3-0.1-0.5-0.8-1.1-0.7c-0.5,0.1-0.9-0.1-1.3-0.1c-0.4,0-0.7,0.2-0.8,0
	c-0.2-0.4,1.5-0.1,1.7-0.7c0.1-0.3,0-0.8-0.3-1.2c-0.3-0.5-0.5-0.7-0.5-0.8c-0.2-0.7,0.2-0.8-0.8-0.8c-3.9-0.3-6.7,0.7-7.4,0.4
	c-0.3-0.2-0.2-1,0.4-1.6c0.9-1,3-1,4-0.3c0.4,0.3-0.2,0.5-0.1,0.7c0.1,0.2,0.9,0.2,1.5,0.2c0.4,0,1.2,0,1.3-0.5
	c0.2-0.5-0.3-1.3-0.3-1.6c0-0.4,0-0.9-0.3-1.4c-0.2-0.3-0.8-0.3-1.2-0.3c-0.5,0-1.3,0.2-1.7,0c-0.4-0.2-0.4-0.8,0-1
	c0.5-0.3,1.6-0.1,2.5,0c1.4,0.1,0.9-0.4,1.6-1.6c0.3-0.6,1-1.1,1.3-1.6c-0.3-0.3-1.6,0-2.5,0c-0.8,0-1.5-0.7-0.5-1
	c1.2-0.2,3.6,0.1,4.1-0.5c0.2-0.2,0-0.4,0.3-0.6c0.2-0.2,1-0.1,1.3-0.2c0.7-0.2,0.3-0.6,1.2-1.1c0.9-0.6,3.9-0.2,7.3-0.3
	c2.3-0.1,4.8-0.5,7.1-0.8v-0.9c-1.8,0.1-3.6,0.1-5.4,0.2c-0.3,0-1,0.1-1.2-0.1c-0.3-0.5,0.3-0.8,0.5-0.9c0.4-0.2,0.9-0.1,1.3,0
	c1,0.2,2.9,0.4,4.8,0.4V0h333.8V0.1z M379.8,23v0.5c1.1,0,1.4,0,1.8-0.2C382,23.2,381,23.1,379.8,23L379.8,23z M379.8,103.8v0.5
	c0.4,0,0.9,0,1.1,0c0.4-0.1,1-0.3,1-0.2c0.3,0.3-0.7,0.7-0.5,0.8c0.2,0.1,0.5,0.1,0.9,0c0.1,0,0.3-0.2,0.5-0.3c0.4-0.1,0.8,0,1,0.1
	c0.2,0,0.3-0.4,1-0.3c0.2,0,0.1,0.3,0.3,0.4c0.2,0.1,0.7-0.2,0.9-0.2c0.9,0,1.7-0.4,2-1.1C388,103.4,384.3,103.6,379.8,103.8
	L379.8,103.8z M377,119H48.8v-12.8c0.3,0,0.6,0,0.7,0c0.2-0.1-0.3-0.3-0.1-0.5c0.1-0.2,1.6,0,2.3-0.1c1.2-0.1,0.8-0.5,4.1-0.5
	c3.5,0,4.2,0.6,5.2,0.5c0.2,0,0.5-0.1,0.7-0.2c0.9-0.3,4.6-0.6,5-0.2c0.1,0.1,0.1,0.4,0.5,0.5c0.5,0.1,0.5-0.4,1.1-0.5
	c0.2,0,0.4,0,0.5,0.1c0.1,0.2,0.1,0.4,0.4,0.4c0.4,0,0.3-0.3,0.8-0.4c0.5-0.1,1.5,0.2,2,0.1c0.6,0,1-0.3,1.7-0.4
	c2.5-0.3,5.3-0.8,7-0.5c0.7,0.1,0.4,0.4,0,0.6c-0.3,0.2-0.8,0.2-1.4,0.2c-0.3,0-1.1-0.1-1.3-0.1c-0.5,0.1-0.6,0.6-0.3,0.7
	c0.4,0.1,1.4-0.2,2.6-0.3c1-0.1,2.2-0.1,3.5,0c0.6,0,1,0,1.4-0.1c0.3,0,0.9-0.3,1.2-0.1c0.2,0.1,0.3,0.4,0.8,0.4
	c0.3,0,1-0.4,1.9-0.5c0.8-0.1,1.4,0,1.8,0.1c0.2,0,0.4,0.5,0.7,0.5c0.4,0,0.6-0.3,0.9-0.3c1.5-0.1,2.9,0.3,4.3,0.2
	c0.7,0,1.2-0.2,1.7-0.1c0.3,0.1,0.5,0.4,1,0.4c0.4,0,0.3-0.3,0.7-0.3c0.4,0,0.3,0.3,0.6,0.4c0.5,0.1,0.6-0.3,0.9-0.3
	c0.8-0.1,1.8,0.1,2.6,0.1c2.4,0,4.7,0,7.1,0c11.2,0.1,27.6,1,40.7,1.1c0.7,0,0.6-0.2,1.4,0c0.2,0.1,0.5,0.2,0.8,0.2
	c0.7,0.1,1.1-0.3,1.5-0.3c0.7,0,1.1,0.4,1.6,0.5c1.1,0.1,0.7-0.4,2.5-0.3c1.1-0.1,2.2,0,3.4,0.1c1.6,0,3.3,0,4.9,0.2
	c0.5,0.1,0.4,0.4,0.9,0.4c0.3,0,0.6-0.4,0.9-0.4c0.4,0,0.9,0.4,1.3,0.4c0.7,0,0.8-0.4,1.5-0.4c0.9,0,1.9,0.2,3,0.3
	c2.6,0.1,4.2-0.1,6.6,0c0.8,0,0.9,0.5,1.9,0.5c0.5,0,0.6-0.3,1.1-0.3c1-0.1,2.4,0,3.4,0.1c1.1,0,1.5,0.3,1.9,0.3
	c0.9,0.1,0.9-0.3,1.3-0.3c0.4,0,0.7,0,1,0.1c0.4,0.1,0.5,0.4,1,0.5c0.6,0.1,1-0.3,2.1-0.3c2.1,0.1,2.9,0.3,3.6,0.2
	c0.3,0,0.7-0.2,0.9-0.2c0.5,0,0.8,0.3,1.3,0.3c0.6,0,1.1-0.2,1.6-0.2c0.9,0,1.9,0,2.8,0.1c0,0,0,0,0,0c0,0.1-0.1,0.2,0,0.3
	c0,0.6,0.1,0.5,0.7,0.5c0.4,0.1,0.7-0.2,0.4-0.8c0,0,0-0.1,0-0.1c0.1,0,0.2,0,0.6-0.1c1.3,0,2.6,0.2,3.9,0.2c1.6,0.1,3.3,0.1,5,0
	c0,0.1,0,0.1,0,0.2c0,0.6,0.1,0.5,0.7,0.5c0.4,0.1,0.7-0.2,0.5-0.8c1.2,0,2.4,0,3.5,0c0.4,0,0.8,0,1.2,0.1c0.2,0,0.5,0,0.7,0.1
	c0.5,0.1,0.4,0.3,0.9,0.5c0.2,0.1,0.4,0,0.5-0.1c0.6-0.4,0.3-0.3,1.1-0.3c0.4,0,0.8,0,1.3-0.1c2-0.1,3.9-0.1,5.8,0.1
	c0.4,0,1,0.4,1.5,0.1c0.6-0.3,1.7-0.1,2.3-0.1c0.3,0,0.3,0.3,0.6,0.3c0.3,0,0.3-0.1,0.5-0.1c0.3-0.1,1.1,0.5,1.3,0.2
	c0.1-0.2-0.1-0.3-0.1-0.4c0-0.2,0.3-0.1,0.4-0.1c0.6-0.1,1.8,0,2.3-0.1c0.2,0,0.4-0.4,0.2-0.4c-0.6,0-6.1-0.1-13.1-0.2
	c-1.8,0-3.6,0.2-5.6,0.1c-0.8,0-2.2-0.2-3-0.2c-4.4-0.1-8.6-0.1-11.7-0.2c-1,0-1.4-0.3-2-0.3c-2.6,0.2-3.4-0.4-4.2-0.3
	c-0.7,0.1-0.9,0.6-1.4,0.5c-0.3-0.1-0.4-0.3-0.9-0.5c-0.8-0.3-2.7,0.3-3.6,0.4c-1.1,0-2.3,0.1-3.5,0c-1.3-0.1-0.9-0.6-1.6-0.6
	c-0.7,0-3.6,0-4.3,0c-0.4,0-0.6-0.3-1-0.2c-1.9,0.1-4.2,0.1-5.1-0.1c-0.5-0.1-0.4-0.5-0.7-0.7c-0.3-0.3-0.7-0.2-1.1-0.2
	c-1.1,0-2.9,0.1-3.1-0.1c0-0.2,0.1-0.4,0.4-0.5c0.9-0.2,4.3-0.1,5.2-0.1c12.8,0.2,25.9,0.4,38.7,0.2c2.3,0,4.6,0,6.8,0.1
	c1.3,0,2.3,0.2,3.4,0.1c0.2,0,0.4-0.1,0.7-0.2c0.7-0.3,1.7-0.2,2.5-0.2c1.1,0,2.1-0.1,3.1-0.1c1,0,1.9,0.2,2.6,0.2
	c0.6,0,1.6-0.3,2.3-0.3c0.8,0,1.5,0,2.3,0c0.9,0,1.9,0.1,2.8,0.1c2.1-0.2,4.1-0.4,6.1-0.3c2.3,0,4.5,0.3,6.9,0.2
	c1.7-0.1,3.4-0.4,5-0.4c7.2-0.2,14.5-0.1,21.4-0.2c9-0.2,18-0.7,27.1-0.7c0.4,0,0.7,0.2,1,0.2c0.3,0,0.5-0.1,0.8-0.2
	c0.4-0.1,0.5,0.1,1-0.1c0.3-0.1,0.7-0.2,1-0.2c0.5,0,0.6,0.4,1.4,0.3c0.2,0,0.7-0.2,0.9-0.2c0.8,0.1,1,0.3,2.1,0.2
	c3-0.2,7.5-0.4,9.1-0.3c0.5,0,0.8-0.2,1.2-0.3c0.5-0.2,1.1-0.2,1.6-0.2c1.7,0,3,0.2,4.7,0.2c3.1,0.2,9.5,0.4,16.9,0.6
	c0.7,0,0.4-0.4,1-0.4c2.9,0.1,7.3,0.1,10.1,0.1c4.2,0,8,0,10.7-0.1v0.6c-2.2,0.1-4.5,0.2-6.8,0.1c-0.3,0-0.4,0.1-0.5,0.1
	c-0.4,0.2-0.6,0.4,0,0.5c2,0.1,4.6,0,7.2-0.1v0.8c-0.1,0-0.1,0-0.2,0c-0.7,0-0.7,0.4-0.9,0.4c-0.6,0-1.9-0.1-2.3,0
	c-0.4,0.1-0.4,0.4-0.7,0.5c-0.5,0.3-5.9-0.1-7,0c-1.2,0.1-2.3,0.3-3.9,0.3c-1.2,0-2.8-0.2-3.9,0c-0.6,0.1-0.8,0.4-1.6,0.5
	c-0.5,0-1.1-0.1-1.6,0c-0.9,0.2-1,1-2,0.9c-0.8,0-1.2-0.6-2-0.6c-0.9-0.1-0.8,0.2-2,0.3c-1.5,0.2-4.2,0-5.9,0.1
	c-14.2,0.3-28.4,0.6-42.6,1c-2,0-6.6-0.1-6.8,0.1c0,0-0.3,0.4,0.1,0.4c2.6,0.2,5.4,0.1,8.1,0.1c6.1-0.1,12.1-0.3,18.2-0.2
	c0.5,0,1.2,0.1,1.5,0.1c0,0,0,0,0,0c0,0,0,0-0.1,0c-0.1,0-0.5,0.1-0.5,0.2c0,0.1,0,0.3,0.1,0.3c0.2,0.1,0.5,0,0.7,0
	c0.3,0,0.7,0,0.7-0.3c0-0.1,0-0.2,0-0.2c0.1,0,0.2-0.1,0.4,0c0.1,0,0.2,0.1,0.3,0.1c0,0.1-0.1,0.1-0.1,0.2c0,0.2,0.1,0.4,0.1,0.5
	c0.1,0.1,0.4-0.1,0.5-0.2c0.2-0.1,0.5-0.1,0.5-0.3c0-0.1,0-0.1-0.1-0.1c0.1,0,0.3-0.1,0.5-0.1c1.5,0,3.7-0.1,5.3-0.1
	c0.9,0,1.8,0.1,2.7,0.1c0.6,0,1.2,0,1.8,0c0.4,0,1,0.2,1.2,0.2c0.5-0.1,0.8-0.2,1.6-0.3c0.4,0,1,0,1.4,0c2.1,0,4.3,0.4,6.5,0.1
	c0.5-0.1,0.7-0.2,1.1-0.2c0.5,0,2,0.2,2.7,0.2c5.1,0,10.4,0.1,15.5,0.1c2.3,0.1,3.3-0.4,5.4-0.6c1.5-0.1,3.8-0.1,5.2,0
	c0.6,0,1.3,0,1.9-0.1v1.1c-0.2,0-0.5-0.1-0.8-0.1c-0.6,0-1.2,0.1-1.3,0.1c-0.3,0-0.9,0.3-0.9,0.7c0.1,0.1,0.4,0.1,0.8,0.2
	c0.6,0.1,1.6,0.1,2.1,0.1L377,119L377,119z M377,101.6v-1.4c-1.2,0-2.5,0-3.8,0c-3.1,0-6.4,0.3-9.3,0.2c-17-0.7-38-0.1-55,0.3
	c-0.8,0-1.8-0.1-2.5,0.1c-0.7,0.2-1.3,0.3-2.1,0.3c-0.8,0-1.3-0.2-1.7-0.2c-0.8,0-1.5,0-2.3,0c-7.3,0.2-19.7-0.3-26.5,0.3
	c-2.4,0.2-6.3-0.2-9-0.1c-9.2,0-18.4,0-27.7,0c-12.4,0-24.6,0.2-37,0c-12-0.1-24.1-0.8-36.1-0.4c-5.5,0.2-11.3,0-16.9,0
	c-0.7,0-1.3,0-2-0.1c-0.6-0.1-1.3-0.2-1.3,0.3c0,0.2,0.1,0.4-0.1,0.5c-0.2,0.1-0.7-0.1-0.8-0.1c-1.3-0.1-1.7,0.3-5.7,0.1
	c-1.5-0.1-3.3-0.2-5-0.3c-1.2,0-2.6-0.4-3.5-0.2c-0.3,0.1-0.9,0.2-0.6,0.7c0.2,0.4,0.6,0.1,0.9,0.3c0.4,0.3,0.2,0.6,0.8,0.6
	c0.6-0.1-0.3-0.7,0.6-0.7c1.3-0.1,4.3,0.2,6.2,0.4c0.1,0,0.6,0.2,0.2,0.2c-0.4,0.1-1.1,0.1-1.4,0.2c-0.3,0.1-0.2,0.1,0.1,0.2
	c0.5,0,1.2,0,1.6-0.2c0.1-0.1,0.2-0.3,0.3-0.3c0.3-0.1,0.6,0.2,0.8,0.2c0.3,0,0.3-0.2,0.7-0.2c1.8,0,4.3-0.2,5.5,0.1
	c0.6,0.2,0.4,0.6,0.8,0.6c3.4,0.6,14.5,0.4,17.4,0.5c1.1,0,2.2,0,3.3,0.1c0.1,0,0.1,0,0.2,0c0.6,0,0.4,0.4,0.7,0.4
	c0.3,0,0.3-0.3,0.6-0.4c0.2-0.1,0.4-0.1,0.6-0.1c0.6,0.1,0.4,0.5,0.9,0.6c0.5-0.1,0.3-0.5,0.7-0.5c2.2,0,4.4,0,6.6,0.1
	c0.2,0,0.4,0,0.5,0.2c0.1,0.1,0.1,0.5,0.3,0.6c0.5,0.2,0.4-0.6,1-0.7c0.4-0.1,0.6,0,0.9,0.1c0.9,0.2,4.4,0.1,5.6,0.1
	c1.1,0,2.3-0.1,3.4-0.1c0.7,0,0.8,0.2,1.1,0.3c0.4,0.1,0.9-0.1,1.4-0.2c0.4-0.1,2.3-0.1,2.5,0c0.2,0.1,0.3,0.3,0.6,0.4
	c0.2,0,0.4-0.3,0.6-0.3c0.3-0.1,0.9-0.1,1.2-0.1c0.6,0.1,0.9,0.4,1.6,0.4c0.9,0,1-0.2,1.8-0.3c1.3-0.1,3.2-0.2,4.5,0
	c0.2,0,0.7,0.4,0.9,0.4c0.1,0,0.4-0.1,0.6-0.2c0.2-0.1,0.7,0,1,0c0.5-0.1,0.9-0.2,1.4-0.2c1.9,0,3.9,0.1,5.7,0.1
	c2.1,0.1,5.4,0.1,7.6-0.1c1.5-0.2,3,0.1,4.4,0.1c0.8,0,1.9,0,2.6-0.2c0.4-0.1,0.5-0.4,0.8-0.3c0.4,0,0,0.4,0.4,0.5
	c0.1,0,0.2,0,0.3,0c0.5-0.1,0.1-0.6,0.6-0.6c0.4,0,0.9,0,1.3,0.1c0.2,0,0.5,0.3,0.7,0.2c0.2-0.1,0.2-0.3,0.5-0.4
	c0.2,0,0.4,0.2,0.7,0.3c0.2,0.1,0.5,0.1,0.8,0.1c0.4,0,0.9,0,1.4,0c0.8,0,0.8-0.3,1.2-0.3c0.6,0,0.5,0.3,0.8,0.3
	c0.2,0,0.2-0.3,0.4-0.4c0.1-0.1,0.2-0.1,0.3-0.1c0.2,0,0.4,0.1,0.5,0.2c0.2,0.2,0.5,0.3,0.8,0.2c0.1-0.1,0.2-0.2,0.5-0.2
	c2.1,0,4,0,6-0.1c0.6,0,2.1,0,2.9,0c0.8,0,0.6-0.4,1.1-0.4c0.2,0,0.4,0.1,0.5,0.1c0.3,0.2,0.4,0.2,0.6,0.2c4.9,0,10-0.3,15-0.4
	c1,0,3.1,0,4.2,0c1.1-0.1,1.9-0.3,2.7-0.3c0.6,0,1.1,0.1,1.9,0.1c0.5,0,1.1,0.1,1.7,0.1c1,0,1.2-0.2,1.9-0.2c0.6,0,1.3,0.2,1.9,0.2
	c1.5,0,3.1-0.2,4.8-0.2c1,0,2,0.1,3,0c5.3-0.2,10.7-0.4,13.6-0.4c11.8,0,23.9-0.8,35.8-1c2.9-0.1,5.9,0.5,8.7,0.3
	c1.3-0.1,5.7-0.1,9.1,0c1.5,0,2.9,0,3.6,0.1c0.7,0.1,0.8,0.4,2,0.4c2,0.1,4.6,0,6.6-0.2c0.6,0,0.9-0.2,1.5-0.2
	c0.9,0,1.5,0.3,2.2,0.3c0.5,0,0.9-0.2,1.6-0.3C373.4,101.7,375.2,101.7,377,101.6L377,101.6z M377,23.8v-1c-1.2,0-1.1,0.2-2.1,0.3
	c-1,0.1-2.6-0.1-2.4,0.2c0,0.1,0.7,0.1,0.9,0.2c0.6,0.1,1.1,0.1,2.1,0.2C376.2,23.8,376.7,23.8,377,23.8L377,23.8z M377,21.8V21
	c-1.1,0-2.9-0.2-3.8-0.3c-1.3-0.2-5.3,0.2-5.9,0c-0.5-0.2-3.4-0.1-4-0.2c-0.4,0-0.7,0.2-0.7,0.4c-0.1,0.4,0.5,0.4,0.7,0.4
	c0,0,2,0,2.8,0c0.9,0,1.1,0.3,1.8,0.4c1.2,0.1,2.4-0.2,3.1,0c1.2,0.3,1.7,1,3,0.1c0.7-0.4,1.3,0.1,1.7,0.2c0.2,0.1,0.6,0,0.8,0
	C376.9,21.9,376.9,21.9,377,21.8L377,21.8z M377,18.7V2.9H48.8v12.3c1.1,0,2,0,2.4,0c0.5,0,0,0.4-0.3,0.4c-0.7,0-1.4,0-2.2,0.1v1
	c0.3,0.1,0.6,0.1,0.9,0.1c0.5,0,1.1-0.3,2-1c1.5-1.1,2-0.7,5.3-0.7c13.3-0.1,27.7-1.2,40.7-1.3c2,0,3.9,0,5.9,0c0.9,0,2.2-0.1,3.1,0
	c1.1,0.1,1.4,0.4,2.8,0.3c0.7,0,1.5-0.3,2.3-0.2c1,0,2,0.5,2.7,0.5c1,0,0.9-0.7,3.1-0.5c1.5,0.1,3.1-0.1,4.5,0
	c0.8,0,2.1,0.5,2.8,0.4c0.6-0.1,0.8-0.8,1.8-0.8c0.7,0,1.2,0.4,1.8,0.4c0.5,0,1-0.5,1.6-0.4c0.5,0.1,1.3,0.4,1.6,0.4
	c1.9,0,3.3-0.2,5.2-0.2c1.7-0.1,3.8,0.1,5.7,0.1c8.1-0.1,16.2,0,24.3,0c0.9,0,3.1,0,6,0.1c4.1,0,8.1,0.3,12.1,0.4
	c7.7,0.1,15.7,0.2,21.5,0.3c3.3,0.1,6.6,0,7.9,0.1c0.3,0-0.1,0.6-0.4,0.6c-4.1,0.2-16.6-0.3-17.9-0.3c-6.3-0.1-12.7-0.2-19,0
	c-0.6,0-1.3,0-1.8,0c-1,0.1-0.7,0.6-2.3,0.6c-4,0-8-0.1-12-0.1c-1.9,0-3.5,0-5.4,0.1c-4.8,0.2-12.5,0.2-14.6,0.4
	c-1.5,0.1-0.9,1.1-0.1,1.1c0.5,0,0.9-0.5,1.7-0.5c0.3,0,0.8,0.2,1.3,0.4c2.1,0.4,6.5,0.6,9.9,0.6c3.6,0,14.2,0,24,0
	c5.8,0,11.3,0,14.5,0.1c3.9,0.1,7.8,0,11.7,0.1c0.9,0,3,0.3,3.9,0.3c3.9,0.1,6.7-0.1,8.4-0.1c3.4,0,6.8-0.1,10.3-0.2
	c2.8-0.1,5.9,0,8.7-0.1c2.1-0.1,4.5-0.2,6.6-0.2c6.3,0.1,12.3,0.2,18.5,0.2c8.2,0,16.4-0.3,24.5,0c7.1,0.3,14.2,0.7,21.3,0.5
	c7.2-0.3,7.5-0.4,14.9,0.1c5.2,0.3,10.6,0.3,15.9,0.3c6.3,0,12.5,0.1,18.7,0.2C363.1,18.4,370.1,18.6,377,18.7L377,18.7z M50.3,106
	c-0.2,0-0.3,0.1-0.3,0.3s0.1,0.3,0.3,0.3c0.1,0,0.3,0,0.4-0.1c0.1-0.1,0.1-0.4-0.1-0.5C50.5,105.9,50.4,106,50.3,106L50.3,106z
	 M14.3,107.8c0.2,0,0.3,0.1,0.5,0.2c0.2,0.1,0.2,0.1,0.4,0c0.2,0,0.1-0.4,0-0.4c-0.2-0.1-0.8-0.1-1,0
	C14.3,107.6,14.1,107.7,14.3,107.8L14.3,107.8z M18.4,99c0,0,0-0.2-0.3-0.3c-0.1,0-0.5,0-0.8,0c-0.1,0-0.7,0.2-0.7,0.3
	c0,0.1,0.2,0.4,0.5,0.4c0.2,0,0.5-0.1,0.7-0.1C18.1,99.2,18.4,99.1,18.4,99L18.4,99z M32.1,110.5c-0.3,0-0.3,0-0.3,0.2
	c0,0.3,0,0.3,0.3,0.3c0.3,0,0.4,0,0.4-0.3C32.5,110.5,32.4,110.5,32.1,110.5L32.1,110.5z M31.3,110.6c-1.3,0.1-3.6,0.4-5.2,0.9
	c-0.3,0.1-0.5,0.4-0.2,0.7c0.3,0.1,0.8,0.1,1.1-0.1c1.3-0.5,2.9-0.8,4.3-1c0.2,0,0.2-0.3,0.2-0.4C31.5,110.6,31.4,110.6,31.3,110.6
	L31.3,110.6z M24.8,112.3c-0.1,0.2-0.2,0.5,0,0.6c0.3,0.3,0.7,0.1,1-0.1c0.2-0.2,0.2-0.4,0.2-0.6C25.6,112,25,111.9,24.8,112.3
	L24.8,112.3z M39.3,107.2c-0.3,0-0.3,0-0.4,0.2c0,0.2-0.2,0.3,0.2,0.3c0.5,0,1,0,1.5,0c0.3,0,0.5,0,0.8,0c0.3,0,0.4,0,0.4-0.2
	c0-0.2-0.2-0.2-0.4-0.3C40.6,107.2,39.6,107.2,39.3,107.2L39.3,107.2z M42.5,107.8c0.2,0,0.2-0.1,0.2-0.2c0-0.1-0.6-0.4-0.6,0
	C42.1,107.9,42.2,107.8,42.5,107.8L42.5,107.8z M38,107.2c-0.8,0-1.5-0.1-2.3-0.1c-0.1,0-0.2,0-0.3,0c-0.2,0-0.2,0.1-0.2,0.3
	c0,0.2,0,0.3,0.2,0.3c0.3,0,0.7,0,1,0c0.5,0,1,0,1.5,0C38.4,107.7,38.7,107.2,38,107.2L38,107.2z M34.5,107c-0.3,0-0.4,0-0.5,0.1
	c-0.1,0.1-0.1,0.6,0.2,0.5c0.1,0,0.6,0,0.6,0c0.3-0.2,0.2-0.6,0-0.7C34.7,107,34.6,107,34.5,107L34.5,107z M31.2,107.2
	c-0.1,0-0.2,0.1-0.3,0.1c-0.1,0.1-0.1,0.3,0.1,0.4c0.3,0.1,0.9,0.1,1.3,0.1c0.3,0,0.6,0,0.8,0c0.3-0.1,0.3-0.4,0.2-0.5
	c-0.1-0.1-0.2-0.1-0.3-0.1C32.6,107.1,31.6,107.1,31.2,107.2L31.2,107.2z M29.4,107.1c-0.5,0-1.1-0.1-1.1,0.4c0,0.3,0.3,0.3,1.1,0.2
	c0.7-0.1,0.9,0,1.1-0.3C30.7,107.1,30,107.1,29.4,107.1L29.4,107.1z M24.6,107.8c-0.6-0.2-0.7,0.1-0.9,0.2c-0.3,0.2-0.7,0-1,0.1
	c-0.3,0.1,0,0.6,0.3,0.9c0.2,0.2,0.1,0.5,0.7,0.4c0.4,0,0.5-0.3,0.5-0.6c0-0.2-0.1-0.6,0.1-0.6C24.5,108.1,24.7,107.9,24.6,107.8
	L24.6,107.8z M20.8,109.4c0,0.1,0.1,0.2,0.2,0.3c0.3,0.2,1.3,0.1,1.5-0.2c0.2-0.3,0-0.6-0.4-0.6C21.9,108.8,20.7,109,20.8,109.4
	L20.8,109.4z M20.6,110.2c-0.3,0-0.6,0.2-0.8,0.6c-0.1,0.1-0.1,0.3,0.1,0.4c0.6,0.3,1,0,1.3-0.4C21.6,110.3,20.9,110.3,20.6,110.2
	L20.6,110.2z M24,30.4c-0.3,0-0.3,0.4-0.1,0.6c0.1,0.1,0.5,0,0.5-0.1c0.1,0,0.2-0.3,0.2-0.3c0-0.1,0-0.1-0.1-0.2
	C24.4,30.3,24.2,30.4,24,30.4L24,30.4z M18.7,40.5c0,0.2,0.7,0.6,1,0.2c0.2-0.2-0.5-0.5-0.8-0.4C18.8,40.3,18.8,40.5,18.7,40.5
	L18.7,40.5z M11.9,67.4c-0.3,0.2-0.5,0.3,0.2,0.3c0.3,0,0.4-0.1,0.5-0.1c0.3-0.2,0.4-0.3,0.1-0.4C12.4,67.2,12,67.3,11.9,67.4
	L11.9,67.4z M324.8,108.8c-0.1,0,0,0.2,0,0.3c0.1,0.3,0.3,0.2,0.5,0.2c0.1,0,0.3,0,0.4-0.1c0-0.1,0-0.2,0-0.3c0-0.1-0.3-0.1-0.3-0.1
	C325.3,108.8,324.9,108.8,324.8,108.8L324.8,108.8z M8.8,67.7c0.2,0.1,0.6,0,0.9-0.1c0.1-0.1,0.3-0.1,0.3-0.2C10,67.3,10,67.2,10,67
	c0-0.3-1.3-0.1-1.4,0.2C8.6,67.4,8.6,67.6,8.8,67.7L8.8,67.7z M7.1,68.6c0.4,0,0.9-0.3,1-0.8c0-0.3-1.3-0.1-1.4,0.2
	C6.6,68.3,6.8,68.6,7.1,68.6L7.1,68.6z M14.7,58.3c0.3-0.1,0.3-0.4,0.2-0.7c-0.1-0.1-0.3-0.1-0.5-0.1c-0.3,0.2-0.5,0.9,0,0.8
	C14.5,58.4,14.6,58.3,14.7,58.3L14.7,58.3z M10.5,63.9c0.5-0.1,0.8-0.5,0.8-1c-0.3-0.2-1-0.1-1.4,0.1c-0.2,0.3-0.4,0.9,0.1,0.9
	C10.1,63.9,10.3,63.9,10.5,63.9L10.5,63.9z M6.9,64.9c-0.4,0-0.6,0.4-0.6,0.8c0.2,0.2,0.8,0.1,1.1-0.1c0.2-0.2,0.4-0.7-0.1-0.7
	C7.2,64.9,7,64.9,6.9,64.9L6.9,64.9z M28.3,18.3c-0.3,0-0.9,0.3-0.9,0.7c0,0.4,0.2,0.6,0.5,0.6c0.3,0,0.6-0.3,0.6-0.5
	C28.6,18.6,28.7,18.3,28.3,18.3L28.3,18.3z M18.3,46.3c-0.2,0-0.1,0.2-0.3,0.2c-0.2,0-0.5-0.1-0.7,0c-0.5,0.2,0.1,0.5,0.2,0.6
	c0.2,0.1,0.4,0.1,0.5-0.1c0.2-0.2,0.1-0.2,0.4-0.2c0.3,0,0.2,0,0.2-0.3C18.7,46.3,18.7,46.2,18.3,46.3L18.3,46.3z M20.2,48.4
	c-0.2,0-0.4,0-0.4,0.3c0,0.3,0.4,0.3,0.8,0.3c0.7,0,0.6,0.1,1.1,0c0.3,0,0.5-0.1,0.6-0.3c0.1-0.1,0.1-0.2-0.1-0.4
	c-0.1-0.1-0.2-0.2-0.3-0.2c-0.4-0.2-0.7,0.2-0.9,0.2C20.8,48.4,20.6,48.3,20.2,48.4L20.2,48.4z M17.5,36c-0.4,0-1-0.1-1.2,0.3
	c-0.2,0.3-0.1,0.6,0.3,0.7c0.1,0,0.3,0,0.4,0c0.1,0,0.6-0.3,0.8-0.4C18,36.2,17.9,36,17.5,36L17.5,36z M9.7,38.6
	c-0.4-0.3-0.5-0.1-1.2-0.2c-0.3,0-0.6-0.1-0.8,0c-0.2,0.1-0.4,0.3-0.3,0.5c0.1,0.4,0.3,0.5,0.6,0.5c0.1,0,0.6,0,1-0.1
	c0.5-0.1,1-0.1,1.1-0.1C10.2,39.2,10,38.8,9.7,38.6L9.7,38.6z M18.3,26.4c-0.4,0-0.5,0-0.5,0.3c0,0.2,0,0.3,0.5,0.3
	c0.5,0,0.5,0,0.5-0.3C18.8,26.4,18.7,26.4,18.3,26.4L18.3,26.4z M20,26.4c-0.4,0-0.4,0-0.4,0.3s0,0.3,0.4,0.3c0.4,0,0.3,0,0.4-0.3
	C20.4,26.4,20.4,26.4,20,26.4L20,26.4z M21.5,26.4c-0.5,0-0.7,0-0.7,0.3S21,27,21.6,27c0.5,0,0.7,0,0.7-0.3
	C22.2,26.3,22,26.4,21.5,26.4L21.5,26.4z M23.4,26.2C23,26.3,23,26.3,23,26.5c0,0.3,0.1,0.4,0.7,0.3c0.7-0.1,0.6-0.1,0.6-0.5
	C24.2,25.9,24,26.1,23.4,26.2L23.4,26.2z M12.6,26.1c-0.9,0.2-0.6,0.8,0.2,0.9c0.6,0.1,1.4-0.1,1.6-0.1c0.2,0,1.6,0.1,2.3,0
	c0.2,0,0.4-0.4,0.1-0.6c-0.2-0.1-2.2-0.3-2.4-0.3C13.7,26,13.1,26,12.6,26.1L12.6,26.1z M16,101.3c0.3,0,2-0.2,2.3-0.2
	c0.2,0,0.4-0.1,0.4-0.3c0-0.3-0.2-0.2-0.4-0.2c-0.8,0.1-1.7,0.1-2.8,0c-0.3,0-0.5,0.2-0.5,0.3C14.9,101.4,15.7,101.3,16,101.3
	L16,101.3z M10.4,72c-0.4,0.1-0.9,0.2-1.3,0.3c-0.2,0-0.4,0.1-0.3,0.3c0.1,0.3,0.2,0.3,0.5,0.2c0.8-0.2,1.7-0.2,2.8-0.2
	c0.4,0,0.7-0.4,0.5-0.7c-0.1-0.2-0.4-0.3-0.8-0.2C11.1,71.8,10.8,71.9,10.4,72L10.4,72z M6.2,74.2c0.4,0,0.6-0.3,0.7-0.7
	C7.1,73,6.6,73,6.2,73.1c-0.4,0.1-0.6,0.1-0.8,0.5c-0.1,0.3-0.1,0.6,0.3,0.6C5.8,74.2,6,74.2,6.2,74.2L6.2,74.2z M14.4,48.2
	c-0.2,0-0.7,0.1-1.7-0.2c-0.6-0.2-1.1-0.2-1.6-0.2c-0.2,0-0.6,0-0.9,0.2c-0.4,0.2-0.3,0.8,0.1,1.1c0.4,0.2,1.5,0,1.9-0.2
	c0.5-0.2,1.2-0.2,1.8-0.2c0.2,0,0.5,0,0.6-0.1C14.9,48.4,14.6,48.2,14.4,48.2L14.4,48.2z M15.3,45.2c-1.9,0.2-3.3-0.1-4.2,0.2
	c-0.5,0.2-0.9,0.1-1.2,0.2c-0.4,0.1-0.4,0.7,0,0.9c0.3,0.1,0.7,0,1-0.1c0.5-0.2,0.8-0.3,1.3-0.4c1-0.1,2-0.1,2.6-0.2
	C15,45.8,15.4,45.2,15.3,45.2L15.3,45.2z M16.1,48c-0.3,0-0.4,0-0.3,0.3c0.1,0.3,0.2,0.3,0.5,0.3c0.4,0,0.7-0.1,1-0.1
	c0.3,0,0.8,0.1,1,0c0.2-0.1,0.2-0.2,0.2-0.4c0-0.3-0.1-0.4-0.7-0.3c-0.3,0-0.5,0-0.8,0C16.7,48,16.4,48,16.1,48L16.1,48z M18.1,56.2
	c-1.5,0-3.2-0.3-4.5,0.1c-0.4,0.1-0.4,0.6,0,0.8c0.3,0.1,1.1,0,1.4-0.1c1.3-0.4,2.1-0.1,3-0.2c0.1,0,0.6-0.3,0.5-0.5
	C18.4,56.3,18.4,56.2,18.1,56.2L18.1,56.2z M11.6,57.6c-0.1,0.5,0.1,0.8,0.4,0.9c0.5,0.1,0.9-0.6,0.9-0.9c0-0.1-0.1-0.3-0.2-0.4
	C12.5,57,11.8,57.3,11.6,57.6L11.6,57.6z M27,41.8c-0.1,0.1-0.1,0.3,0,0.4c0.1,0.1,0.5,0,0.7,0c0.2-0.1,0.7,0,0.8-0.1
	c0.3-0.3-0.3-0.5-0.7-0.5C27.4,41.6,27,41.8,27,41.8L27,41.8z M29.1,41.8c-0.1,0.1-0.1,0.3,0,0.4c0.1,0.1,0.4,0,0.5,0
	c0.2-0.1,0.5,0,0.5-0.1c0.2-0.3-0.2-0.5-0.5-0.5C29.3,41.5,29.1,41.7,29.1,41.8L29.1,41.8z M25.2,57.9c0,0.3,0,0.4,0.3,0.4
	c0.9,0,1.1-0.1,1.5-0.5c0.2-0.3-0.5-0.3-1.1-0.3C25.6,57.5,25.2,57.5,25.2,57.9L25.2,57.9z M32.1,37.3c0.4,0.5,4.4,0.4,4.6-0.3
	c0-0.1-3.3,0-3.8,0C32.6,37.1,32.3,37.2,32.1,37.3L32.1,37.3z M37.7,98.5c-0.2,0-0.7,0.1-0.8,0.2c-0.1,0.4-0.1,0.4,0.2,0.4
	c0.2,0,0.4,0,0.6,0c0.7,0,1,0.2,1-0.3C38.7,98.5,38.4,98.5,37.7,98.5L37.7,98.5z M40.5,98.5c-0.2,0-0.7,0.1-0.8,0.3
	c-0.1,0.4,0.5,0.5,0.8,0.4c0.7,0,1,0.2,1-0.4C41.5,98.6,41.2,98.5,40.5,98.5L40.5,98.5z M35.6,98.7c-1,0-4.3-0.1-5.9,0.3
	c-1.9,0.5-3.6,0.4-4.1,0.4c-0.5,0-2.6-0.1-2.3,0.8c0.1,0.4,0.5,0.4,0.9,0.4c0.9,0,1.7,0,2.6-0.4c0.6-0.3,2-0.4,3.5-0.5
	c1.5-0.2,3-0.4,3.5-0.4c0.4,0,2.4,0.3,2.4-0.4C36,98.7,35.8,98.7,35.6,98.7L35.6,98.7z M235.8,108.5c-0.3,0-0.5,0-0.5,0.3
	c0,0.1-0.1,0.2,0,0.2c0.1,0.1,0.4,0,0.6,0c0.4,0,0.6,0,0.3-0.4C236.1,108.5,236.1,108.5,235.8,108.5L235.8,108.5z M215.3,108.6
	c-0.5,0-0.6,0-0.6,0.2c0,0.2,0.1,0.2,0.7,0.2c0.4,0,0.7-0.1,0.4-0.3C215.7,108.6,215.7,108.6,215.3,108.6L215.3,108.6z M222.4,105.3
	c-0.3,0-0.4,0-0.4,0.3c0,0.3,0.1,0.3,0.4,0.3c0.3,0,0.5-0.1,0.3-0.5C222.7,105.3,222.7,105.3,222.4,105.3L222.4,105.3z M234.9,101.9
	c-0.3,0-0.4,0-0.4,0.3c0,0.3,0.1,0.3,0.4,0.3c0.3,0,0.5-0.1,0.3-0.5C235.1,101.9,235.2,101.9,234.9,101.9L234.9,101.9z M234.2,16.6
	C234.3,16.6,234.3,16.6,234.2,16.6c0.1-0.2-0.1-0.2-0.3-0.2c-0.1,0-0.3,0-0.3,0c-0.1,0-0.1,0.1,0.1,0.1
	C233.8,16.6,234.2,16.7,234.2,16.6L234.2,16.6z M192.4,102.5c-0.5,0-0.4,0-0.2,0.3c0.1,0.1,0.1,0.3,0.5,0.3c0.3,0,0.5,0,0.8,0
	c0.7,0,1,0.2,1-0.3c0-0.2-0.3-0.3-1-0.3C193.1,102.5,192.8,102.4,192.4,102.5L192.4,102.5z M196.5,102.5c-0.2,0-0.3,0.1-0.3,0.2
	c0,0.3,0.1,0.4,0.4,0.4c0.5,0,0.9,0,1.4,0c0.3,0,0.4,0.1,0.4-0.3c-0.1-0.3-0.1-0.2-0.5-0.3c-0.1,0-0.3-0.2-0.5-0.2
	c-0.2,0-0.2,0.2-0.4,0.2C196.9,102.5,196.7,102.5,196.5,102.5L196.5,102.5z M199.4,102.3c-0.4,0-0.3,0.1-0.3,0.3
	c0.1,0.2,0,0.2,0.3,0.2c0.2,0,0.1-0.1,0.1-0.2C199.7,102.4,199.7,102.3,199.4,102.3L199.4,102.3z M201.5,102.2
	c-0.5,0-0.5,0.1-0.5,0.3c0,0.3,0,0.3,0.5,0.3c0.5,0,0.5,0,0.5-0.3C202,102.2,202,102.2,201.5,102.2L201.5,102.2z M204.8,102.1
	c-0.4,0-0.4,0.1-0.4,0.3c0,0.3-0.1,0.3,0.3,0.3c0.4,0,0.4-0.1,0.4-0.3C205,102.2,205.1,102.1,204.8,102.1L204.8,102.1z M206.2,102
	c-0.5,0-0.6,0-0.6,0.3c0,0.4,0.1,0.3,0.7,0.4c0.4,0,0.7-0.2,0.4-0.6C206.6,101.9,206.7,101.9,206.2,102L206.2,102z M353,106.5
	c0.5,0,0.8,0,0.9-0.1c0-0.1,0,0-0.1-0.2c-0.2-0.4-0.3-0.3-0.8-0.3c-0.5,0-0.8,0-0.8,0.3C352.1,106.6,352.4,106.5,353,106.5
	L353,106.5z M356.7,106.2c0.5,0,0.4-0.1,0.4-0.3c0-0.2,0-0.3-0.4-0.3c-0.3,0.1-0.3,0.1-0.3,0.3C356.4,106.2,356.3,106.2,356.7,106.2
	L356.7,106.2z M251.2,109.3c-0.3,0-0.5-0.1-0.4,0.4c0,0.2,0.1,0.1,0.3,0.2c0.1,0,0.4,0.2,0.6,0.2c0.3,0,0.4-0.2,0.9-0.3
	c0.2,0,0.2-0.2,0.2-0.3c0-0.1,0-0.2-0.1-0.2c-0.2,0-0.4-0.1-0.6-0.1C252,109.2,251.6,109.3,251.2,109.3L251.2,109.3z M254.4,109.3
	c-0.2,0-0.3-0.1-0.3,0.1c0,0.2,0.1,0.2,0.4,0.2c0.2,0,0.3,0.1,0.5,0.2c0.5,0,1,0.1,1.6,0.1c0.5,0,1.2,0,1.5-0.2
	c0.3-0.1,0.9-0.1,1.3-0.1c0.1,0,0.2-0.3,0-0.3c-0.2,0-0.1-0.1-0.5-0.1c-0.4,0-0.5,0.1-0.7,0.1C256.9,109.4,255.7,109.3,254.4,109.3
	L254.4,109.3z M261.2,109.3c-0.3,0-0.4,0.1-0.4,0.2c0,0.2,0,0.2,0.4,0.2c0.4,0,0.4,0,0.4-0.2C261.7,109.3,261.6,109.3,261.2,109.3
	L261.2,109.3z M262.4,109.3c-0.3,0-0.2,0.1-0.2,0.2c0,0.2,0,0.3,0.2,0.3c0.3,0,0.3-0.1,0.3-0.2C262.7,109.3,262.7,109.3,262.4,109.3
	L262.4,109.3z M268.6,109.3c-0.5,0-0.5,0.2-0.4,0.4c0.1,0.3,0,0.3,0.4,0.3c0.5,0,0.5-0.1,0.5-0.3
	C269.1,109.4,269.1,109.3,268.6,109.3L268.6,109.3z M273.7,109.3c-0.4,0-0.4,0.1-0.3,0.3c0,0.3-0.1,0.4,0.3,0.4c0.4,0,0.3,0,0.3-0.4
	C274,109.4,274.1,109.3,273.7,109.3L273.7,109.3z M275.6,109.3c-0.5,0-0.6-0.1-0.6,0.3c0,0.4,0,0.4,0.5,0.4c0.5,0,0.6,0,0.7-0.3
	C276.3,109.3,276.3,109.3,275.6,109.3L275.6,109.3z M278.4,109.3c-0.5,0-0.5,0.1-0.6,0.3c-0.1,0.3-0.2,0.4,0.4,0.4c1,0,2,0,2.9,0
	c0.6,0,2.2,0.1,2.8-0.1c0,0,0.4-0.6,0.2-0.6c-0.5-0.1-2.3,0-2.8,0C280.3,109.3,279.3,109.3,278.4,109.3L278.4,109.3z M285.3,109.3
	c-0.5,0-0.4-0.1-0.5,0.4c-0.1,0.3-0.2,0.4,0.3,0.4c0.4,0,0.4,0.1,0.5-0.3C285.8,109.4,285.8,109.3,285.3,109.3L285.3,109.3z
	 M288,109.3c-0.8,0-0.8-0.1-1,0.3c-0.3,0.4,0.3,0.4,1,0.4c0.7,0,1.1,0.2,1-0.4C288.9,109.2,288.6,109.3,288,109.3L288,109.3z
	 M290.5,109.3c-0.5,0-0.4-0.1-0.4,0.4c0,0.4,0,0.3,0.4,0.4c0.3,0,0.3-0.2,0.3-0.4C290.9,109.3,290.8,109.3,290.5,109.3L290.5,109.3z
	 M292.2,109.3c-0.6,0-0.9-0.2-0.8,0.4c0,0.3,0.1,0.3,0.8,0.3c0.6,0,0.9,0,0.8-0.4C293,109.3,292.8,109.3,292.2,109.3L292.2,109.3z
	 M294.2,109.3c-0.3,0-0.4-0.1-0.3,0.2c0,0.2,0,0.2,0.4,0.2c0.4,0,0.5,0,0.3-0.2C294.5,109.3,294.5,109.3,294.2,109.3L294.2,109.3z
	 M297.3,109.3c-0.3,0-0.4-0.1-0.3,0.3c0,0.1,0.1,0.1,0.2,0.2c1.1,0.1,1.2,0.2,2.1,0.1c0.5-0.1,0.4-0.2,0.3-0.5c-0.1,0-0.2,0-0.3,0
	C298.6,109.3,297.9,109.3,297.3,109.3L297.3,109.3z M300.7,109.3c-0.4,0-0.5-0.1-0.5,0.2c0.1,0.3,0,0.3,0.6,0.4
	c0.2,0,0.4-0.1,0.5-0.1c0.3-0.1,0.5-0.1,0.8-0.1c0.1,0,0.2,0,0.2-0.1c0.1-0.1,0.1-0.5-0.1-0.6c-0.1,0-0.3,0-0.3,0
	c-0.1,0-0.2,0.2-0.2,0.2C301.4,109.4,301.1,109.3,300.7,109.3L300.7,109.3z M304.9,109.1c-0.3,0-0.4,0-0.4,0.2
	c0.1,0.2,0.1,0.4,0.4,0.4c0.5,0,1,0,1.5,0c0.5,0,0.5-0.1,0.5-0.4c0-0.4,0.1-0.4-0.3-0.3c-0.2,0-0.3,0-0.5,0
	C305.7,109.1,305.3,109.1,304.9,109.1L304.9,109.1z M309.5,109c-0.3,0-0.3-0.1-0.3,0.2c0,0.2,0.1,0.1,0.4,0.1c0.3,0,0.3,0.1,0.3-0.2
	C309.8,108.9,309.8,109,309.5,109L309.5,109z M310.6,109c-0.2,0-0.2,0-0.2,0.2c0,0.2,0,0.2,0.2,0.2s0.2,0,0.2-0.2
	C310.8,108.9,310.8,109,310.6,109L310.6,109z M311.4,109c-0.3,0-0.3-0.1-0.3,0.2c0,0.2,0,0.2,0.3,0.2c0.3,0,0.3,0.1,0.3-0.2
	C311.7,108.9,311.7,109,311.4,109L311.4,109z M313.1,109c-0.2,0-0.7,0-0.8,0c-0.1,0-0.1,0.1-0.1,0.2c0,0.3,0.3,0.2,0.6,0.2
	c0.3,0,0.6,0.1,0.6-0.2C313.4,109,313.3,108.9,313.1,109L313.1,109z M314.5,108.8c-0.2,0-0.4,0.1-0.4,0.3c0,0.2,0.2,0.2,0.4,0.2
	c0.2,0,0.4,0,0.4-0.2C314.9,108.9,314.7,108.8,314.5,108.8L314.5,108.8z M319.2,104.4c0.2-0.2,0.3-0.4,0.2-0.5c-0.1,0-0.1,0-0.2-0.1
	c-0.3,0-0.6-0.1-0.9-0.1c-0.3,0-0.4,0-0.3,0.4c0.1,0.3,0.2,0.3,0.4,0.3C318.7,104.4,318.9,104.4,319.2,104.4L319.2,104.4z
	 M311.6,104.4c0.7,0,1.3,0,1.6-0.1c0.5-0.2,0.5-0.2,0.6-0.4c0.1-0.1,0.1-0.2,0.1-0.3c0-0.1-0.9-0.1-1.7-0.1c-0.7,0-1.4-0.1-1.5,0
	c-0.2,0.3-0.4,0.3-0.6,0.4c-0.1,0.3-0.1,0.6,0.5,0.6C311,104.4,311.2,104.4,311.6,104.4L311.6,104.4z M309.3,104.3
	c0-0.3,0.1-0.4-0.1-0.5c-0.3-0.1-0.6,0-0.9,0c-0.1,0-0.2,0-0.4,0c-0.3,0-0.4,0.1-0.7,0.2c-0.6,0.1-0.9,0-1,0.5c0.5,0.1,1-0.1,1.5,0
	C308.4,104.4,308.9,104.4,309.3,104.3L309.3,104.3z M304.6,104.7c0.3,0,0.3,0,0.4-0.2c0.1-0.2,0.2-0.4-0.1-0.4c-0.3,0-0.5,0-0.7,0
	c-0.3,0-0.3-0.1-0.3,0.2C304.1,104.7,304,104.7,304.6,104.7L304.6,104.7z M303.3,104.7c0-0.1-0.1-0.6-0.2-0.6c-0.2,0-0.4,0-0.6,0
	c-0.1-0.1-0.2,0.5-0.1,0.6C302.7,104.7,303,104.7,303.3,104.7L303.3,104.7z M301.7,104.7c0-0.2,0.2-0.6,0-0.6c-0.2,0-0.4,0-0.6,0
	c-0.2,0.2-0.2,0.6-0.2,0.6C301.2,104.7,301.4,104.7,301.7,104.7L301.7,104.7z M298.8,104.7c0.1-0.1,0.2-0.3,0.1-0.5
	c-0.3,0-0.6,0-0.9,0c-0.1,0.2-0.2,0.3-0.1,0.5C298.2,104.7,298.5,104.7,298.8,104.7L298.8,104.7z M293.9,105
	c0.1-0.2,0.2-0.4,0.2-0.6c-0.3,0-0.6,0-1,0c-0.1,0.1-0.2,0.3-0.2,0.6C293.2,105,293.5,105,293.9,105L293.9,105z M287,105
	c0-0.1,0-0.3-0.1-0.4c-0.2,0-0.5,0-0.7,0c-0.1,0.1,0,0.3,0,0.4C286.5,105.1,286.7,105,287,105L287,105z M279.6,105.4
	c0.5,0,0.4,0.1,0.4-0.3c0-0.4,0.1-0.3-0.4-0.3c-0.4,0-0.3,0-0.4,0.4C279.3,105.5,279.3,105.4,279.6,105.4L279.6,105.4z M278.4,105.4
	c0.3,0,0.2,0,0.3-0.3c0.1-0.4,0.1-0.3-0.3-0.3c-0.3,0.1-0.3,0-0.3,0.3C278.1,105.4,278.1,105.4,278.4,105.4L278.4,105.4z
	 M275.9,105.6c0.4,0,0.3,0.1,0.5-0.2c0.1-0.2,0.2-0.4,0-0.4c-0.1,0-0.3,0-0.4,0c-0.4,0-0.3,0-0.3,0.4
	C275.6,105.7,275.6,105.6,275.9,105.6L275.9,105.6z M274.8,105.6c0.2,0,0.1-0.3,0.2-0.5c0-0.3-0.1-0.1-0.5-0.1
	c-0.2,0-0.2,0.2-0.3,0.4C274.2,105.7,274.5,105.6,274.8,105.6L274.8,105.6z M272.9,105.6c0.4,0,0.3,0.1,0.3-0.5
	c0-0.2-0.1-0.1-0.3-0.1c-0.5,0-0.5-0.1-0.4,0.2C272.6,105.6,272.5,105.6,272.9,105.6L272.9,105.6z M271.7,105.3
	c0.3,0.1,0.1-0.4-0.1-0.5c0,0-0.1,0-0.3,0c-0.3,0-0.6,0.1-0.9,0.1c-0.2,0.1-0.3,0.3-0.3,0.6c0.9,0.1,0.7-0.2,1.1-0.2
	C271.4,105.3,271.5,105.4,271.7,105.3L271.7,105.3z M269.2,105.6c0.4,0,0.3,0,0.4-0.4c0.1-0.3,0-0.2-0.4-0.2c-0.4,0-0.8,0-1.2,0
	c-0.3,0-0.3,0.2-0.1,0.3c0.1,0.2,0.1,0.2,0.3,0.2C268.5,105.6,268.8,105.6,269.2,105.6L269.2,105.6z M267.5,105.6c0.1,0,0.1,0,0-0.2
	c0-0.2-0.1-0.3-0.3-0.3c-0.1,0-0.2,0-0.4,0.1c-0.1,0-0.2,0.1-0.2,0.2c-0.1,0.3-0.1,0.3,0.2,0.3C267,105.6,267.3,105.6,267.5,105.6
	L267.5,105.6z M265.2,105.3c-0.1,0.2-0.2,0.3,0.1,0.3s0.4,0.1,0.5-0.2c0-0.1,0-0.1,0-0.2c0-0.2,0-0.2-0.1-0.2
	C265.3,105,265.3,105,265.2,105.3L265.2,105.3z M263.5,105.6c0.4,0,0.3,0.1,0.3-0.3c0-0.3,0.1-0.3-0.2-0.3c-0.3,0-0.2,0-0.3,0.3
	C263.1,105.7,263.1,105.6,263.5,105.6L263.5,105.6z M262.2,105.6c0.4,0,0.3,0.1,0.4-0.3c0.1-0.4,0.1-0.3-0.2-0.3
	c-0.3,0-0.2,0-0.4,0.2C261.8,105.7,261.8,105.6,262.2,105.6L262.2,105.6z M261.2,105.6c0.3,0,0.3,0.1,0.4-0.2c0-0.2-0.1-0.1-0.3-0.1
	c-0.1,0-0.2,0-0.3,0.1C260.9,105.7,260.9,105.6,261.2,105.6L261.2,105.6z M258.5,105.8c0.2,0,0.4,0.1,0.5-0.1c0.1-0.2,0.3-0.4,0-0.4
	s-0.5,0-0.7,0c-0.1,0-0.1,0,0,0.1C258.3,105.6,258.3,105.8,258.5,105.8L258.5,105.8z M256.3,105.9c0.3-0.1,0.3,0,0.3-0.3
	c0-0.4,0.1-0.3-0.3-0.3c-0.4,0-0.4-0.1-0.4,0.4C256,106.1,255.9,106,256.3,105.9L256.3,105.9z M248.2,106c0-0.4,0.1-0.4-0.4-0.3
	c-0.3,0-0.5,0-0.8,0c-0.4,0-0.4-0.1-0.2,0.3c0.2,0.4,0.1,0.3,0.6,0.3C247.8,106.2,247.9,106.1,248.2,106L248.2,106z M246.1,106.2
	c0.4,0,0.3,0.1,0.3-0.3c0-0.3,0-0.3-0.3-0.3c-0.2,0-0.5,0-0.7,0c-0.6,0-0.7-0.2-0.6,0.3c0.1,0.4,0.1,0.3,0.5,0.3
	C245.6,106.2,245.8,106.2,246.1,106.2L246.1,106.2z M244.2,106.2c0.4,0,0.3,0.1,0.3-0.3c0-0.1,0-0.2,0-0.2c-0.1,0-0.2,0-0.3,0
	c-0.3,0-0.3-0.1-0.3,0.2C244,106.3,243.9,106.2,244.2,106.2L244.2,106.2z M219.8,103.3c0-0.2,0.2-0.5,0-0.4c-1.3,0-2.6,0-3.9,0
	c-0.1,0.1-0.1,0.3-0.1,0.5C217.2,103.4,218.5,103.4,219.8,103.3L219.8,103.3z M215.2,103.4c0.1-0.2,0.2-0.4,0.1-0.5
	c-0.8,0-1.6,0-2.4,0c-0.1,0-0.1,0.3-0.1,0.5C213.6,103.4,214.4,103.4,215.2,103.4L215.2,103.4z M212.3,103.4c0.1,0,0.2-0.1,0.1-0.5
	c-0.6,0-1.2,0-1.7,0c-0.2,0.2-0.1,0.3-0.1,0.5C211.1,103.4,211.7,103.4,212.3,103.4L212.3,103.4z M209.9,103.4
	c0.1-0.2,0.2-0.4,0.1-0.5c-0.1,0-0.3,0-0.4,0c-0.1,0.1-0.1,0.4-0.1,0.5C209.7,103.5,209.8,103.4,209.9,103.4L209.9,103.4z
	 M209,103.4c0.1-0.2,0-0.4,0.1-0.5c-0.2,0-0.5,0-0.7,0c-0.1,0.2,0,0.5,0.1,0.5C208.7,103.5,208.8,103.4,209,103.4L209,103.4z
	 M349.9,106.4c-0.2-0.3,0.2-0.6,0-0.8c-0.4,0-3,0-3,0c-0.1,0.4,0.1,0.6,0.1,0.8C348,106.4,348.9,106.4,349.9,106.4L349.9,106.4z
	 M346.4,106.5c0.2-0.4-0.1-0.6-0.4-0.7c-0.5-0.2-0.9-0.3-1.5-0.2c-0.2,0-0.4,0.1-0.7,0.4c-0.2,0.2-0.6,0.2-0.9,0
	c-0.6-0.5-0.7-0.3-1.5-0.3c-0.2,0-0.2,0.7-0.1,1C343,106.6,344.7,106.5,346.4,106.5L346.4,106.5z M340.8,106.6
	c0-0.1,0.1-0.3,0.1-0.4c0-0.4-0.5-0.1-0.6-0.3c-0.1-0.1,0-0.5-0.1-0.6c-0.1,0-0.4,0.3-0.6,0.2c-0.2,0-0.4,0.3-0.6,0.3
	c-0.4,0-0.8-0.2-1.1-0.2c-0.2,0,0,0.3-0.1,0.3c-0.3-0.1-1.2,0-1.6-0.1c-0.3-0.1,0.1-0.3-0.8-0.3c-1,0-2.1,0-3.2,0
	c-0.1,0-0.3,0.3-0.5,0.3c-0.3,0.1-0.5-0.3-0.9-0.1c0,0.6,0.6,0.4,0.7,0.4c0.1,0,0.1,0.2,0.2,0.2c0.5,0,1.1-0.1,1.6-0.1
	c0.4,0,1.5-0.1,1.9-0.1c0.4,0,0.4,0.2,0.8,0.2c0.6,0,3.1,0.2,3.4-0.1c0.1-0.1,0.2-0.2,0.3-0.2c0.1,0,0.3,0.4,0.4,0.4
	C340.4,106.6,340.6,106.6,340.8,106.6L340.8,106.6z M330.8,106.4c-0.1-0.1-0.2-0.3-0.3-0.4c-0.2-0.1-0.6,0-0.7,0
	c0,0.1,0.1,0.3,0.3,0.4C330.3,106.4,330.6,106.5,330.8,106.4L330.8,106.4z M329.6,106.5c-0.1-0.1,0-0.2-0.5-0.3
	c-0.2,0-0.1-0.2-0.4-0.2c-0.4,0-0.7,0-0.9,0c-0.2,0-0.4,0.1-0.5,0.2c-0.6,0.2-0.4,0.6-0.3,0.6c0.2,0,0.4,0,0.6,0
	c0.1,0,0.4-0.2,0.5-0.2C328.6,106.5,329.2,106.6,329.6,106.5L329.6,106.5z M326.1,106.7c0.1-0.1,0.3-0.2,0.3-0.4
	c-0.3,0.1-0.8,0-1.1,0c-0.2,0.2-0.3,0.3-0.3,0.4C325.4,106.8,325.7,106.8,326.1,106.7L326.1,106.7z M324.2,106.8
	c0.4,0,0.5-0.1,0.6-0.5c-0.5-0.1-1.1,0-1.6,0c-0.3,0.2-0.4,0.4-0.4,0.5C323.2,106.9,323.7,106.9,324.2,106.8L324.2,106.8z
	 M322.3,106.9c0.3-0.2,0.4-0.4,0.4-0.6c-0.8,0-1.5,0.1-2.4,0.1c-0.5,0.1-0.4,0.1-0.6,0.6C320.6,106.9,321.4,106.9,322.3,106.9
	L322.3,106.9z M319,106.9c0.1-0.1,0.2-0.2,0.2-0.3c0,0,0,0,0,0c-0.2,0-0.4,0-0.6,0c-0.2,0.1-0.1,0.2-0.1,0.3
	C318.7,106.9,318.9,106.9,319,106.9L319,106.9z M317.9,106.9c0.1-0.1,0.2-0.2,0.2-0.3c-0.2,0-0.5,0-0.7,0c-0.1,0.1-0.2,0.2-0.2,0.3
	C317.4,106.9,317.7,106.9,317.9,106.9L317.9,106.9z M316.7,106.9c0.1-0.1,0.2-0.1,0.2-0.3c-0.4-0.1-0.9,0-1.4,0
	c-0.1,0.1-0.2,0.3-0.1,0.5C315.9,107.2,316.3,106.9,316.7,106.9L316.7,106.9z M184.9,102.2c-0.3,0.3-0.1,0.5,0.3,0.5
	c0.1,0,0.1,0,0.2,0c0.1-0.1,0.1-0.3,0.1-0.5c-0.1,0-0.2-0.1-0.3-0.1C185.1,102.2,185,102.2,184.9,102.2L184.9,102.2z M181.5,102.3
	c-0.1,0.1-0.2,0.2-0.3,0.4c0.2,0,0.3,0.1,0.4,0.1c0.1,0,0.3,0,0.5,0c0.1-0.1,0.2-0.3,0.2-0.5c-0.1,0-0.3-0.1-0.4-0.1
	C181.8,102.3,181.7,102.3,181.5,102.3L181.5,102.3z M146.5,102.9c0.8,0,1.7-0.1,2.2,0c0-0.2-0.1-0.3-0.2-0.4
	c-0.5-0.3-2.5-0.2-3.1-0.2c-0.1,0-0.5,0-0.6,0.1C145.2,102.5,146.3,102.9,146.5,102.9L146.5,102.9z M149.5,102.9c0.4,0,0.9,0,1.4,0
	c0-0.2,0.2-0.3,0.1-0.6c-0.5,0-1,0-1.5,0C149.5,102.6,149.4,102.7,149.5,102.9L149.5,102.9z M151.5,102.8c0.1,0.1,0.3,0.1,0.5,0.1
	c1.1,0,2.1,0,3.1,0c0.1-0.2,0.1-0.3,0.1-0.4c-0.9,0-1.8,0.1-2.6,0.1c-0.3,0-0.3-0.3-0.6-0.3C151.6,102.5,151.6,102.7,151.5,102.8
	L151.5,102.8z M156.5,102.9c0.2,0,0.4,0,0.6,0c0.1-0.2-0.1-0.2,0.1-0.4c-0.2,0-0.4,0-0.6,0C156.4,102.7,156.5,102.8,156.5,102.9
	L156.5,102.9z M157.7,102.9c0.3,0,0.6,0,1,0c0-0.1,0.1-0.2,0-0.4c-0.3,0-0.6,0-0.9,0C157.7,102.8,157.7,102.9,157.7,102.9
	L157.7,102.9z M180.2,102.5c0.6,0,0.9,0,0.8-0.6c-0.1-0.1-2.1-0.1-4-0.1c-0.2,0.2-0.5,0.5-0.5,0.6
	C177.9,102.5,179,102.5,180.2,102.5L180.2,102.5z M176.1,102.4c0.2-0.1,0.4-0.3,0.5-0.6c-0.1,0-0.1,0-0.2,0c-1.4-0.1-2.6-0.2-3-0.2
	c-3.9,0-7.8-0.1-11.7-0.1c-0.2,0-0.4,0-0.6,0c-0.1,0.2-0.2,0.3-0.1,0.6c0,0,0,0,0,0C166.1,102.2,171.1,102.3,176.1,102.4
	L176.1,102.4z M159.5,102c0.1-0.2,0.2-0.3,0.2-0.6c-0.3,0-0.5,0-0.8,0c-0.2,0-0.3,0-0.5,0c-0.3,0.2-0.3,0.4-0.4,0.6
	C158.5,102,159,102,159.5,102L159.5,102z M157.4,102c0.3-0.2,0.2-0.2,0.4-0.6c-0.8,0-1.6-0.1-2.4-0.1c-0.2,0.1-0.3,0.3-0.1,0.6
	C156.1,101.9,156.7,102,157.4,102L157.4,102z M154.2,101.9c0.1-0.1,0.1-0.1,0.2-0.2c-0.1-0.1-0.2-0.3-0.3-0.4c-0.6,0-1.2,0-1.8-0.1
	c-0.1,0.2-0.1,0.4-0.1,0.6C152.8,101.9,153.5,101.9,154.2,101.9L154.2,101.9z M151.5,101.8c0-0.1,0.1-0.4,0.1-0.6c-0.4,0-0.7,0-1,0
	c-0.1,0.2-0.1,0.4-0.1,0.6C150.8,101.8,151.2,101.8,151.5,101.8L151.5,101.8z M149.8,101.8c0.1-0.1,0-0.3,0.1-0.6
	c-0.2,0-0.4,0-0.6,0c-0.1,0.2-0.2,0.5-0.1,0.5c0.1,0,0.1,0,0.2,0C149.5,101.8,149.6,101.8,149.8,101.8L149.8,101.8z M148.2,101.8
	c0.1-0.2,0.1-0.4,0.1-0.5c-0.2,0-0.4,0-0.5,0c-0.1,0.2-0.2,0.4-0.1,0.5C147.8,101.8,148,101.8,148.2,101.8L148.2,101.8z
	 M146.1,101.8c0.1-0.2,0.2-0.2,0.1-0.5c-0.3,0-0.7,0-1,0c-0.1,0.3,0,0.4-0.1,0.6C145.5,101.8,145.8,101.8,146.1,101.8L146.1,101.8z
	 M144.7,101.8c0-0.2,0.1-0.3,0.1-0.6c-0.3,0-0.5,0-0.6,0.1c0,0.3-0.1,0.5,0.4,0.5C144.6,101.8,144.6,101.8,144.7,101.8L144.7,101.8z
	 M240.6,101.9c-0.4,0-0.6-0.1-0.8,0.1c-0.1,0.1-0.2,0.3-0.3,0.5c0.5,0.2,4,0,4.3,0c0.6-0.1,0.9,0,1.4-0.2c0.2-0.1,0.6,0,0.7-0.4
	c-0.1-0.1-0.3-0.2-0.6-0.2c-0.3,0-1,0.2-1.5,0.2c-0.6,0-1-0.2-1.7-0.2C241.6,101.6,241.3,101.8,240.6,101.9L240.6,101.9z
	 M400.8,101.7c0,0-0.3,0.2-0.4,0.2c-0.1,0.1-0.1,0.2-0.1,0.5c0.1,0,0.5,0,0.6,0c0.2-0.1-0.1,0.1,0.1-0.1c0.2-0.1,0.2-0.3,0.2-0.6
	C401,101.8,401,101.7,400.8,101.7L400.8,101.7z M399,102.2c-0.1,0-0.5,0.1-0.5,0.6c0.1,0,0.5,0,0.6,0c0.2-0.1,0.5,0.1,0.7-0.1
	c0.2-0.1,0.2-0.2,0.2-0.6c0,0,0,0-0.1,0C399.7,102.2,399.2,102.2,399,102.2L399,102.2z M401,102.9c-0.2,0.2-0.3,0.2-0.2,0.3
	c0.1,0,0.2,0,0.4,0c0.3,0,0.7,0,0.7,0c0.4-0.1,0.9,0.1,1.4-0.1c0.4-0.1,0.4-0.2,0.4-0.6c0,0-0.1,0-0.1,0c-0.4,0.1-1.3,0-1.8,0
	C401.5,102.6,401.3,102.8,401,102.9L401,102.9z M409.1,98.2c-0.1,0.1-0.3,0.1-0.5,0.1c-0.4,0.1-0.7,0.1-0.9,0.1c0,0-0.2,0.1-0.3,0.1
	c-0.1,0.1-0.1,0.1-0.1,0.3c0,0.2,0.3,0.2,0.5,0.2c0.3,0.1,0.9-0.1,1.3-0.1c0.1,0,0.4,0,0.7-0.1c0.2-0.1,0.5-0.1,0.6-0.2
	c0.3-0.2,0.2-0.6-0.1-0.7C410,98.1,409.2,98.2,409.1,98.2L409.1,98.2z M362.9,105.1c0.3-0.1,1-0.1,1.3-0.3c0.1-0.1,0.3-0.2,0.3-0.4
	c-0.3-0.2-1.2,0-1.6,0c-0.3,0-0.7,0-1.3,0.1c-0.2,0.1-0.3,0.3-0.3,0.6C361.9,105.1,362.4,105.1,362.9,105.1L362.9,105.1z
	 M360.9,105.1c0.2-0.2,0.1-0.3,0.1-0.5c-0.2-0.1-0.3-0.2-0.4-0.2c-0.4,0-0.5,0.2-0.5,0.5c0.2,0.1,0.4,0.2,0.7,0.2
	C360.8,105.1,360.8,105.1,360.9,105.1L360.9,105.1z M359.5,104.8c0-0.2,0.2-0.2,0.1-0.6c-0.2-0.2-0.9-0.1-1.1-0.1
	c-0.7,0.1-1.6,0.2-2.3,0.2c-0.2,0-0.3,0-0.4,0.3c0.8,0,1.1,0.5,2.5,0.4C358.7,105.1,359.1,104.9,359.5,104.8L359.5,104.8z
	 M355.1,104.7c0.1-0.2,0.2-0.2,0.1-0.4c-0.2,0-0.4-0.1-0.6,0c-0.1,0-0.1,0.4-0.1,0.5c0.2,0,0.3,0,0.5,0
	C355,104.7,355,104.7,355.1,104.7L355.1,104.7z M354.2,104.7c0-0.2,0.1-0.4,0-0.4c-0.2,0-0.4-0.1-0.8,0.1c0.2,0.3,0.4,0.4,0.6,0.4
	C354,104.8,354.1,104.7,354.2,104.7L354.2,104.7z M369,103.5c-0.1-0.1-0.5-0.1-0.7,0c-0.1,0.1-0.2,0.3-0.2,0.5c0,0.2,0,0.2,0.2,0.3
	c0.2,0,0.6,0,0.6,0c0.1,0,0.1-0.1,0.2-0.1C369.2,104,369.1,103.6,369,103.5L369,103.5z M373.5,104.7c0.1-0.2,0.1-0.5-0.1-0.6
	c-0.3-0.1-0.6,0-0.8,0.1c-0.6,0.1-1.6,0-2,0.3c-0.2,0.1-0.2,0.2-0.5,0.4c0.2,0.2,1.2,0.3,2.2,0.2c0.2,0,0.4-0.1,0.6-0.2
	C373,104.8,373.5,104.7,373.5,104.7L373.5,104.7z M372.2,109.1c-0.1,0.1-0.2,0.2-0.3,0.5c0.2,0,0.4,0.1,0.5,0.1c0.2,0,0.4,0,0.5,0
	c0.2-0.2,0.2-0.3,0.2-0.6c-0.2,0-0.3-0.1-0.5-0.1C372.5,109.1,372.3,109.1,372.2,109.1L372.2,109.1z M390.4,107.8
	c-0.1,0.1-0.2,0.3,0.1,0.3c0.3,0,0.9-0.1,1.4-0.1c0.3,0,0.3,0,0.4-0.3c0-0.1,0-0.2-0.1-0.2c-0.4,0-0.7,0-1.1,0
	C390.9,107.6,390.6,107.8,390.4,107.8L390.4,107.8z M392.8,107.5c-0.2,0.2-0.1,0.4-0.1,0.6c0.1,0,0.2,0,0.4,0c0.3,0,0.5-0.1,0.6-0.2
	c0.4-0.1,0.7-0.1,1.2-0.2c0.4-0.1,0.4-0.2,0.4-0.6c0,0-0.1,0-0.1,0c-0.4,0.1-1,0-1.4,0C393.5,107.2,393.1,107.4,392.8,107.5
	L392.8,107.5z M396.6,106.9c-0.2,0.1-0.2,0.3-0.1,0.4c0.3,0,0.5-0.1,0.7-0.2c0.1,0,0.2,0,0.3-0.1c0.1,0,0.1-0.3,0.1-0.4
	C397.4,106.7,396.9,106.9,396.6,106.9L396.6,106.9z M398.4,106.6c-0.2,0.1-0.1,0.2-0.1,0.4c0.3,0,0.7-0.1,0.9-0.1
	c0.1,0,0.2,0,0.3-0.1c0.1,0,0.2-0.3,0.1-0.4c-0.2,0.1-0.4,0-0.5,0C398.8,106.4,398.5,106.6,398.4,106.6L398.4,106.6z M400.3,106.1
	c-0.1,0.1-0.1,0.3-0.1,0.4c0.1,0,0.1,0,0.2,0c0.3,0,0.5,0,0.7,0c0.2,0,0.2-0.2,0.2-0.6c-0.2,0-0.2,0-0.3,0
	C400.8,105.9,400.5,106,400.3,106.1L400.3,106.1z M401.8,105.8c-0.1,0.1-0.2,0.2-0.2,0.6c0.2,0,0.4,0,0.5,0c0.2,0,0.4-0.1,0.5-0.1
	c0.1-0.2,0.2-0.4,0.1-0.6c-0.2,0-0.3,0-0.5,0C402.1,105.7,401.9,105.7,401.8,105.8L401.8,105.8z M403.2,105.7
	c-0.1,0.2-0.1,0.4-0.1,0.6c0.4,0.1,0.7-0.1,1-0.2c0.6-0.1,1.1-0.1,1.6-0.4c0.2-0.1,0.4-0.1,0.6-0.3c-0.2-0.2-0.9-0.2-1.8-0.1
	c-0.2,0-0.3,0.1-0.5,0.2C403.7,105.6,403.4,105.6,403.2,105.7L403.2,105.7L403.2,105.7z M406.5,98.7c-0.2-0.1-1.1-0.1-1.1,0.4
	c0,0.3,0.8,0.4,1,0.3c0.1,0,0.2-0.1,0.2-0.1C406.7,99.2,406.6,98.8,406.5,98.7L406.5,98.7z M243.1,108c-0.1,0-0.5,0-0.5,0.1
	c-0.1,0.1-0.1,0.4,0.1,0.4c0.2,0,0.4,0,0.6,0c-0.1,0.2,0,0.4,0.1,0.6c0.3,0.2,0.5,0.4,1.1,0.2c0-0.3,0-0.5-0.1-0.6
	c0,0,0-0.1-0.1-0.1c0.4,0,0.7,0.1,1.1,0.1c0.2,0,0.4,0,0.5,0c0,0-0.1,0.1-0.1,0.1c0,0.1,0,0.3,0.1,0.5c0.1,0.1,0.2,0.1,0.4,0.1
	c0.1,0,0.1-0.1,0.2-0.2c0-0.2-0.1-0.4-0.1-0.4l0,0c0.4,0,0.7,0,1.1,0c0,0.1,0,0.2,0,0.3c0.1,0.1,0.2,0.1,0.3,0.1
	c0-0.1,0-0.2-0.1-0.3c2.3,0,4.7-0.1,7-0.1c1.5,0,3.5-0.1,4.2-0.2c0.3,0,0.1-0.4,0-0.4c-0.5,0-2.4-0.1-2.7-0.1
	c-0.4,0-5.5-0.1-5.7-0.1C250.3,107.9,244.3,107.9,243.1,108L243.1,108z M291.9,108.5c0.4,0,0.7,0,0.8-0.1c0.3-0.1,0.6-0.4,0-0.4
	c-4.2-0.3-8-0.1-12.2,0c-1.8,0.1-3.2,0.1-3.5,0.1c-0.9,0-15.3,0-17.5,0c-0.6,0-0.2,0.4,0,0.4c1.3,0,6,0.1,6.7,0.1
	c0.9,0,14,0.1,14.3,0.1C280.9,108.6,288.9,108.5,291.9,108.5L291.9,108.5z M418.1,82.1c-0.4-0.1-0.4,0-0.8,0.1
	c-0.2,0.1-0.5,0.1-0.7,0.1c-0.3,0.1-0.2,0.4,0.1,0.5c0.3,0.1,0.7,0.1,1.1,0.1c0.6-0.1,0.8-0.3,0.7-0.6
	C418.5,82.2,418.3,82.1,418.1,82.1L418.1,82.1z M402.1,21.2c-0.3,0.2-0.3,0.3-0.5,0.4c-0.1,0-0.5,0-0.6,0.1c0,0-0.1,0-0.1,0.1
	c0,0.2,0.8,0.3,1.1,0.2C402.7,21.7,402.4,21.2,402.1,21.2L402.1,21.2z M399.5,21.7c-0.2,0.1-0.2,0.2,0,0.4c0.1,0.1,0.3,0.1,0.6,0.1
	c0.4-0.1,0.7-0.1,0.5-0.5c-0.1-0.1-0.5,0-0.7,0C399.7,21.8,399.8,21.8,399.5,21.7L399.5,21.7z M395.9,22.3c0.5,0.1,2.2-0.1,3,0
	c-0.1-0.3-0.2-0.6-0.5-0.6c-0.6,0-1.2,0-1.7,0C396.2,21.7,396.1,22,395.9,22.3L395.9,22.3z M394.4,22c-0.3,0.2,0.2,0.8,0.9,0.5
	c0.4-0.2,0.6-0.5,0.3-0.9c-0.2,0-0.3,0.3-0.5,0.3C394.9,22.1,394.8,22,394.4,22L394.4,22z M390.3,20.8c-0.2,0-0.3,0-0.5,0
	c-0.2,0.1-0.2,0.4,0,0.5c0.2,0.1,0.1,0.1,0.4,0.1c0.3,0,0.5-0.2,0.4-0.4C390.5,20.8,390.5,20.7,390.3,20.8L390.3,20.8z M391.6,20.4
	c-0.2,0-0.3,0-0.5,0c-0.2,0.1-0.2,0.4,0,0.5c0.2,0.1,0.1,0.1,0.4,0.1c0.1,0,0.4,0.1,0.5,0c0.1-0.1-0.1-0.4-0.1-0.5
	C392,20.4,391.8,20.4,391.6,20.4L391.6,20.4z M392.8,20.4c-0.2,0-0.3,0-0.5,0c-0.2,0.1-0.2,0.4,0,0.5c0.2,0.1,0.1,0.1,0.4,0.1
	c0.3,0,0.5-0.2,0.4-0.4C393,20.5,393,20.4,392.8,20.4L392.8,20.4z M417.4,31.3c-0.2,0-0.3,0-0.5,0c-0.3,0.1-0.2,0.4,0,0.5
	c0.2,0.1,0.1,0.1,0.4,0.1c0.3,0,0.5-0.2,0.4-0.4C417.6,31.4,417.6,31.3,417.4,31.3L417.4,31.3z M401.2,26.3c0,0-0.6,0-0.6,0
	c0,0.1,0.2,0.1,0.2,0.2c0,0,0.1,0.1,0.2,0.1c0.1,0,0.5,0.1,0.7,0c0.1,0,0.2-0.2,0.1-0.3C401.8,26.3,401.3,26.3,401.2,26.3
	L401.2,26.3z M388.3,33.8c-0.1,0-1,0-1.1,0.1c0,0.1,0.3,0.2,0.4,0.3c0,0,0.2,0.2,0.3,0.2c0.2,0,0.9,0.2,1.2,0
	c0.2-0.1,0.3-0.4,0.2-0.5C389.4,33.7,388.5,33.8,388.3,33.8L388.3,33.8z M394.8,33.5c-0.3,0-0.4,0.2-0.4,0.3c0,0.2,0.2,0.3,0.7,0.3
	c0.3,0,0.5,0.1,0.7-0.2c0.1-0.1,0.1-0.2-0.1-0.3C395.4,33.6,395.2,33.5,394.8,33.5L394.8,33.5z M394.9,35c0.1,0.1,0.4,0.1,0.6,0.1
	c0.4,0,0.6,0,0.9-0.1c0.2-0.1,0.3-0.3,0.1-0.4c-0.2-0.2-0.4-0.1-0.7-0.1C394.9,34.4,394.8,34.9,394.9,35L394.9,35z M397.1,33.8
	c-0.2,0.1-0.4,0.2-0.4,0.3c0,0.2-0.1,0.4,0.1,0.5c0.1,0.1,0.4,0.1,0.6,0.1c0.4,0,0.6,0,0.9-0.1c0.2-0.1,0.3-0.3,0.1-0.4
	c-0.2-0.2-0.4,0-0.7-0.1C397.5,34,397.3,33.8,397.1,33.8L397.1,33.8z M401.2,34.1c-0.4,0-0.6,0-1,0c-0.5,0.1-0.4,0.4,0,0.5
	c0.4,0.1,0.1,0.1,0.8,0.1c0.6,0,0.9-0.2,0.7-0.4C401.6,34.2,401.5,34.1,401.2,34.1L401.2,34.1z M402.2,34.2c-0.2,0-0.1,0.3,0,0.4
	c0.2,0.2,1.5,0.2,2.2,0.4c0.3,0.1,1.4,0.3,1.9,0.3c0.5,0,0.9-0.1,1-0.3c0.3-0.3,0.2-0.6-0.3-0.6c-0.3,0-0.7,0-1.2,0
	C404.7,34.4,403.3,34.3,402.2,34.2L402.2,34.2z M399.2,36.2c-0.1,0-0.1,0-0.1,0.1c0,0.1,0,0.2,0.1,0.2c0.1,0,0.2-0.1,0.3-0.2
	C399.5,36.3,399.3,36.2,399.2,36.2L399.2,36.2z M408.2,40c-0.1,0-0.1,0-0.1,0.1c0,0.1,0,0.2,0.2,0.2c0.2,0,0.3-0.1,0.4-0.2
	C408.6,40.1,408.4,40,408.2,40L408.2,40z M406.7,39.8c-0.2,0-0.3,0.1-0.4,0.3c-0.1,0.3,0.1,0.5,0.5,0.5c0.5-0.1,0.8-0.2,1-0.4
	C407.8,40,407.3,39.8,406.7,39.8L406.7,39.8z M414.3,42.3c0.3,0,0.3-0.4,0.1-0.5c-0.1-0.1-0.3-0.3-0.4-0.4c-0.2-0.2-0.8-0.2-0.7,0.1
	c0,0.3-0.1,0.2,0,0.5c0.1,0.2,0.3,0.3,0.4,0.4C414,42.4,414.3,42.3,414.3,42.3L414.3,42.3z M416.3,43.8c-0.5,0-0.6,0.2-0.8,0.3
	c-0.3,0.1-0.1,0.4,0.1,0.4c0.3,0,0.1-0.1,0.5-0.1c0.2,0,0.5,0,0.6,0c0.2-0.1,0.1-0.3,0-0.4C416.6,43.8,416.5,43.8,416.3,43.8
	L416.3,43.8z M418.1,43.5c-0.5-0.2-0.8,0.2-0.9,0.3c-0.3,0.1-0.2,0.4,0.1,0.5c0.3,0.1,0.1,0.1,0.5,0.1c0.6-0.1,0.8-0.3,0.7-0.6
	C418.4,43.7,418.3,43.6,418.1,43.5L418.1,43.5z M417.9,52.9c0.1-0.1,0.2-0.2,0.2-0.4c0-0.1-0.1,0-0.2-0.1c-0.1-0.1-0.4-0.1-0.5,0.1
	c0,0.1,0,0.1,0,0.2c0,0.1,0.2,0.2,0.3,0.2C417.7,52.9,417.7,53,417.9,52.9L417.9,52.9z M417.1,52.9c0.1-0.1,0.2-0.2,0.2-0.3
	c0-0.1-0.1,0-0.3-0.1c-0.1,0-0.5,0-0.6,0.1c0,0.1-0.1,0.1,0,0.2c0,0.1,0.3,0.1,0.4,0.1C416.9,52.9,416.9,52.9,417.1,52.9L417.1,52.9
	z M419.3,47.8c-0.3,0-0.4,0.3-0.4,0.5c0,0.1,0.1,0.1,0.1,0.2c0.2,0,0.3,0,0.4-0.1c0.1-0.1,0.3-0.2,0.3-0.3
	C419.6,47.9,419.5,47.8,419.3,47.8L419.3,47.8z M420.4,49.1c0.2-0.2,0.3-0.4,0.2-0.7c-0.1-0.1-0.3,0-0.5,0c-0.3,0-0.3,0-0.5,0.3
	c-0.1,0.1-0.1,0.2,0,0.3C419.8,49.3,420.1,49.4,420.4,49.1L420.4,49.1z M418.7,51c0.2-0.2,0.4-0.4,0.3-0.7c-0.1-0.1-0.3,0-0.5,0
	c-0.3,0-1,0.2-1.1,0.4c-0.1,0.1-0.1,0.2,0,0.3c0.1,0.1,0.6,0.1,0.8,0.1C418.4,51.1,418.5,51.2,418.7,51L418.7,51z M421.5,64.4
	c0.1,0.1,0.2,0.2,0.2,0.3c-0.2,0.2-0.8,0.1-0.9,0c0-0.1,0-0.1,0-0.2c0-0.1,0.3-0.2,0.3-0.2C421.3,64.3,421.4,64.3,421.5,64.4
	L421.5,64.4z M421.1,63.5c0.1,0.1,0.3,0.2,0.3,0.3c-0.1,0.3-0.6,0.3-0.8,0.2c0-0.1-0.1-0.1,0-0.2c0-0.1,0.2-0.3,0.2-0.3
	C420.8,63.4,420.9,63.4,421.1,63.5L421.1,63.5z M421.6,65.3c0.4,0.1,0.7,0.3,0.7,0.7c-0.1,0.2-0.4,0.1-0.7,0.3
	c-0.3,0.2-1.3,0.3-1.6,0.1c-0.1-0.1-0.2-0.3-0.1-0.4c0.1-0.2,0.7-0.4,0.9-0.5C421.2,65.3,421.2,65.1,421.6,65.3L421.6,65.3z
	 M419.2,71.1c0.1,0,0.1,0,0.2-0.2c0.1-0.2,0.3-0.5,0.1-0.6c-0.1,0-0.3,0-0.5,0c-0.2,0-0.5,0.1-0.5,0.4c0,0.2,0.2,0.5,0.4,0.4
	C419.1,71,419.2,71.1,419.2,71.1L419.2,71.1z M420.1,68c-0.1-0.1-0.9,0-0.8,0.3c0,0.1,0.3,0.2,0.4,0.3c0.2,0.2,0.4,0.4,0.6,0.1
	c0.1-0.2,0.2-0.7,0-0.7C420.3,68,420.2,68,420.1,68L420.1,68z M418.5,68c-0.3-0.1-1.5,0.1-1.6,0.3c-0.1,0.2,0,0.4,0.2,0.5
	c0.3,0.1,0.7,0,1.1,0c0.3,0,0.5,0,0.7-0.1c0.3-0.2,0.3-0.7,0-0.7C418.8,68,418.6,68,418.5,68L418.5,68z M308.1,16.1
	c0,0-0.3-0.1-0.3,0.1c0,0.1,0,0.1,0,0.3c0,0.1,0.1,0.2,0.1,0.2c0.2,0.1,0.4,0,0.6,0c0,0,0.1-0.1,0.1-0.2c0-0.3,0-0.4-0.1-0.4
	C308.4,16.1,308.2,16.1,308.1,16.1L308.1,16.1z M284.2,15.8c0,0-0.5-0.1-0.6,0.1c-0.1,0.1-0.1,0.1-0.1,0.3c0,0.1,0.2,0.2,0.3,0.2
	c0.4,0.1,0.8,0,1.1,0c0.1,0,0.2-0.1,0.2-0.2c0-0.3-0.1-0.4-0.2-0.4C284.8,15.8,284.5,15.8,284.2,15.8L284.2,15.8z M285.6,16.2
	c0,0-0.1,0.4,0,0.4c0.1,0,0.4,0.1,0.5,0.1c0.7,0,0.6-0.4,0.6-0.5c0-0.2-0.3-0.2-0.3-0.3c0,0-0.1-0.1-0.2-0.2c-0.2,0-0.4,0-0.4,0.1
	C285.7,16,285.6,16.1,285.6,16.2L285.6,16.2z M281.5,16.4c0.2,0.1,1-0.1,1.4,0c0.3-0.1,0.3-0.6,0.2-0.6c-0.3,0-1.2,0-1.4,0
	C281.4,15.8,281.5,16.1,281.5,16.4L281.5,16.4z M275.3,15.9c0-0.2-1.1-0.1-1.3,0c-0.1,0.1-0.1,0.4,0,0.4c0.1,0.1,0.3,0.1,0.4,0.1
	c0.5,0,0.6-0.1,0.7-0.1c0.1,0,0.1-0.1,0.1-0.2C275.2,16,275.3,15.9,275.3,15.9L275.3,15.9z M277,15.5c-0.4-0.1-0.8,0.1-1.2,0.2
	c-0.3,0-0.2,0.5,0,0.6c0.1,0.1,0.3,0.1,0.5,0c0.5,0,0.6-0.3,0.9-0.3C277.2,16,277.2,15.6,277,15.5L277,15.5z M298.5,16.4
	c0,0-0.2,0-0.3,0c0,0.1,0,0.1,0,0.2c0,0.1,0.1,0.1,0.1,0.1c0.2,0,0.4,0,0.5,0c0,0,0.1-0.1,0.1-0.1c0-0.2,0-0.2-0.1-0.2
	C298.7,16.4,298.6,16.4,298.5,16.4L298.5,16.4z M295.6,16c0,0-0.6-0.1-0.6,0.1c-0.1,0.1-0.1,0.1-0.1,0.3c0,0.1,0.2,0.2,0.3,0.2
	c0.5,0.1,0.9,0,1.3,0c0.1,0,0.2-0.1,0.2-0.2c0-0.3-0.1-0.4-0.2-0.4C296.2,16,295.9,16,295.6,16L295.6,16z M279.4,16.1
	c0.1,0,0.1-0.2,0.1-0.3c0-0.1-0.3,0-0.5,0c-0.1,0-0.4,0-0.5,0c-0.1,0,0,0.3,0.1,0.3c0,0,0.3,0.2,0.4,0.2
	C279.2,16.3,279.3,16.1,279.4,16.1L279.4,16.1z M289.5,16c-0.1,0-0.8-0.1-0.9,0.1c-0.1,0.1-0.2,0.2-0.2,0.4c0,0.5,1.3,0.4,1.4,0.4
	c0.6-0.1,1-0.1,1.2-0.1c0.1,0,0.4-0.1,0.4-0.2c0-0.2,0-0.4-0.2-0.4C290.7,16,290.1,16,289.5,16L289.5,16z M263.3,15.7
	c0.1,0,0.1-0.2,0.2-0.5c0-0.1-0.5-0.1-0.7-0.1c-0.2,0-0.4,0-0.6,0.1c-0.1,0.1,0,0.3,0.2,0.4C262.6,15.7,263.2,15.8,263.3,15.7
	L263.3,15.7z M263.7,16c0.1,0,0.3,0.1,0.6-0.1c0.1-0.1,0.1-0.4,0-0.4c0,0-0.1-0.1-0.2-0.2c-0.1,0-0.3,0.1-0.4,0.1
	c-0.3,0-0.2,0.2-0.2,0.4C263.5,15.8,263.6,15.9,263.7,16L263.7,16z M265.1,15.9c0,0.1,0.1,0.3,0.5,0.4c0.1,0,0.4-0.2,0.3-0.3
	c0,0,0-0.2,0-0.3c0-0.1-0.3-0.2-0.3-0.2c-0.2-0.2-0.3,0-0.4,0.1C265.1,15.7,265,15.8,265.1,15.9L265.1,15.9z M266.6,16.1
	c0.1,0,0.2-0.1,0.2-0.2c0-0.1,0.2-0.3,0-0.4c-0.1,0-0.2-0.1-0.3-0.1c-0.1,0-0.3,0.1-0.4,0.1c-0.1,0-0.1,0.3,0,0.4
	C266.3,16,266.6,16.1,266.6,16.1L266.6,16.1z M267.9,15.5c-0.3,0-0.5,0.1-0.3,0.4c0.1,0.1,0.2,0.2,0.3,0.2c0.5,0.1,1.1-0.1,1.5-0.1
	c0.3,0,0.2,0.2,0.5,0.2c0.3,0,0.9,0.1,1.3,0.1c0.4,0,0.5-0.2,0.5-0.3s0-0.3-0.4-0.3c-0.4,0-0.4-0.2-0.7-0.2s-0.9-0.1-1.2-0.1
	c-0.1,0-0.3,0-0.4,0C268.8,15.7,268.3,15.5,267.9,15.5L267.9,15.5z M261.7,15.2c-0.4,0-1.2,0-1.6,0c-0.1,0-0.3,0-0.4,0.1
	c-0.2,0.1-0.4,0.4-0.2,0.5c0.3,0,1.9,0,2.2,0c0.1-0.1,0.2,0,0.2-0.1c0-0.1,0.1-0.2,0.1-0.3C261.9,15.2,261.8,15.1,261.7,15.2
	L261.7,15.2z M257.5,15.2c-0.4-0.1-0.9-0.1-1.2-0.1c-0.3,0-0.3,0.3-0.1,0.4c0.1,0.1,0.3,0.1,0.5,0.1c0.5,0,0.6,0,0.9,0
	C257.6,15.7,257.7,15.3,257.5,15.2L257.5,15.2z M254,15.1c-0.2,0-1.5,0-1.5,0c-0.2,0.1,0,0.3,0.3,0.4c0.1,0,0.4,0.1,0.5,0.2
	c0.5,0,0.9,0,1.1,0c0.2,0,0.5-0.3,0.5-0.2c0.1,0,0.6-0.1,0.6-0.2C255.4,15.1,254.1,15.1,254,15.1L254,15.1z M262.8,16.3
	c0.1,0,0.1-0.1,0.1-0.1c0-0.1-0.2-0.1-0.4-0.1c-0.1,0-0.3,0.1-0.3,0.1c-0.1,0,0,0.2,0.1,0.2C262.4,16.4,262.7,16.4,262.8,16.3
	L262.8,16.3z M258.5,15.5c0.1,0,0.1-0.1,0.1-0.1c0-0.1-0.1-0.2-0.3-0.2c-0.1,0-0.3,0-0.3,0.1c-0.1,0-0.1,0.1,0.1,0.2
	C258,15.4,258.4,15.5,258.5,15.5L258.5,15.5z M244.4,15.1C244.4,15.1,244.5,15,244.4,15.1c0-0.2-0.1-0.2-0.3-0.2c-0.1,0-0.3,0-0.3,0
	c-0.1,0-0.1,0.1,0.1,0.1C243.9,15.1,244.3,15.1,244.4,15.1L244.4,15.1z M247.4,14.8c-0.2,0-1.9-0.1-2.3,0.1
	c-0.3,0.1-0.6,0.2-0.5,0.4c0,0.2,0.7,0.3,1.1,0.3c0.5,0.2,1.8,0,2.2,0c1.2,0,3-0.1,3.8-0.1c0.3,0,0.3-0.1,0.2-0.2
	c0-0.2-0.2-0.3-0.5-0.3C250.2,15,248.7,14.8,247.4,14.8L247.4,14.8z M215,14.8c2.9-0.1,4.1,0.3,6.3,0.3c1.9,0,3.3,0,5.3,0.1
	c5.5,0.5,10.9,0.2,16.4,0.1c0.2,0,0.4,0,0.4-0.1c0.1-0.2,0.2-0.5-0.2-0.5c-3.5,0.2-7.1,0-10.6-0.1c-3.1-0.1-6.3-0.2-9.4-0.2
	c-2.6-0.1-4.7-0.2-7.3-0.3c-0.5,0-0.6,0.1-0.8,0.3C215,14.6,214.8,14.8,215,14.8L215,14.8z M205,15.7c0,0.2,0.3,0.2,0.5,0.3
	c0.3,0.1,3.7,0.1,3.9,0.1s5.5,0.3,5.6,0.3s0.6,0,0.8-0.1s0.2-0.4-0.2-0.4c-0.9-0.1-2.3-0.1-3.3-0.2c-2.5-0.2-6-0.1-6.3-0.1
	C205.5,15.5,205.1,15.5,205,15.7L205,15.7z M216.2,16c0,0.2,0,0.2,0.1,0.3c0,0,0.5,0,0.7,0c0.9,0.1,3.4,0.1,3.5,0.1
	c0.2,0,5.5,0.3,5.6,0.3s0.6,0,0.8-0.1c0.1,0,5.2,0.2,6.3,0c0.1,0,0.2-0.1,0.1-0.1s-1,0-1.2,0c-0.4-0.3-0.5,0-1.1-0.3
	c-0.1,0-4.1,0-4.3,0c-0.6-0.1-1.5-0.1-2.3-0.3c-0.4-0.1-0.5-0.3-1-0.3c-0.3,0-0.6,0.4-0.9,0.4c-0.3,0-0.5-0.1-0.8-0.1
	c-2,0-4,0.1-4.3,0c-0.2,0-0.8,0-0.9,0C216.4,16,216.3,15.9,216.2,16L216.2,16z M195.9,15.2c-0.1-0.1-0.5,0-0.6,0
	c-0.1,0-0.1,0.3-0.1,0.4c0.1,0.1,0.2,0.2,0.4,0.2c0.2,0,0.3-0.1,0.4-0.3C196,15.4,196,15.3,195.9,15.2L195.9,15.2z M198.8,15.8
	c0.1,0.1,0.6,0.1,0.7,0c0.2,0,0.2-0.3,0.1-0.5c-0.1-0.1-0.3-0.2-0.4-0.3c-0.3,0-0.4,0.1-0.4,0.4C198.7,15.6,198.8,15.7,198.8,15.8
	L198.8,15.8z M197.7,15.1c-0.2-0.2-0.2-0.1-0.5,0c-0.1,0-0.3,0-0.4,0c-0.2,0-0.3,0.4-0.1,0.5c0.1,0.1,0.4,0.2,0.6,0.3
	c0.3,0,0.5-0.1,0.6-0.4C197.9,15.3,197.8,15.2,197.7,15.1L197.7,15.1z M181.9,15c-1.2,0-2.6,0-3.8,0c-0.4,0-1.3,0.6-0.4,0.6
	c1,0,3.7,0,4.6,0C182.5,15.4,182.5,15,181.9,15L181.9,15z M189.1,15c-1.3,0-3,0.1-4.3,0.1c-0.3,0-0.4,0.2-0.4,0.4
	c0,0.1-0.1,0.2,0.2,0.2c0.8,0,2.6,0.1,3.9,0.1c0.4,0,1.8,0.2,2.3,0c0.4-0.1,1.1-0.1,1.1-0.3c0-0.2-0.3-0.3-0.5-0.4
	C191.1,15,189.3,15,189.1,15L189.1,15z M183.1,14.9c-0.5,0-0.5,0.5-0.2,0.7c0.2,0.2,0.3,0.1,0.5,0c0.2-0.1,0.7-0.2,0.5-0.5
	C183.7,14.9,183.4,14.9,183.1,14.9L183.1,14.9z M382.5,23.8c0.3,0.2,0.7,0,1.2,0c0.2,0,0.1-0.2,0.3-0.3c0.1,0,0.3,0,0.4-0.1
	c0.1-0.1,0.1-0.3,0.1-0.3c-0.4,0-0.9,0-1.2,0c-0.2,0-0.3,0.2-0.3,0.3C382.8,23.6,382.6,23.6,382.5,23.8L382.5,23.8z M366.3,22.3
	c-0.2,0-0.4,0-0.6,0c-0.3,0.1-0.2,0.4,0,0.5c0.2,0.1,0.1,0.1,0.5,0.1c0.4,0,0.5-0.2,0.4-0.4C366.5,22.4,366.5,22.3,366.3,22.3
	L366.3,22.3z M367.5,22.5c0,0.1,0.3,0.2,0.5,0.2c0.6,0,0.8,0.3,1,0.2c0.5,0,1.9-0.1,2.3,0.1c0.3,0.1,0.5,0.3,0.9,0.2
	c0.2-0.1,0.3-0.4,0-0.5c-0.6-0.2-1.3,0-2-0.2c-0.4-0.1-0.6-0.2-1.1-0.3C368.7,22.2,367.4,22.2,367.5,22.5L367.5,22.5z M314.3,20.2
	c-0.8,0-0.2,0.7,0.3,0.8c1,0.3,9.6,0.5,10.9,0.5c1,0,2.1,0,3,0.1c1.2,0.1,2,0.3,3.3,0.4c1.4,0,3.7,0.3,5.6,0.3c2.1,0,4.3-0.1,6.4,0
	c4.4,0.1,8.8,0.3,13.1,0.1c2.2-0.1,1.7,0.3,7.4,0.3c0.3,0,0.5-0.2,0.3-0.3c-2.7-0.1-6.6-0.5-7.9-0.5c-3.4-0.2-8.2,0.1-11.4-0.4
	c-0.3,0-0.7-0.1-1.2-0.2c-0.5,0-1.1,0.2-1.6,0c-0.9-0.4-1.5-0.3-2-0.2c-0.8,0.3-0.8,0.8-1.9,0.2c-0.6-0.3-1.9,0.2-2.6,0.2
	c-0.9,0-2.3-0.3-4.1-0.5c-2-0.2-4.6-0.1-5.6-0.3c-0.6-0.1-1.5-0.5-2.1-0.4c-0.4,0-0.7,0.2-1.1,0.3C321.7,21,316.6,20.3,314.3,20.2
	L314.3,20.2z M351.4,99c-0.1-0.1-0.2,0-0.3,0c-0.1,0-0.2,0-0.3,0c-0.1,0-0.1,0.3,0,0.4c0.1,0.1,0.3,0.1,0.4,0.2
	c0.2,0,0.4-0.1,0.4-0.3C351.5,99.2,351.5,99.1,351.4,99L351.4,99z M353.9,99c-0.4-0.1-0.4,0-0.8,0.1c-0.2,0.1-0.5,0.1-0.7,0.1
	c-0.3,0.1-0.2,0.4,0.1,0.5c0.3,0.1,0.7,0.1,1.1,0.1c0.6-0.1,0.8-0.3,0.7-0.6C354.3,99.2,354.1,99.1,353.9,99L353.9,99z M278.1,100.3
	c-0.1,0.2,0.6,0.1,0.8,0.1c2.2,0,4.4,0,6.6,0c2.3-0.1,4.9-0.3,7.2-0.2c2,0.1,4.1,0.1,6.2,0.2c1.6,0,4.5,0.2,6-0.1
	c1-0.2,1.2-0.5,2.1-0.6c1-0.1,1.4,0.2,2.3,0.3c1,0,1.8-0.5,2.8-0.5c1.4,0,2,0.4,4.1,0.5c2.7,0,2.5-0.5,3.5-0.5
	c0.7,0,0.8,0.3,1.4,0.3c0.5,0,0.4-0.3,1.2-0.4c0.2,0,0.8,0.4,1.2,0.4c0.3,0,0.6,0,1.2,0c2,0,1.2-0.3,2.6-0.6c1-0.3,3.1,0.3,4.1,0.4
	c1.2,0.2,4.7-0.1,6.1-0.2c2.5-0.1,5.1,0.5,7.6,0.3c0.8-0.1,2,0,2.7-0.1c0.8-0.1,0.4-0.3,1.1-0.2c0.3,0,0.5,0,0.7,0
	c0.4-0.1,0.4-0.4,0.2-0.5c-0.3-0.2-6.3-0.1-7.6-0.1c-2.8-0.1-5.5-0.2-8.3-0.4c-4.8,0-9.6,0-14.5,0c0,0-8.3,0.2-11.7,0.3
	c-0.8,0-1.2,0.1-2,0.2c-0.8,0.1-2.1,0.1-2.5,0.1c-0.6-0.1-0.9-0.3-1.4-0.5c-0.5-0.2-7.7,0-8.9,0c-1,0-2.6-0.1-3.3,0.1
	c-0.7,0.2-0.3,0.5-0.6,0.6c-0.6,0.3-1.7,0.1-2.4-0.2c-0.5-0.2-1-0.3-1.5-0.2c-0.7,0.1-1.1,0.7-2.1,0.7c-0.5,0-0.6-0.2-1-0.2
	c-0.4,0-0.8,0.1-1.3,0.2c-0.3,0-0.8,0.1-1.4,0C278.7,99.4,278.3,100,278.1,100.3L278.1,100.3z M7.5,72.9c-0.3,0.2-0.4,0.3,0.1,0.4
	c0.2,0.1,0.4,0,0.4-0.1c0.3-0.1,0.4-0.4,0.1-0.5C7.9,72.7,7.7,72.8,7.5,72.9L7.5,72.9z M11,67.8c-0.2,0.2-0.3,0.3,0.1,0.4
	c0.2,0.1,0.3,0,0.3-0.1c0.2-0.1,0.3-0.4,0.1-0.5C11.4,67.6,11.1,67.7,11,67.8L11,67.8z M21,43.4c0.5,0.1,0.1-0.4-0.2-0.4
	c-0.5,0-1-0.1-1.4-0.1c-0.5,0-1,0.2-1,0.5c-0.1,0.6,0.7,0.2,0.7,0.2C19.6,43.3,20.6,43.4,21,43.4L21,43.4z M15,43.1
	c0,0.3,0.8,0.5,1,0c0.2-0.3-0.6-0.5-0.9-0.3C15.1,42.9,15,43.1,15,43.1L15,43.1z M23.4,28.1c0,0.2,0.6,0.2,1,0
	c0.3-0.1,0.3-0.7,0.1-0.8c-0.1-0.1-0.7,0-0.8,0.1C23.6,27.5,23.5,27.8,23.4,28.1L23.4,28.1z M25.9,30.4c-0.2,0-0.3,0-0.5,0
	c-0.2,0-0.6,0.3-0.7,0.4c0,0.1,0,0.2,0.1,0.3c0.2,0.1,0.3,0.2,0.6,0.2c0.6,0,0.5-0.5,1.4-0.3c0.1,0,0.1-0.2,0-0.3
	c0,0-0.1-0.1-0.1-0.1C26.5,30.7,25.9,30.4,25.9,30.4L25.9,30.4z M23.1,31.6c0.4,0,0.7-0.4,0.4-0.8c-0.1-0.2-0.6-0.1-0.7-0.1
	c-0.2,0-0.3,0.3-0.3,0.4c0,0.1-0.1,0.3,0,0.4C22.7,31.6,22.9,31.6,23.1,31.6L23.1,31.6z M6.1,93.5c0,0,0-0.3-0.5-0.3
	c-0.4,0-0.3,0.4-0.2,0.5s0.3,0.1,0.5,0C6.2,93.6,6.1,93.5,6.1,93.5L6.1,93.5z M9.8,99c0,0-0.2-0.3-0.6-0.2s-0.1,0.5,0,0.5
	c0.1,0.1,0.3,0,0.5-0.2C9.9,99.1,9.8,99,9.8,99L9.8,99z M16.7,108.1c-0.5,0-1,0.1-1.4,0.1c-0.6,0-1.3-0.1-1.3,0
	c-0.2,0.3,0.2,0.7,0.5,0.8c0.6,0.2,1.9-0.1,2.2-0.4C16.8,108.4,16.9,108.2,16.7,108.1L16.7,108.1z M53.8,105.8
	c-0.5,0.1-2.5,0.1-2.6,0.2c-0.2,0.1-0.3,0.5,0,0.6c0.3,0.2,2.3-0.1,3.1-0.4c0.2-0.1,0.6-0.3,0.4-0.5
	C54.4,105.5,54.1,105.7,53.8,105.8L53.8,105.8z M83.1,107.9c0.4,0,0.6,0,0.6-0.3c0-0.3-0.1-0.3-0.6-0.3c-0.4,0-0.4,0.1-0.4,0.3
	C82.7,107.7,82.7,107.9,83.1,107.9L83.1,107.9z M81.8,107.9c0.5,0,0.8,0,0.8-0.3c0-0.4-0.2-0.3-0.8-0.3c-0.5,0-0.8-0.2-0.8,0.3
	C81,107.9,81.2,107.9,81.8,107.9L81.8,107.9z M80.2,107.9c0.3,0,0.3,0,0.3-0.3c0-0.2,0-0.3-0.3-0.3c-0.3,0-0.2,0-0.2,0.3
	C80,107.7,79.9,107.9,80.2,107.9L80.2,107.9z M78.2,107.8c0.5,0,0.6,0,0.6-0.3c0-0.3-0.1-0.3-0.6-0.3c-0.4,0-0.6,0-0.6,0.2
	C77.6,107.9,77.7,107.8,78.2,107.8L78.2,107.8z M75.9,107.7c0.1,0,0.3,0,0.4,0c0.2,0,0.3,0,0.3,0c0.1,0,0.1-0.3,0.1-0.3
	c0,0-0.1-0.1-0.2-0.1c-0.4,0-0.7,0-1.1,0c-0.2,0-0.4-0.1-0.4,0.2C75.1,107.6,75.7,107.7,75.9,107.7L75.9,107.7z M72.1,107.6
	c0.5,0,0.9,0,1.2,0c0.3,0,0.7,0,1.1,0c0.2,0,0.3,0,0.3-0.1c0-0.2-0.1-0.1-0.3-0.2c-0.8-0.1-1.6-0.1-2.3,0c-0.3,0-0.5,0-0.5,0.2
	C71.6,107.6,71.8,107.6,72.1,107.6L72.1,107.6z M68.5,107.9c0.3,0,0.6,0,0.9,0c0.1,0,1,0,1.2-0.2c0.2-0.2,0.4-0.1,0.6-0.2
	c0.2-0.2,0-0.2-0.2-0.2c-0.5,0-1.4,0.1-1.6,0.1c-0.3,0-0.7,0-1,0c-0.5,0-0.5-0.1-0.5,0.3C67.8,107.8,68,107.9,68.5,107.9L68.5,107.9
	z M66.8,107.8c0.6,0.1,0.5,0,0.5-0.3c0-0.4-0.1-0.3-0.5-0.3c-0.3,0-0.4-0.1-0.4,0.3C66.4,107.7,66.4,107.7,66.8,107.8L66.8,107.8z
	 M64.9,107.5c0.1,0.1,0.3,0.2,0.7,0.2c0.2,0,0.3-0.2,0.2-0.4c0-0.2-0.1-0.3-0.4-0.4c-0.2-0.1-0.4-0.1-0.5,0
	C64.8,107.1,64.7,107.3,64.9,107.5z"/>
<g>
	<path class="st1" d="M370.6,49.9c1.6,0,3,1.3,3,3c0,1.7-1.3,3-3,3c-1.6,0-3-1.3-3-3C367.6,51.3,369,49.9,370.6,49.9L370.6,49.9z
		 M370.6,50.4c-1.3,0-2.4,1.1-2.4,2.5c0,1.4,1.1,2.6,2.4,2.6c1.3,0,2.4-1.1,2.4-2.6C373.1,51.6,372,50.4,370.6,50.4
		C370.6,50.4,370.6,50.4,370.6,50.4z M370.1,54.7h-0.5v-3.4c0.3,0,0.5-0.1,1-0.1c0.5,0,0.9,0.1,1,0.3c0.2,0.2,0.3,0.4,0.3,0.7
		c0,0.4-0.3,0.7-0.7,0.8v0c0.3,0.1,0.5,0.3,0.6,0.8c0.1,0.5,0.2,0.7,0.2,0.8h-0.6c-0.1-0.1-0.2-0.4-0.2-0.9
		c-0.1-0.4-0.3-0.6-0.7-0.6H370L370.1,54.7L370.1,54.7z M370.1,52.9h0.4c0.4,0,0.8-0.2,0.8-0.6c0-0.3-0.2-0.6-0.8-0.6
		c-0.2,0-0.3,0-0.4,0V52.9z"/>
</g>
</svg>
