<?xml version="1.0" encoding="utf-8"?>
<!-- Generator: Adobe Illustrator 24.0.1, SVG Export Plug-In . SVG Version: 6.00 Build 0)  -->
<svg version="1.1" id="Layer_1" xmlns="http://www.w3.org/2000/svg" xmlns:xlink="http://www.w3.org/1999/xlink" x="0px" y="0px"
	 viewBox="0 0 460.5 72.8" style="enable-background:new 0 0 460.5 72.8;" xml:space="preserve">
<style type="text/css">
	.st0{fill-rule:evenodd;clip-rule:evenodd;fill:#B5B6B6;}
	.st1{fill-rule:evenodd;clip-rule:evenodd;fill:#F7921E;}
	.st2{fill:#4E4E4E;}
	.st3{fill:#F7921E;}
	.st4{fill:#B5B6B6;}
</style>
<g>
	<g>
		<path class="st0" d="M8.4,15.4h1.1l64.8-0.1l0.6-1c3.4-5.6,6.3-10.6,8.2-13.7H0l7.9,13.8L8.4,15.4z"/>
		<polygon class="st1" points="31.6,26.1 14.4,26.1 14.9,27.1 40.8,71.9 49.4,57.5 50,56.5 		"/>
		<path class="st1" d="M44,26.1c0,0,7.2,12.1,11.8,20.1l0.5-0.9c1.7-3,7-12,10.7-18.2l0.6-1H44z"/>
	</g>
	<g>
		<g>
			<path class="st2" d="M110.6,72.8v-9.9h1v9.9H110.6z"/>
			<path class="st2" d="M118.3,64.7v8.1h-1v-9.9h0.8l6.6,8.2v-8.2h1v9.9h-0.9L118.3,64.7z"/>
			<path class="st2" d="M132.3,64.7v8.1h-1v-9.9h0.8l6.6,8.2v-8.2h1v9.9h-0.9L132.3,64.7z"/>
			<path class="st2" d="M149.4,72.8c-0.7,0-1.3-0.1-1.9-0.4c-0.6-0.3-1.1-0.7-1.5-1.1s-0.7-1-0.9-1.6c-0.2-0.6-0.3-1.2-0.3-1.8
				c0-0.7,0.1-1.3,0.4-1.9c0.2-0.6,0.6-1.1,1-1.6c0.4-0.5,0.9-0.8,1.5-1.1c0.6-0.3,1.2-0.4,1.8-0.4c0.7,0,1.3,0.2,1.9,0.4
				c0.6,0.3,1.1,0.7,1.5,1.1c0.4,0.5,0.7,1,0.9,1.6c0.2,0.6,0.3,1.2,0.3,1.8c0,0.7-0.1,1.3-0.4,1.9c-0.2,0.6-0.6,1.1-1,1.6
				c-0.4,0.5-0.9,0.8-1.5,1.1C150.6,72.7,150,72.8,149.4,72.8z M145.7,67.8c0,0.5,0.1,1.1,0.3,1.6c0.2,0.5,0.4,0.9,0.8,1.3
				c0.3,0.4,0.7,0.7,1.2,0.9c0.4,0.2,0.9,0.3,1.5,0.3c0.6,0,1.1-0.1,1.5-0.4c0.5-0.2,0.8-0.6,1.2-0.9s0.6-0.8,0.7-1.3
				c0.2-0.5,0.3-1,0.3-1.5c0-0.5-0.1-1.1-0.3-1.6s-0.4-0.9-0.8-1.3c-0.3-0.4-0.7-0.7-1.2-0.9c-0.4-0.2-0.9-0.3-1.5-0.3
				c-0.6,0-1.1,0.1-1.5,0.4c-0.5,0.2-0.8,0.6-1.2,0.9s-0.6,0.8-0.7,1.3S145.7,67.3,145.7,67.8z"/>
			<path class="st2" d="M158.7,62.9l3.5,8.7l3.5-8.7h1l-4.1,9.9h-0.9l-4.1-9.9H158.7z"/>
			<path class="st2" d="M173.7,62.9h0.8l4.1,9.9h-1l-1.3-3.1h-4.4l-1.3,3.1h-1.1L173.7,62.9z M176.1,68.9l-2-4.9l-2,4.9H176.1z"/>
			<path class="st2" d="M189.4,63.7h-3.5v9h-1v-9h-3.5v-0.9h8L189.4,63.7L189.4,63.7z"/>
			<path class="st2" d="M194.2,72.8v-9.9h1v9.9H194.2z"/>
			<path class="st2" d="M200.9,62.9l3.5,8.7l3.5-8.7h1l-4.1,9.9H204l-4.1-9.9H200.9z"/>
			<path class="st2" d="M220.3,71.9v0.9h-6.6v-9.9h6.5v0.9h-5.6v3.6h4.8v0.8h-4.8v3.8L220.3,71.9L220.3,71.9z"/>
			<path class="st2" d="M231.6,67.7c0-0.6,0.1-1.2,0.3-1.8c0.2-0.6,0.5-1.1,0.9-1.6c0.4-0.5,0.9-0.8,1.5-1.1c0.6-0.3,1.3-0.4,2-0.4
				c0.9,0,1.6,0.2,2.3,0.6c0.6,0.4,1.1,0.9,1.4,1.6l-0.8,0.5c-0.2-0.3-0.4-0.6-0.6-0.8s-0.5-0.4-0.7-0.5c-0.3-0.1-0.5-0.2-0.8-0.3
				c-0.3-0.1-0.6-0.1-0.8-0.1c-0.6,0-1.1,0.1-1.6,0.4c-0.5,0.2-0.8,0.6-1.1,0.9s-0.6,0.8-0.7,1.3c-0.2,0.5-0.2,1-0.2,1.5
				c0,0.6,0.1,1.1,0.3,1.6c0.2,0.5,0.4,0.9,0.8,1.3c0.3,0.4,0.7,0.7,1.2,0.9s0.9,0.3,1.5,0.3c0.3,0,0.6,0,0.9-0.1
				c0.3-0.1,0.6-0.2,0.9-0.3c0.3-0.1,0.5-0.3,0.8-0.6c0.2-0.2,0.4-0.5,0.6-0.8l0.8,0.4c-0.2,0.4-0.4,0.7-0.7,1
				c-0.3,0.3-0.6,0.5-1,0.7s-0.7,0.3-1.1,0.4c-0.4,0.1-0.8,0.2-1.2,0.2c-0.7,0-1.3-0.2-1.9-0.4c-0.6-0.3-1.1-0.7-1.5-1.2
				s-0.7-1-1-1.6S231.6,68.4,231.6,67.7z"/>
			<path class="st2" d="M249,72.8c-0.7,0-1.3-0.1-1.9-0.4s-1.1-0.7-1.5-1.1s-0.7-1-1-1.6c-0.2-0.6-0.3-1.2-0.3-1.8
				c0-0.7,0.1-1.3,0.4-1.9c0.2-0.6,0.6-1.1,1-1.6c0.4-0.5,0.9-0.8,1.5-1.1c0.6-0.3,1.2-0.4,1.8-0.4c0.7,0,1.3,0.2,1.9,0.4
				s1.1,0.7,1.5,1.1c0.4,0.5,0.7,1,0.9,1.6c0.2,0.6,0.3,1.2,0.3,1.8c0,0.7-0.1,1.3-0.4,1.9c-0.2,0.6-0.6,1.1-1,1.6
				c-0.4,0.5-0.9,0.8-1.5,1.1C250.2,72.7,249.6,72.8,249,72.8z M245.3,67.8c0,0.5,0.1,1.1,0.3,1.6s0.4,0.9,0.8,1.3
				c0.3,0.4,0.7,0.7,1.2,0.9c0.5,0.2,0.9,0.3,1.5,0.3c0.6,0,1.1-0.1,1.5-0.4c0.5-0.2,0.8-0.6,1.2-0.9s0.6-0.8,0.7-1.3
				c0.2-0.5,0.3-1,0.3-1.5c0-0.5-0.1-1.1-0.3-1.6c-0.2-0.5-0.4-0.9-0.8-1.3c-0.3-0.4-0.7-0.7-1.2-0.9c-0.5-0.2-0.9-0.3-1.5-0.3
				c-0.6,0-1.1,0.1-1.5,0.4c-0.5,0.2-0.8,0.6-1.2,0.9s-0.6,0.8-0.7,1.3C245.4,66.8,245.3,67.3,245.3,67.8z"/>
			<path class="st2" d="M267.5,72.8v-8.1l-3.6,6.3h-0.6l-3.6-6.3v8.1h-1v-9.9h1l3.9,6.8l3.9-6.8h1v9.9H267.5z"/>
			<path class="st2" d="M274.2,72.8v-9.9h4.1c0.4,0,0.8,0.1,1.2,0.3s0.7,0.4,0.9,0.7c0.3,0.3,0.5,0.6,0.6,1c0.1,0.4,0.2,0.8,0.2,1.1
				c0,0.4-0.1,0.8-0.2,1.2c-0.1,0.4-0.3,0.7-0.6,1c-0.3,0.3-0.5,0.5-0.9,0.7c-0.4,0.2-0.7,0.3-1.2,0.3h-3.2v3.7
				C275.2,72.8,274.2,72.8,274.2,72.8z M275.2,68.2h3.2c0.3,0,0.5-0.1,0.8-0.2c0.2-0.1,0.4-0.3,0.6-0.5c0.2-0.2,0.3-0.4,0.4-0.7
				c0.1-0.3,0.1-0.6,0.1-0.9c0-0.3,0-0.6-0.2-0.9c-0.1-0.3-0.3-0.5-0.4-0.7c-0.2-0.2-0.4-0.4-0.6-0.5s-0.5-0.2-0.8-0.2h-3.1
				L275.2,68.2L275.2,68.2z"/>
			<path class="st2" d="M290.2,71.9c0.6,0,1.1-0.1,1.5-0.4c0.4-0.2,0.7-0.6,1-0.9c0.3-0.4,0.4-0.8,0.5-1.3c0.1-0.5,0.1-1,0.1-1.5v-5
				h1v5c0,0.7-0.1,1.3-0.2,1.9c-0.1,0.6-0.4,1.1-0.7,1.6c-0.3,0.4-0.8,0.8-1.3,1.1c-0.5,0.3-1.2,0.4-1.9,0.4c-0.8,0-1.4-0.1-2-0.4
				c-0.5-0.3-1-0.7-1.3-1.1c-0.3-0.5-0.6-1-0.7-1.6c-0.1-0.6-0.2-1.2-0.2-1.8v-5h1v5c0,0.5,0,1,0.1,1.5c0.1,0.5,0.3,0.9,0.5,1.3
				c0.2,0.4,0.6,0.7,1,0.9S289.6,71.9,290.2,71.9z"/>
			<path class="st2" d="M307,63.7h-3.5v9h-1v-9h-3.5v-0.9h8L307,63.7L307,63.7z"/>
			<path class="st2" d="M318.4,71.9v0.9h-6.6v-9.9h6.5v0.9h-5.5v3.6h4.8v0.8h-4.8v3.8L318.4,71.9L318.4,71.9z"/>
			<path class="st2" d="M323.5,72.8v-9.9h4.2c0.4,0,0.8,0.1,1.2,0.3s0.7,0.4,0.9,0.7c0.3,0.3,0.5,0.6,0.6,1c0.1,0.4,0.2,0.8,0.2,1.1
				c0,0.4,0,0.7-0.2,1s-0.3,0.6-0.5,0.9c-0.2,0.3-0.4,0.5-0.7,0.7c-0.3,0.2-0.6,0.3-0.9,0.4l2.4,3.8h-1.1l-2.3-3.7h-2.9v3.7
				C324.5,72.8,323.5,72.8,323.5,72.8z M324.5,68.2h3.2c0.3,0,0.5-0.1,0.8-0.2c0.2-0.1,0.4-0.3,0.6-0.5c0.2-0.2,0.3-0.5,0.4-0.7
				c0.1-0.3,0.1-0.6,0.1-0.9s0-0.6-0.2-0.9c-0.1-0.3-0.3-0.5-0.4-0.7c-0.2-0.2-0.4-0.4-0.6-0.5c-0.3-0.1-0.5-0.2-0.8-0.2h-3.1
				L324.5,68.2L324.5,68.2z"/>
			<path class="st2" d="M342.7,72.8v-9.9h6.5v0.9h-5.5v3.6h4.7v0.8h-4.7v4.6C343.7,72.8,342.7,72.8,342.7,72.8z"/>
			<path class="st2" d="M358.2,71.9c0.6,0,1.1-0.1,1.5-0.4c0.4-0.2,0.7-0.6,1-0.9c0.3-0.4,0.4-0.8,0.5-1.3c0.1-0.5,0.1-1,0.1-1.5v-5
				h1v5c0,0.7-0.1,1.3-0.2,1.9c-0.1,0.6-0.4,1.1-0.7,1.6c-0.3,0.4-0.8,0.8-1.3,1.1c-0.5,0.3-1.2,0.4-1.9,0.4c-0.8,0-1.4-0.1-2-0.4
				c-0.5-0.3-1-0.7-1.3-1.1c-0.3-0.5-0.6-1-0.7-1.6c-0.1-0.6-0.2-1.2-0.2-1.8v-5h1v5c0,0.5,0,1,0.1,1.5c0.1,0.5,0.3,0.9,0.5,1.3
				c0.2,0.4,0.6,0.7,1,0.9S357.6,71.9,358.2,71.9z"/>
			<path class="st2" d="M368,72.8v-9.9h4.2c0.4,0,0.8,0.1,1.2,0.3s0.7,0.4,0.9,0.7c0.3,0.3,0.5,0.6,0.6,1c0.1,0.4,0.2,0.8,0.2,1.1
				c0,0.4,0,0.7-0.2,1s-0.3,0.6-0.5,0.9c-0.2,0.3-0.4,0.5-0.7,0.7c-0.3,0.2-0.6,0.3-0.9,0.4l2.4,3.8h-1.1l-2.3-3.7H369v3.7
				C369,72.8,368,72.8,368,72.8z M369,68.2h3.2c0.3,0,0.5-0.1,0.8-0.2c0.2-0.1,0.4-0.3,0.6-0.5c0.2-0.2,0.3-0.5,0.4-0.7
				c0.1-0.3,0.1-0.6,0.1-0.9s0-0.6-0.2-0.9c-0.1-0.3-0.3-0.5-0.4-0.7c-0.2-0.2-0.4-0.4-0.6-0.5c-0.3-0.1-0.5-0.2-0.8-0.2H369
				L369,68.2L369,68.2z"/>
			<path class="st2" d="M381.4,64.7v8.1h-1v-9.9h0.8l6.5,8.2v-8.2h1v9.9h-0.9L381.4,64.7z"/>
			<path class="st2" d="M394.4,72.8v-9.9h1v9.9H394.4z"/>
			<path class="st2" d="M408.2,63.7h-3.5v9h-1v-9h-3.5v-0.9h8L408.2,63.7L408.2,63.7z"/>
			<path class="st2" d="M416.9,71.9c0.6,0,1.1-0.1,1.5-0.4c0.4-0.2,0.7-0.6,1-0.9c0.3-0.4,0.4-0.8,0.5-1.3c0.1-0.5,0.1-1,0.1-1.5v-5
				h1v5c0,0.7-0.1,1.3-0.2,1.9c-0.1,0.6-0.4,1.1-0.7,1.6c-0.3,0.4-0.8,0.8-1.3,1.1c-0.5,0.3-1.2,0.4-1.9,0.4c-0.8,0-1.4-0.1-2-0.4
				c-0.5-0.3-1-0.7-1.3-1.1c-0.3-0.5-0.6-1-0.7-1.6c-0.1-0.6-0.2-1.2-0.2-1.8v-5h1v5c0,0.5,0,1,0.1,1.5c0.1,0.5,0.3,0.9,0.5,1.3
				c0.2,0.4,0.6,0.7,1,0.9S416.3,71.9,416.9,71.9z"/>
			<path class="st2" d="M426.7,72.8v-9.9h4.2c0.4,0,0.8,0.1,1.2,0.3s0.7,0.4,0.9,0.7c0.3,0.3,0.5,0.6,0.6,1c0.1,0.4,0.2,0.8,0.2,1.1
				c0,0.4,0,0.7-0.2,1s-0.3,0.6-0.5,0.9c-0.2,0.3-0.4,0.5-0.7,0.7c-0.3,0.2-0.6,0.3-0.9,0.4l2.4,3.8H433l-2.3-3.6h-2.9v3.6H426.7z
				 M427.7,68.2h3.2c0.3,0,0.5-0.1,0.8-0.2c0.2-0.1,0.4-0.3,0.6-0.5c0.2-0.2,0.3-0.5,0.4-0.7c0.1-0.3,0.1-0.6,0.1-0.9s0-0.6-0.2-0.9
				c-0.1-0.3-0.3-0.5-0.4-0.7c-0.2-0.2-0.4-0.4-0.6-0.5c-0.3-0.1-0.5-0.2-0.8-0.2h-3.1L427.7,68.2L427.7,68.2z"/>
			<path class="st2" d="M445.8,71.9v0.9h-6.6v-9.9h6.5v0.9h-5.5v3.6h4.8v0.8h-4.8v3.8L445.8,71.9L445.8,71.9z"/>
		</g>
		<g>
			<path class="st3" d="M114.3,49.2h-6.8L89.8,0h10.3l10.7,32.8L121.6,0h10.2L114.3,49.2z"/>
			<path class="st3" d="M137.2,33.3c0.3,2.7,1.4,4.8,3.2,6.3s4.2,2.3,7.1,2.3c1.9,0,3.7-0.4,5.2-1.2c1.5-0.8,2.8-2,3.7-3.4h9.3
				c-1.6,4-3.9,7.2-7.1,9.4c-3.1,2.2-6.8,3.4-10.9,3.4c-2.8,0-5.3-0.5-7.6-1.5c-2.3-1-4.4-2.4-6.3-4.3c-1.8-1.8-3.1-3.9-4.1-6.3
				s-1.4-4.9-1.4-7.4c0-2.6,0.4-5,1.3-7.3c0.9-2.3,2.2-4.3,3.9-6.2c1.9-2,4-3.5,6.4-4.6s4.9-1.6,7.4-1.6c3.2,0,6.2,0.7,9,2.2
				s5.2,3.5,7.1,6.2c1.2,1.6,2.1,3.4,2.6,5.4c0.6,2,0.9,4.3,0.9,6.8c0,0.2,0,0.5,0,0.9c0,0.4,0,0.7,0,0.9L137.2,33.3L137.2,33.3z
				 M157.7,26.5c-0.7-2.5-2-4.4-3.7-5.7c-1.7-1.3-3.9-1.9-6.6-1.9c-2.3,0-4.4,0.7-6.2,2.1c-1.8,1.4-3.1,3.2-3.7,5.5L157.7,26.5
				L157.7,26.5z"/>
			<path class="st3" d="M189.7,19.6c-3.4,0.3-5.7,1.2-7,2.6s-2,4.2-2,8v18.9h-8.6V12h8.1v4.3c1.3-1.7,2.7-2.9,4.3-3.7
				s3.3-1.2,5.3-1.2L189.7,19.6L189.7,19.6z"/>
			<path class="st3" d="M198.8,36.8v0.5c0,1.6,0.4,3,1.3,4s1.9,1.5,3.2,1.5c1.3,0,2.3-0.4,3.1-1.2c0.8-0.8,1.2-1.7,1.2-2.9
				c0-1.1-0.3-2-0.9-2.7s-1.6-1.4-3.1-2.1c-0.9-0.4-2.1-0.9-3.8-1.6c-1.7-0.7-2.7-1.2-3.2-1.6c-1.4-1.1-2.4-2.4-3-3.8
				c-0.6-1.4-1-3-1-4.7c0-3.1,1.1-5.8,3.3-7.9c2.2-2.2,4.9-3.2,8-3.2c3.3,0,5.9,1,7.9,2.9c1.9,1.9,3,4.6,3.2,8h-7.8v-0.2
				c0-1.2-0.3-2.1-0.9-2.8s-1.5-1-2.6-1c-1,0-1.8,0.3-2.4,1c-0.6,0.7-1,1.5-1,2.5c0,1.6,1.7,3.1,5,4.5c0.9,0.4,1.6,0.6,2,0.8
				c3.2,1.4,5.4,3,6.6,4.6c1.2,1.7,1.8,3.9,1.8,6.7c0,3.5-1.2,6.3-3.5,8.6c-2.3,2.3-5.3,3.4-8.9,3.4c-3.6,0-6.5-1.2-8.7-3.6
				s-3.4-5.6-3.6-9.7L198.8,36.8z"/>
			<path class="st3" d="M250,49.2v-4.6c-1,1.8-2.5,3.2-4.4,4.1c-1.9,0.9-4.3,1.3-7.2,1.3c-5.5,0-10.1-1.9-13.8-5.6s-5.5-8.4-5.5-14
				c0-2.6,0.5-5.1,1.4-7.4s2.2-4.4,3.9-6.2c1.9-2,3.9-3.4,6.1-4.3c2.3-0.9,4.8-1.4,7.6-1.4c2.7,0,5,0.4,7,1.4c2,0.9,3.5,2.3,4.7,4.1
				V12h8.4v37.1H250z M227.9,30.3c0,3.1,1,5.8,3.1,7.8s4.6,3.2,7.6,3.2c2.7,0,5.1-1.1,7.2-3.2c2.1-2.1,3.1-4.6,3.1-7.4
				c0-3-1-5.6-3.1-7.8c-2.1-2.2-4.5-3.3-7.3-3.3c-2.9,0-5.4,1-7.5,3.1C229,24.8,227.9,27.3,227.9,30.3z"/>
		</g>
		<g>
			<path class="st4" d="M289.8,0.4V9h-9.3v40.5H271V9h-9.3V0.4H289.8z"/>
			<path class="st4" d="M319.6,49.5V45c-1,1.8-2.5,3.2-4.4,4.1c-1.9,0.9-4.3,1.3-7.2,1.3c-5.5,0-10.1-1.9-13.8-5.6
				c-3.7-3.8-5.5-8.4-5.5-14c0-2.6,0.5-5.1,1.4-7.4s2.2-4.4,4-6.2c1.8-2,3.9-3.4,6.1-4.3c2.3-0.9,4.8-1.4,7.6-1.4c2.7,0,5,0.5,7,1.3
				c2,0.9,3.5,2.3,4.7,4.1v-4.5h8.4v37.1H319.6z M297.6,30.7c0,3.1,1,5.8,3.1,7.8s4.6,3.2,7.6,3.2c2.7,0,5.1-1.1,7.2-3.2
				c2.1-2.1,3.1-4.6,3.1-7.4c0-3-1-5.6-3.1-7.8s-4.5-3.3-7.3-3.3c-2.9,0-5.4,1-7.5,3.1C298.6,25.2,297.6,27.7,297.6,30.7z"/>
			<path class="st4" d="M343.4,15.4c1.6-1.3,3.3-2.3,5.2-2.9c1.9-0.6,4-0.9,6.4-0.9c2.5,0,4.8,0.4,7,1.3s4.1,2,5.8,3.7
				c2,1.8,3.5,4,4.6,6.5s1.6,5.2,1.6,7.9c0,3-0.6,5.8-1.8,8.4c-1.2,2.7-2.9,4.9-5.1,6.9c-1.6,1.4-3.5,2.5-5.6,3.2s-4.3,1.1-6.6,1.1
				c-2.2,0-4.3-0.3-6.1-1c-1.9-0.7-3.7-1.7-5.4-3v3h-8.5V0.4h8.5L343.4,15.4L343.4,15.4z M343.8,31.2c0,3,1,5.6,3,7.7
				s4.4,3.1,7.3,3.1c3.2,0,5.9-1,8-3.1c2.1-2.1,3.2-4.7,3.2-7.8c0-3-1-5.6-3.2-7.7c-2.1-2.2-4.6-3.2-7.6-3.2c-3,0-5.5,1.1-7.6,3.2
				S343.8,28,343.8,31.2z"/>
			<path class="st4" d="M380.1,49.5V0.4h8.4v49.2H380.1z"/>
			<path class="st4" d="M403,33.7c0.3,2.7,1.4,4.8,3.2,6.3c1.8,1.5,4.2,2.3,7.1,2.3c1.9,0,3.7-0.4,5.2-1.2c1.5-0.8,2.8-2,3.7-3.4
				h9.3c-1.6,4-3.9,7.2-7.1,9.4c-3.1,2.2-6.8,3.4-10.9,3.4c-2.8,0-5.3-0.5-7.6-1.5s-4.4-2.4-6.3-4.3c-1.8-1.8-3.1-3.9-4.1-6.3
				c-1-2.4-1.5-4.9-1.5-7.4c0-2.6,0.4-5,1.3-7.3c0.9-2.3,2.2-4.3,3.9-6.2c1.9-2,4-3.5,6.4-4.6s4.9-1.6,7.4-1.6c3.2,0,6.2,0.7,9,2.2
				s5.2,3.5,7.1,6.2c1.2,1.6,2.1,3.4,2.6,5.4s0.9,4.3,0.9,6.8c0,0.2,0,0.5,0,0.9c0,0.4,0,0.7,0,0.9C432.7,33.7,403,33.7,403,33.7z
				 M423.5,26.9c-0.7-2.5-2-4.4-3.7-5.7s-4-1.9-6.6-1.9c-2.3,0-4.4,0.7-6.2,2.1c-1.8,1.4-3,3.2-3.7,5.5L423.5,26.9L423.5,26.9z"/>
			<path class="st4" d="M443.8,37.2v0.5c0,1.6,0.4,3,1.3,4s1.9,1.5,3.2,1.5c1.3,0,2.3-0.4,3.1-1.2c0.8-0.8,1.2-1.7,1.2-2.9
				c0-1.1-0.3-2-0.9-2.7s-1.6-1.4-3.1-2.1c-0.9-0.4-2.1-0.9-3.8-1.6c-1.7-0.7-2.7-1.2-3.2-1.6c-1.4-1.1-2.4-2.4-3-3.8
				c-0.6-1.4-1-3-1-4.7c0-3.1,1.1-5.8,3.3-7.9s4.9-3.2,8-3.2c3.3,0,5.9,1,7.9,2.9c1.9,1.9,3,4.6,3.2,8h-7.8v-0.2
				c0-1.2-0.3-2.1-0.9-2.8s-1.5-1-2.6-1c-1,0-1.8,0.3-2.4,1c-0.6,0.7-1,1.5-1,2.5c0,1.6,1.7,3.1,5,4.5c0.9,0.4,1.5,0.6,2,0.8
				c3.2,1.4,5.4,3,6.5,4.6c1.2,1.7,1.8,3.9,1.8,6.7c0,3.5-1.2,6.3-3.5,8.6s-5.3,3.4-8.9,3.4c-3.6,0-6.5-1.2-8.7-3.6
				s-3.4-5.6-3.6-9.7L443.8,37.2z"/>
		</g>
	</g>
</g>
</svg>
