<?xml version="1.0" encoding="utf-8"?>
<!-- Generator: Adobe Illustrator 24.0.1, SVG Export Plug-In . SVG Version: 6.00 Build 0)  -->
<svg version="1.1" id="Layer_1" xmlns="http://www.w3.org/2000/svg" xmlns:xlink="http://www.w3.org/1999/xlink" x="0px" y="0px"
	 viewBox="0 0 584.32 113.07" style="enable-background:new 0 0 584.32 113.07;" xml:space="preserve">
<style type="text/css">
	.st0{fill:#00ABC3;}
	.st1{fill:#EE9022;}
	.st2{fill:#1BAEC6;}
</style>
<g>
	<path class="st0" d="M168.27,35.36h5.11L153.05,72h-6.1l-20.05-36.64h5.16l17.96,32.69L168.27,35.36z"/>
	<path class="st0" d="M179.64,51.18h30.71v3.68h-30.71v13.46h32.25V72h-36.7V35.36h36.31v3.74h-31.86V51.18z"/>
	<path class="st0" d="M248.31,35.36c4.14,0.04,7.24,0.74,9.31,2.12c2.07,1.37,3.1,4.31,3.1,8.82c0,3.22-0.49,5.47-1.46,6.73
		c-0.97,1.26-3.09,2.13-6.34,2.61c2.12,0.26,3.85,0.8,5.16,1.62c1.32,0.82,1.98,2.45,1.98,4.86V72h-4.39v-8.13
		c0-2.78-0.61-4.59-1.84-5.41c-1.23-0.82-3.2-1.24-5.91-1.24h-24.99V72h-4.45V35.36H248.31z M247.48,53.49
		c3.11,0.04,5.33-0.42,6.65-1.37c1.32-0.95,1.98-2.98,1.98-6.1c0-3.08-0.75-4.99-2.25-5.74c-1.5-0.75-3.66-1.13-6.48-1.13h-24.45
		v14.34H247.48z"/>
	<path class="st0" d="M307.42,45.52h-4.45c0-0.22-0.01-0.48-0.03-0.77c-0.02-0.29-0.05-0.59-0.08-0.88
		c-0.07-0.73-0.27-1.45-0.58-2.14c-0.31-0.7-0.83-1.21-1.57-1.54c-0.73-0.37-1.73-0.63-2.99-0.8c-1.26-0.16-2.57-0.28-3.93-0.36
		c-0.92-0.04-1.8-0.06-2.66-0.08c-0.86-0.02-1.66-0.03-2.39-0.03h-1.54c-0.81,0.04-1.79,0.07-2.94,0.11
		c-1.15,0.04-2.35,0.11-3.6,0.22c-1.32,0.11-2.6,0.26-3.85,0.46c-1.25,0.2-2.27,0.48-3.08,0.84c-0.92,0.4-1.53,1.01-1.84,1.83
		c-0.31,0.82-0.5,1.68-0.58,2.59c0,0.11,0,0.22,0,0.33c0,0.11,0,0.22,0,0.33c0,2.38,0.68,3.92,2.03,4.61
		c1.35,0.7,3.08,1.08,5.16,1.15c0.33,0.04,0.66,0.06,0.99,0.08c0.33,0.02,0.68,0.03,1.04,0.03c0.33,0,0.66,0,0.99,0s0.66,0,0.99,0
		c0.73,0,1.46,0,2.17,0c0.71,0,1.44-0.02,2.17-0.05c0.7,0,1.41,0,2.14,0c0.73,0,1.45,0,2.14,0c0.62,0,1.25,0,1.9,0
		c0.64,0,1.29,0.02,1.95,0.05c0.62,0.04,1.25,0.07,1.9,0.11c0.64,0.04,1.27,0.09,1.9,0.17c3.37,0.37,5.8,1.24,7.31,2.61
		c1.5,1.37,2.25,3.8,2.25,7.28c0,2.01-0.31,3.81-0.93,5.38c-0.62,1.58-1.94,2.8-3.96,3.68c-1.1,0.51-2.41,0.87-3.93,1.07
		c-1.52,0.2-3.07,0.34-4.64,0.41c-0.84,0.04-1.68,0.06-2.5,0.08c-0.82,0.02-1.62,0.03-2.39,0.03h-2.91c-0.92,0-1.84-0.01-2.77-0.03
		c-0.93-0.02-1.86-0.05-2.77-0.08c-0.95-0.04-1.9-0.08-2.83-0.14c-0.93-0.05-1.86-0.14-2.77-0.25c-3.85-0.51-6.34-1.57-7.5-3.16
		c-1.15-1.59-1.73-4.28-1.73-8.05l4.45-0.05v0.77c0,0.07,0,0.12,0,0.14s0,0.05,0,0.08c0.04,1.39,0.19,2.62,0.47,3.68
		c0.27,1.06,1.2,1.83,2.77,2.31c0.88,0.26,1.9,0.45,3.08,0.58c1.17,0.13,2.38,0.23,3.63,0.3c1.1,0.04,2.2,0.06,3.3,0.08
		c1.1,0.02,2.07,0.03,2.91,0.03c0.59,0,1.16-0.01,1.73-0.03c0.57-0.02,1.14-0.03,1.73-0.03c1.17-0.04,2.33-0.1,3.49-0.19
		c1.15-0.09,2.3-0.21,3.43-0.36c2.09-0.26,3.62-0.83,4.59-1.73c0.97-0.9,1.46-2.41,1.46-4.53c0-2.82-0.71-4.53-2.12-5.14
		c-1.41-0.6-3.4-0.92-5.96-0.96l-8.4-0.17c-0.33,0.04-0.66,0.05-0.99,0.05s-0.66-0.02-0.99-0.05c-1.32,0-2.64-0.02-3.96-0.06
		c-1.32-0.04-2.62-0.09-3.9-0.16c-3.19-0.18-5.78-0.84-7.77-1.98c-2-1.13-2.99-3.37-2.99-6.7c0-2.23,0.38-4.24,1.13-6.02
		c0.75-1.78,2.24-3.08,4.48-3.93c1.02-0.37,2.23-0.66,3.63-0.88c1.39-0.22,2.84-0.37,4.34-0.44c1.32-0.11,2.61-0.17,3.87-0.19
		c1.26-0.02,2.39-0.03,3.38-0.03c0.88,0,1.78,0.01,2.69,0.03c0.92,0.02,1.83,0.05,2.75,0.08c0.88,0.04,1.78,0.08,2.69,0.14
		c0.92,0.05,1.81,0.14,2.69,0.25c3.22,0.33,5.55,1.3,6.98,2.91c1.43,1.61,2.14,3.99,2.14,7.14V45.52z"/>
	<path class="st0" d="M319.33,63.76L314.67,72h-5.22l21.64-36.64h5.93L358.83,72h-5.11l-4.78-8.24H319.33z M334.06,38.6
		l-12.63,21.48h25.43L334.06,38.6z"/>
	<path class="st1" d="M404.37,35.36c6.34,0.04,10.35,1.58,12.03,4.61c1.68,3.04,2.53,7.43,2.53,13.18c0,0.99-0.02,2.07-0.05,3.24
		c-0.04,1.17-0.15,2.36-0.33,3.57c-0.22,1.72-0.6,3.38-1.13,4.97c-0.53,1.59-1.31,2.92-2.33,3.98c-1.1,1.1-2.39,1.86-3.87,2.28
		c-1.48,0.42-2.99,0.67-4.53,0.74c-0.66,0.04-1.3,0.05-1.92,0.05c-0.62,0-1.25,0-1.87,0h-0.44h-28.68V35.36H404.37z M402.94,68.32
		c5.6,0.04,8.9-1.31,9.89-4.04c0.99-2.73,1.48-6.42,1.48-11.07c0-4.47-0.53-7.94-1.59-10.41c-1.06-2.47-4.18-3.71-9.34-3.71h-25.16
		v29.22H402.94z"/>
	<path class="st1" d="M430.3,51.18h30.71v3.68H430.3v13.46h32.25V72h-36.7V35.36h36.31v3.74H430.3V51.18z"/>
	<path class="st1" d="M509.24,45.52h-4.45c0-0.22-0.01-0.48-0.03-0.77c-0.02-0.29-0.05-0.59-0.08-0.88
		c-0.07-0.73-0.27-1.45-0.58-2.14c-0.31-0.7-0.83-1.21-1.57-1.54c-0.73-0.37-1.73-0.63-2.99-0.8c-1.26-0.16-2.57-0.28-3.93-0.36
		c-0.92-0.04-1.8-0.06-2.67-0.08c-0.86-0.02-1.66-0.03-2.39-0.03h-1.54c-0.81,0.04-1.79,0.07-2.94,0.11s-2.35,0.11-3.6,0.22
		c-1.32,0.11-2.6,0.26-3.84,0.46c-1.25,0.2-2.27,0.48-3.08,0.84c-0.92,0.4-1.53,1.01-1.84,1.83c-0.31,0.82-0.5,1.68-0.58,2.59
		c0,0.11,0,0.22,0,0.33c0,0.11,0,0.22,0,0.33c0,2.38,0.68,3.92,2.03,4.61c1.35,0.7,3.08,1.08,5.16,1.15
		c0.33,0.04,0.66,0.06,0.99,0.08c0.33,0.02,0.68,0.03,1.04,0.03c0.33,0,0.66,0,0.99,0c0.33,0,0.66,0,0.99,0c0.73,0,1.46,0,2.17,0
		s1.44-0.02,2.17-0.05c0.7,0,1.41,0,2.14,0c0.73,0,1.45,0,2.14,0c0.62,0,1.25,0,1.9,0s1.29,0.02,1.95,0.05
		c0.62,0.04,1.25,0.07,1.9,0.11c0.64,0.04,1.27,0.09,1.89,0.17c3.37,0.37,5.8,1.24,7.31,2.61c1.5,1.37,2.25,3.8,2.25,7.28
		c0,2.01-0.31,3.81-0.93,5.38c-0.62,1.58-1.94,2.8-3.96,3.68c-1.1,0.51-2.41,0.87-3.93,1.07c-1.52,0.2-3.07,0.34-4.64,0.41
		c-0.84,0.04-1.68,0.06-2.5,0.08s-1.62,0.03-2.39,0.03h-2.91c-0.92,0-1.84-0.01-2.77-0.03s-1.86-0.05-2.77-0.08
		c-0.95-0.04-1.89-0.08-2.83-0.14c-0.93-0.05-1.86-0.14-2.77-0.25c-3.85-0.51-6.34-1.57-7.5-3.16c-1.15-1.59-1.73-4.28-1.73-8.05
		l4.45-0.05v0.77c0,0.07,0,0.12,0,0.14s0,0.05,0,0.08c0.04,1.39,0.19,2.62,0.47,3.68c0.27,1.06,1.2,1.83,2.77,2.31
		c0.88,0.26,1.9,0.45,3.08,0.58c1.17,0.13,2.38,0.23,3.63,0.3c1.1,0.04,2.2,0.06,3.3,0.08c1.1,0.02,2.07,0.03,2.91,0.03
		c0.58,0,1.16-0.01,1.73-0.03c0.57-0.02,1.14-0.03,1.73-0.03c1.17-0.04,2.33-0.1,3.49-0.19c1.15-0.09,2.3-0.21,3.43-0.36
		c2.09-0.26,3.62-0.83,4.59-1.73c0.97-0.9,1.46-2.41,1.46-4.53c0-2.82-0.71-4.53-2.12-5.14c-1.41-0.6-3.4-0.92-5.96-0.96l-8.4-0.17
		c-0.33,0.04-0.66,0.05-0.99,0.05c-0.33,0-0.66-0.02-0.99-0.05c-1.32,0-2.64-0.02-3.96-0.06c-1.32-0.04-2.62-0.09-3.9-0.16
		c-3.19-0.18-5.78-0.84-7.77-1.98c-2-1.13-2.99-3.37-2.99-6.7c0-2.23,0.38-4.24,1.13-6.02c0.75-1.78,2.24-3.08,4.48-3.93
		c1.02-0.37,2.23-0.66,3.63-0.88c1.39-0.22,2.84-0.37,4.34-0.44c1.32-0.11,2.61-0.17,3.87-0.19c1.26-0.02,2.39-0.03,3.38-0.03
		c0.88,0,1.78,0.01,2.69,0.03c0.92,0.02,1.83,0.05,2.75,0.08c0.88,0.04,1.78,0.08,2.69,0.14c0.92,0.05,1.81,0.14,2.69,0.25
		c3.22,0.33,5.55,1.3,6.98,2.91c1.43,1.61,2.14,3.99,2.14,7.14V45.52z"/>
	<path class="st1" d="M527.59,51.18l24.06-15.82h7.58l-26.92,17.69L561.04,72h-8.02l-25.43-17.14h-6.48V72h-4.45V35.36h4.45v15.82
		H527.59z"/>
</g>
<g>
	<path class="st1" d="M577.01,33.66c1.79,0.01,3.33,0.66,4.6,1.94c1.27,1.28,1.91,2.82,1.91,4.61s-0.64,3.33-1.91,4.6
		c-1.28,1.27-2.81,1.91-4.6,1.91c-1.79,0-3.33-0.64-4.61-1.91s-1.92-2.81-1.92-4.6c0-1.81,0.64-3.34,1.92-4.62
		c1.28-1.27,2.82-1.91,4.61-1.91V33.66z M577.01,34.38c-1.6,0.01-2.96,0.59-4.08,1.73s-1.68,2.51-1.68,4.1
		c0,1.58,0.56,2.94,1.68,4.09c1.12,1.15,2.48,1.72,4.07,1.72c1.59,0,2.94-0.57,4.05-1.72c1.11-1.15,1.67-2.51,1.67-4.09
		s-0.56-2.94-1.67-4.09c-1.11-1.15-2.46-1.72-4.05-1.72V34.38z M577.33,36.52c0.04,0.01,0.08,0.02,0.12,0.02c0.04,0,0.09,0,0.12,0
		c0.59,0.04,1.14,0.2,1.64,0.49c0.5,0.29,0.75,0.79,0.75,1.5c0,0.44-0.12,0.83-0.37,1.15s-0.58,0.57-0.99,0.72
		c0.59,0.18,0.94,0.46,1.04,0.84c0.1,0.39,0.16,0.8,0.17,1.26c0,0.05,0,0.1,0,0.15s0,0.1,0,0.15c0.01,0.2,0.04,0.4,0.07,0.61
		c0.03,0.2,0.09,0.4,0.18,0.59l-0.91-0.02c-0.05-0.08-0.09-0.17-0.1-0.27s-0.04-0.22-0.05-0.33c0-0.02,0-0.06-0.01-0.09
		c-0.01-0.04-0.01-0.08-0.01-0.11c0-0.08,0-0.15,0-0.23s-0.01-0.15-0.02-0.21c-0.01-0.67-0.1-1.17-0.27-1.51
		c-0.17-0.33-0.74-0.5-1.71-0.5h-1.84V44h-0.93v-7.48H577.33z M575.13,40.1h1.88c0.52,0.01,0.98-0.08,1.4-0.28
		c0.42-0.2,0.63-0.61,0.63-1.23c0-0.56-0.19-0.93-0.58-1.12s-0.82-0.28-1.3-0.28l-2.03-0.02V40.1z"/>
</g>
<path class="st2" d="M56.08,3.12c-29.71,0-53.8,24.08-53.8,53.8c0,29.71,24.08,53.8,53.8,53.8s53.8-24.08,53.8-53.8
	C109.87,27.2,85.79,3.12,56.08,3.12z M56.08,104.9c-26.51,0-47.99-21.49-47.99-47.99S29.57,8.92,56.08,8.92s47.99,21.49,47.99,47.99
	S82.59,104.9,56.08,104.9z"/>
<path class="st1" d="M43.92,24.64c4.35,0,7.88,2.14,10.39,7.37s12.21,25.1,13.15,27c0.78,1.56,1.7,3.54-0.24,4.2
	c-1.94,0.66-3.72,0.71-4.99-1.73c-2.36-4.51-11.62-23.17-12.93-25.8c-1.32-2.63-1.93-4.4-5.38-4.4c-3.45,0-4.07,1.77-5.38,4.4
	c-1.32,2.63-10.57,21.3-12.93,25.8c-1.27,2.44-3.05,2.39-4.99,1.73s-1.02-2.64-0.24-4.2c0.94-1.9,10.64-21.76,13.15-27
	S39.58,24.64,43.92,24.64z"/>
<path class="st1" d="M66.78,88.76c-4.35,0-7.88-2.14-10.39-7.37s-12.21-25.1-13.15-27c-0.78-1.56-1.7-3.54,0.24-4.2
	s3.72-0.71,4.99,1.73c2.36,4.51,11.62,23.17,12.93,25.8c1.32,2.63,1.93,4.4,5.38,4.4s4.07-1.77,5.38-4.4s10.57-21.3,12.93-25.8
	c1.27-2.44,3.05-2.39,4.99-1.73s1.02,2.64,0.24,4.2c-0.94,1.9-10.64,21.76-13.15,27C74.66,86.62,71.13,88.76,66.78,88.76z"/>
</svg>
